0
SECTION
2
HEADER
9
$ACADVER
1
AC1009
9
$TEXTSTYLE
7
STANDARD
9
$CECOLOR
62
256
9
$AUNITS
70
0
9
$LUNITS
70
3
9
$EXTMIN
10
66.5000000
20
66.5000000
9
$EXTMAX
10
133.5000000
20
133.5000000
9
$FILLMODE
70
1
0
ENDSEC
0
SECTION
2
TABLES
0
TABLE
2
LAYER
70
1
0
LAYER
2
Top
70
64
62
1
6
CONTINUOUS
0
LAYER
2
Drill_Layer
70
64
62
100
6
CONTINUOUS
0
ENDTAB
0
ENDSEC
0
SECTION
2
BLOCKS
0
BLOCK
2
UNIT_DISC
8
0
70
0
10
0.0000000
20
0.0000000
0
POLYLINE
8
0
6
CONTINUOUS
66
1
70
1
40
0.5000000
41
0.5000000
0
VERTEX
8
0
10
0.2500000
20
0.0000000
42
1.0000000
0
VERTEX
8
0
10
-0.2500000
20
0.0000000
42
1.0000000
0
SEQEND
0
ENDBLK
0
BLOCK
2
UNIT_CIRCLE
8
0
70
0
10
0.0000000
20
0.0000000
0
CIRCLE
8
0
6
CONTINUOUS
10
0.0000000
20
0.0000000
40
0.5000000
0
ENDBLK
0
ENDSEC
0
SECTION
2
ENTITIES
0
POLYLINE
8
Top
6
CONTINUOUS
66
1
70
1
40
1.0000000
41
1.0000000
0
VERTEX
8
Top
10
125.0000000
20
100.0000000
42
1.0000000
0
VERTEX
8
Top
10
75.0000000
20
100.0000000
42
1.0000000
0
SEQEND
0
INSERT
8
Top
2
UNIT_DISC
10
67.0000000
20
70.0000000
41
1.0000000
42
1.0000000
43
1.0000000
50
0.0000000
0
INSERT
8
Top
2
UNIT_DISC
10
73.0000000
20
70.0000000
41
1.0000000
42
1.0000000
43
1.0000000
50
0.0000000
0
POLYLINE
8
Top
6
CONTINUOUS
66
1
70
0
40
1.0000000
41
1.0000000
0
VERTEX
8
Top
10
67.0000000
20
70.0000000
42
0.0000000
0
VERTEX
8
Top
10
73.0000000
20
70.0000000
42
0.0000000
0
SEQEND
0
INSERT
8
Top
2
UNIT_DISC
10
70.0000000
20
67.0000000
41
1.0000000
42
1.0000000
43
1.0000000
50
0.0000000
0
INSERT
8
Top
2
UNIT_DISC
10
70.0000000
20
73.0000000
41
1.0000000
42
1.0000000
43
1.0000000
50
0.0000000
0
POLYLINE
8
Top
6
CONTINUOUS
66
1
70
0
40
1.0000000
41
1.0000000
0
VERTEX
8
Top
10
70.0000000
20
67.0000000
42
0.0000000
0
VERTEX
8
Top
10
70.0000000
20
73.0000000
42
0.0000000
0
SEQEND
0
INSERT
8
Top
2
UNIT_DISC
10
67.0000000
20
130.0000000
41
1.0000000
42
1.0000000
43
1.0000000
50
0.0000000
0
INSERT
8
Top
2
UNIT_DISC
10
73.0000000
20
130.0000000
41
1.0000000
42
1.0000000
43
1.0000000
50
0.0000000
0
POLYLINE
8
Top
6
CONTINUOUS
66
1
70
0
40
1.0000000
41
1.0000000
0
VERTEX
8
Top
10
67.0000000
20
130.0000000
42
0.0000000
0
VERTEX
8
Top
10
73.0000000
20
130.0000000
42
0.0000000
0
SEQEND
0
INSERT
8
Top
2
UNIT_DISC
10
70.0000000
20
127.0000000
41
1.0000000
42
1.0000000
43
1.0000000
50
0.0000000
0
INSERT
8
Top
2
UNIT_DISC
10
70.0000000
20
133.0000000
41
1.0000000
42
1.0000000
43
1.0000000
50
0.0000000
0
POLYLINE
8
Top
6
CONTINUOUS
66
1
70
0
40
1.0000000
41
1.0000000
0
VERTEX
8
Top
10
70.0000000
20
127.0000000
42
0.0000000
0
VERTEX
8
Top
10
70.0000000
20
133.0000000
42
0.0000000
0
SEQEND
0
INSERT
8
Top
2
UNIT_DISC
10
127.0000000
20
130.0000000
41
1.0000000
42
1.0000000
43
1.0000000
50
0.0000000
0
INSERT
8
Top
2
UNIT_DISC
10
133.0000000
20
130.0000000
41
1.0000000
42
1.0000000
43
1.0000000
50
0.0000000
0
POLYLINE
8
Top
6
CONTINUOUS
66
1
70
0
40
1.0000000
41
1.0000000
0
VERTEX
8
Top
10
127.0000000
20
130.0000000
42
0.0000000
0
VERTEX
8
Top
10
133.0000000
20
130.0000000
42
0.0000000
0
SEQEND
0
INSERT
8
Top
2
UNIT_DISC
10
130.0000000
20
127.0000000
41
1.0000000
42
1.0000000
43
1.0000000
50
0.0000000
0
INSERT
8
Top
2
UNIT_DISC
10
130.0000000
20
133.0000000
41
1.0000000
42
1.0000000
43
1.0000000
50
0.0000000
0
POLYLINE
8
Top
6
CONTINUOUS
66
1
70
0
40
1.0000000
41
1.0000000
0
VERTEX
8
Top
10
130.0000000
20
127.0000000
42
0.0000000
0
VERTEX
8
Top
10
130.0000000
20
133.0000000
42
0.0000000
0
SEQEND
0
INSERT
8
Top
2
UNIT_DISC
10
127.0000000
20
70.0000000
41
1.0000000
42
1.0000000
43
1.0000000
50
0.0000000
0
INSERT
8
Top
2
UNIT_DISC
10
133.0000000
20
70.0000000
41
1.0000000
42
1.0000000
43
1.0000000
50
0.0000000
0
POLYLINE
8
Top
6
CONTINUOUS
66
1
70
0
40
1.0000000
41
1.0000000
0
VERTEX
8
Top
10
127.0000000
20
70.0000000
42
0.0000000
0
VERTEX
8
Top
10
133.0000000
20
70.0000000
42
0.0000000
0
SEQEND
0
INSERT
8
Top
2
UNIT_DISC
10
130.0000000
20
67.0000000
41
1.0000000
42
1.0000000
43
1.0000000
50
0.0000000
0
INSERT
8
Top
2
UNIT_DISC
10
130.0000000
20
73.0000000
41
1.0000000
42
1.0000000
43
1.0000000
50
0.0000000
0
POLYLINE
8
Top
6
CONTINUOUS
66
1
70
0
40
1.0000000
41
1.0000000
0
VERTEX
8
Top
10
130.0000000
20
67.0000000
42
0.0000000
0
VERTEX
8
Top
10
130.0000000
20
73.0000000
42
0.0000000
0
SEQEND
0
POLYLINE
8
Top
6
CONTINUOUS
66
1
70
1
40
1.0000000
41
1.0000000
0
VERTEX
8
Top
10
101.0000000
20
100.0000000
42
1.0000000
0
VERTEX
8
Top
10
99.0000000
20
100.0000000
42
1.0000000
0
SEQEND
0
ENDSEC
0
EOF
