M48
INCH
T01C0.015
T02C0.026
T03C0.043
T04C0.046
%
T01
X+034094Y+040196
X+029291
X+040078
X+028385Y+041653
X+028346Y+042362
X+030826Y+044212
X+030787Y+042952
X+030590Y+040629
X+030669Y+044685
X+035133Y+042637
X+032559Y+043740
X+032102Y+041000
X+032685Y+042000
X+032637Y+042677
X+030590Y+042440
X+039409Y+044724
X+035433Y+044645
X+035393Y+040629
X+035629Y+044212
X+037322Y+043740
X+035590Y+042952
X+038110Y+044330
X+037598Y+041929
X+036905Y+040929
X+029291Y+044881
X+034094
X+040078
X+043622Y+042291
X+042944Y+041196
X+043385Y+043700
X+041653Y+042795
X+048228Y+040551
X+049212Y+040944
Y+041732
Y+044881
Y+044094
Y+043307
Y+042519
X+046181Y+043385
X+041661Y+044094
X+041629Y+041905
X+046228Y+040307
X+041637Y+041110
X+048188Y+045118
X+046574Y+044212
X+046811Y+044763
X+047440Y+044842
X+046102Y+044598
X+043818Y+041614
X+043897Y+042858
X+046078Y+042677
X+046055Y+042047
X+044878Y+044859
X+045822Y+048244
X+048137Y+048070
X+050106Y+049149
X+050208Y+049874
X+048248Y+050669
X+045940Y+051511
X+048224
X+046641Y+051503
X+056787Y+050629
X+056763Y+051472
X+055181Y+051464
X+054480Y+051472
X+058220Y+043968
X+054299Y+043062
X+056614Y+045039
X+058110Y+044803
X+055314Y+042598
X+059921Y+044842
X+059842Y+041929
X+057047Y+042007
X+059921Y+044330
X+051574Y+044881
Y+044094
Y+043307
Y+042519
Y+041732
Y+040944
X+059370Y+042362
X+059330Y+044763
X+058748Y+049834
X+058645Y+049110
X+056677Y+048031
X+054362Y+048204
X+071417Y+044370
X+070511
X+067125Y+045078
X+060393Y+041456
X+064330Y+041377
X+064212Y+043976
X+060826Y+041456
X+062244Y+041692
X+064606Y+044370
X+068858Y+040393
X+066023Y+043385
X+067007Y+044409
X+064606Y+044921
X+061259Y+041456
X+064330Y+040905
Y+040433
X+064921
Y+040905
Y+041377
X+062834Y+045078
X+063188Y+044133
X+066622Y+043385
X+060236Y+043779
X+061181
X+060708
X+063700Y+041385
Y+040913
Y+040440
X+063976Y+042519
X+065787Y+051889
X+062897Y+051692
X+064488Y+050511
X+066614Y+048488
X+062992Y+049094
X+065708Y+049566
X+063425Y+049488
X+063874Y+052196
X+065188Y+052212
X+066889Y+050551
X+062889Y+049637
X+064062Y+047251
X+064881Y+047228
X+063866Y+049275
X+065228Y+049267
X+062460Y+048976
X+049212Y+040157
X+060708Y+039881
X+059212
X+059763
X+051574Y+040157
X+064330Y+040000
X+064921
X+058031Y+040070
X+054590Y+040110
X+046811Y+039842
X+047251Y+040118
X+063700Y+040007
T02
X+070779Y+041803
X+071271
X+071763
X+070287
X+068299Y+043377
X+068791
X+069283
X+069775
X+070267
X+070759
X+071251
X+071744
X+067807
T03
X+047641Y+047204
Y+052401
X+056181Y+052362
Y+047165
X+067204Y+049724
X+062007
T04
X+059370Y+043503
T00
M30
