G04 CAM Products 2000  RS274-X Output*
G04 Serial Number: 0000-00-00000*
G04 File Name:C:\Documents and Settings\ram\Desktop\leds.hpgl.GBR *
%FSLAX34Y34*%
%MOIN*%
%SFA1B1*%

%IPPOS*%
%ADD10C,0.001100*%
%LNleds.hpgl-1*%
%LPD*%
G54D10*
X32991Y50989D02*
X33492Y50992D01*
X33493Y50989D02*
X33492Y51992D01*
X30029Y56491D02*
X32988Y50992D01*
X34527Y62997D02*
X33492Y62000D01*
X34527Y58174D02*
X34524Y63000D01*
X32391Y58174D02*
X34524Y58184D01*
X33493Y61993D02*
X33492Y63000D01*
X33493Y62997D02*
X32988Y63000D01*
X31505Y57289D02*
X32388Y58184D01*
X30029Y57495D02*
X30020Y56496D01*
X32991Y62997D02*
X30020Y57496D01*
X31505Y56678D02*
X31500Y57296D01*
X32391Y55802D02*
X31500Y56688D01*
X34527Y55802D02*
X32388Y55808D01*
X33493Y51983D02*
X34524Y50992D01*
X34527Y50989D02*
X34524Y55808D01*
X50127Y66924D02*
X44916Y57888D01*
X51426Y66166D02*
X50132Y66928D01*
X45619Y56127D02*
X51436Y66176D01*
X45627Y56127D02*
D01*
X45627Y56128*
X45627Y56128*
X45627Y56129*
X45627Y56129*
X45627Y56130*
X45627Y56130*
X45626Y56131*
X45626Y56131*
X45626Y56132*
X45625Y56132*
X45625Y56133*
X45625Y56133*
X45624Y56133*
X45624Y56134*
X45623Y56134*
X45623Y56134*
X45622Y56135*
X45622Y56135*
X45621Y56135*
X45621Y56135*
X45620Y56135*
X45619Y56135*
X45619*
X45618Y56135*
X45618Y56135*
X45617Y56135*
X45617Y56135*
X45616Y56135*
X45616Y56134*
X45615Y56134*
X45615Y56134*
X45614Y56133*
X45614Y56133*
X45613Y56133*
X45613Y56132*
X45613Y56132*
X45612Y56131*
X45612Y56131*
X45612Y56130*
X45612Y56130*
X45612Y56129*
X45611Y56129*
X45611Y56128*
X45611Y56128*
X45611Y56127*
X45611Y56127*
X45611Y56126*
X45611Y56125*
X45612Y56125*
X45612Y56124*
X45612Y56124*
X45612Y56123*
X45612Y56123*
X45613Y56122*
X45613Y56122*
X45613Y56122*
X45614Y56121*
X45614Y56121*
X45615Y56120*
X45615Y56120*
X45616Y56120*
X45616Y56120*
X45617Y56120*
X45617Y56119*
X45618Y56119*
X45618Y56119*
X45619Y56119*
X45619Y56119*
X45620Y56119*
X45621Y56119*
X45621Y56119*
X45622Y56120*
X45622Y56120*
X45623Y56120*
X45623Y56120*
X45624Y56120*
X45624Y56121*
X45625Y56121*
X45625Y56122*
X45625Y56122*
X45626Y56122*
X45626Y56123*
X45626Y56123*
X45627Y56124*
X45627Y56124*
X45627Y56125*
X45627Y56125*
X45627Y56126*
X45627Y56127*
X45627Y56127*
X45619Y56127D02*
X45627D01*
X45619D02*
X45627D01*
X42647Y56098D02*
X45628Y56104D01*
X45619Y56098D02*
X45628Y57888D01*
X45619Y57879D02*
X42660Y57888D01*
X42352Y56098D02*
X42348Y57576D01*
X42352Y55792D02*
X42644Y56104D01*
X42647Y56098D02*
X42348Y56104D01*
X42666Y57879D02*
X41460Y56688D01*
X42352Y57574D02*
X42660Y57888D01*
X42674Y57879D02*
D01*
X42674Y57880*
X42674Y57880*
X42674Y57881*
X42674Y57881*
X42674Y57882*
X42674Y57882*
X42674Y57883*
X42673Y57883*
X42673Y57884*
X42673Y57884*
X42672Y57885*
X42672Y57885*
X42671Y57885*
X42671Y57886*
X42670Y57886*
X42670Y57886*
X42669Y57886*
X42669Y57887*
X42668Y57887*
X42668Y57887*
X42667Y57887*
X42667Y57887*
X42666*
X42666Y57887*
X42665Y57887*
X42665Y57887*
X42664Y57887*
X42663Y57886*
X42663Y57886*
X42662Y57886*
X42662Y57886*
X42662Y57885*
X42661Y57885*
X42661Y57885*
X42660Y57884*
X42660Y57884*
X42660Y57883*
X42659Y57883*
X42659Y57882*
X42659Y57882*
X42659Y57881*
X42659Y57881*
X42659Y57880*
X42658Y57880*
X42658Y57879*
X42658Y57879*
X42659Y57878*
X42659Y57877*
X42659Y57877*
X42659Y57876*
X42659Y57876*
X42659Y57875*
X42660Y57875*
X42660Y57874*
X42660Y57874*
X42661Y57874*
X42661Y57873*
X42662Y57873*
X42662Y57872*
X42662Y57872*
X42663Y57872*
X42663Y57872*
X42664Y57871*
X42665Y57871*
X42665Y57871*
X42666Y57871*
X42666Y57871*
X42667*
X42667Y57871*
X42668Y57871*
X42668Y57871*
X42669Y57871*
X42669Y57872*
X42670Y57872*
X42670Y57872*
X42671Y57872*
X42671Y57873*
X42672Y57873*
X42672Y57874*
X42673Y57874*
X42673Y57874*
X42673Y57875*
X42674Y57875*
X42674Y57876*
X42674Y57876*
X42674Y57877*
X42674Y57877*
X42674Y57878*
X42674Y57879*
X42674Y57879*
X42666D02*
X42674D01*
X42666D02*
X42674D01*
X40342Y57397D02*
D01*
X40342Y57397*
X40342Y57398*
X40342Y57398*
X40341Y57399*
X40341Y57400*
X40341Y57400*
X40341Y57401*
X40341Y57401*
X40340Y57401*
X40340Y57402*
X40340Y57402*
X40339Y57403*
X40339Y57403*
X40338Y57403*
X40338Y57404*
X40337Y57404*
X40337Y57404*
X40336Y57404*
X40336Y57405*
X40335Y57405*
X40335Y57405*
X40334Y57405*
X40334*
X40333Y57405*
X40332Y57405*
X40332Y57405*
X40331Y57404*
X40331Y57404*
X40330Y57404*
X40330Y57404*
X40329Y57403*
X40329Y57403*
X40328Y57403*
X40328Y57402*
X40328Y57402*
X40327Y57402*
X40327Y57401*
X40327Y57401*
X40326Y57400*
X40326Y57400*
X40326Y57399*
X40326Y57398*
X40326Y57398*
X40326Y57397*
X40326Y57397*
X40326Y57396*
X40326Y57396*
X40326Y57395*
X40326Y57395*
X40326Y57394*
X40326Y57394*
X40327Y57393*
X40327Y57393*
X40327Y57392*
X40328Y57392*
X40328Y57391*
X40328Y57391*
X40329Y57390*
X40329Y57390*
X40330Y57390*
X40330Y57390*
X40331Y57389*
X40331Y57389*
X40332Y57389*
X40332Y57389*
X40333Y57389*
X40334Y57389*
X40334*
X40335Y57389*
X40335Y57389*
X40336Y57389*
X40336Y57389*
X40337Y57389*
X40337Y57390*
X40338Y57390*
X40338Y57390*
X40339Y57390*
X40339Y57391*
X40340Y57391*
X40340Y57392*
X40340Y57392*
X40341Y57393*
X40341Y57393*
X40341Y57394*
X40341Y57394*
X40341Y57395*
X40342Y57395*
X40342Y57396*
X40342Y57396*
X40342Y57397*
X40334Y57397D02*
X40342D01*
X40334D02*
X40342D01*
D01*
X40342Y57397*
X40342Y57398*
X40342Y57398*
X40341Y57399*
X40341Y57400*
X40341Y57400*
X40341Y57401*
X40341Y57401*
X40340Y57401*
X40340Y57402*
X40340Y57402*
X40339Y57403*
X40339Y57403*
X40338Y57403*
X40338Y57404*
X40337Y57404*
X40337Y57404*
X40336Y57404*
X40336Y57405*
X40335Y57405*
X40335Y57405*
X40334Y57405*
X40334*
X40333Y57405*
X40332Y57405*
X40332Y57405*
X40331Y57404*
X40331Y57404*
X40330Y57404*
X40330Y57404*
X40329Y57403*
X40329Y57403*
X40328Y57403*
X40328Y57402*
X40328Y57402*
X40327Y57402*
X40327Y57401*
X40327Y57401*
X40326Y57400*
X40326Y57400*
X40326Y57399*
X40326Y57398*
X40326Y57398*
X40326Y57397*
X40326Y57397*
X40326Y57396*
X40326Y57396*
X40326Y57395*
X40326Y57395*
X40326Y57394*
X40326Y57394*
X40327Y57393*
X40327Y57393*
X40327Y57392*
X40328Y57392*
X40328Y57391*
X40328Y57391*
X40329Y57390*
X40329Y57390*
X40330Y57390*
X40330Y57390*
X40331Y57389*
X40331Y57389*
X40332Y57389*
X40332Y57389*
X40333Y57389*
X40334Y57389*
X40334*
X40335Y57389*
X40335Y57389*
X40336Y57389*
X40336Y57389*
X40337Y57389*
X40337Y57390*
X40338Y57390*
X40338Y57390*
X40339Y57390*
X40339Y57391*
X40340Y57391*
X40340Y57392*
X40340Y57392*
X40341Y57393*
X40341Y57393*
X40341Y57394*
X40341Y57394*
X40341Y57395*
X40342Y57395*
X40342Y57396*
X40342Y57396*
X40342Y57397*
X40334Y57397D02*
X40342D01*
X40334D02*
X40342D01*
D01*
X40342Y57397*
X40342Y57398*
X40342Y57398*
X40341Y57399*
X40341Y57400*
X40341Y57400*
X40341Y57401*
X40341Y57401*
X40340Y57401*
X40340Y57402*
X40340Y57402*
X40339Y57403*
X40339Y57403*
X40338Y57403*
X40338Y57404*
X40337Y57404*
X40337Y57404*
X40336Y57404*
X40336Y57405*
X40335Y57405*
X40335Y57405*
X40334Y57405*
X40334*
X40333Y57405*
X40332Y57405*
X40332Y57405*
X40331Y57404*
X40331Y57404*
X40330Y57404*
X40330Y57404*
X40329Y57403*
X40329Y57403*
X40328Y57403*
X40328Y57402*
X40328Y57402*
X40327Y57402*
X40327Y57401*
X40327Y57401*
X40326Y57400*
X40326Y57400*
X40326Y57399*
X40326Y57398*
X40326Y57398*
X40326Y57397*
X40326Y57397*
X40326Y57396*
X40326Y57396*
X40326Y57395*
X40326Y57395*
X40326Y57394*
X40326Y57394*
X40327Y57393*
X40327Y57393*
X40327Y57392*
X40328Y57392*
X40328Y57391*
X40328Y57391*
X40329Y57390*
X40329Y57390*
X40330Y57390*
X40330Y57390*
X40331Y57389*
X40331Y57389*
X40332Y57389*
X40332Y57389*
X40333Y57389*
X40334Y57389*
X40334*
X40335Y57389*
X40335Y57389*
X40336Y57389*
X40336Y57389*
X40337Y57389*
X40337Y57390*
X40338Y57390*
X40338Y57390*
X40339Y57390*
X40339Y57391*
X40340Y57391*
X40340Y57392*
X40340Y57392*
X40341Y57393*
X40341Y57393*
X40341Y57394*
X40341Y57394*
X40341Y57395*
X40342Y57395*
X40342Y57396*
X40342Y57396*
X40342Y57397*
X40334Y57397D02*
X40342D01*
X40334D02*
X40342D01*
X40678D02*
X40332Y57400D01*
X40334Y57426D02*
X40332Y57424D01*
X40334Y57416D02*
X40676Y57424D01*
X40334Y56590D02*
X40676Y56592D01*
X40678Y56560D02*
X40332Y56568D01*
X43856Y58588D02*
D01*
X43856Y58588*
X43855Y58589*
X43855Y58589*
X43855Y58590*
X43855Y58590*
X43855Y58591*
X43855Y58591*
X43854Y58592*
X43854Y58592*
X43854Y58593*
X43853Y58593*
X43853Y58594*
X43852Y58594*
X43852Y58594*
X43852Y58595*
X43851Y58595*
X43851Y58595*
X43850Y58595*
X43850Y58596*
X43849Y58596*
X43848Y58596*
X43848Y58596*
X43847*
X43847Y58596*
X43846Y58596*
X43846Y58596*
X43845Y58595*
X43845Y58595*
X43844Y58595*
X43844Y58595*
X43843Y58594*
X43843Y58594*
X43842Y58594*
X43842Y58593*
X43841Y58593*
X43841Y58592*
X43841Y58592*
X43841Y58591*
X43840Y58591*
X43840Y58590*
X43840Y58590*
X43840Y58589*
X43840Y58589*
X43840Y58588*
X43840Y58588*
X43840Y58587*
X43840Y58587*
X43840Y58586*
X43840Y58586*
X43840Y58585*
X43840Y58584*
X43840Y58584*
X43841Y58584*
X43841Y58583*
X43841Y58583*
X43842Y58582*
X43842Y58582*
X43843Y58581*
X43843Y58581*
X43844Y58581*
X43844Y58581*
X43845Y58580*
X43845Y58580*
X43846Y58580*
X43846Y58580*
X43847Y58580*
X43847Y58580*
X43848*
X43848Y58580*
X43849Y58580*
X43849Y58580*
X43850Y58580*
X43851Y58580*
X43851Y58581*
X43852Y58581*
X43852Y58581*
X43852Y58581*
X43853Y58582*
X43853Y58582*
X43854Y58583*
X43854Y58583*
X43854Y58583*
X43855Y58584*
X43855Y58584*
X43855Y58585*
X43855Y58586*
X43855Y58586*
X43855Y58587*
X43856Y58587*
X43856Y58588*
X43848D02*
X43856D01*
X43848D02*
X43856D01*
X43848Y58598D02*
X43852Y58592D01*
X43856Y58598D02*
D01*
X43856Y58598*
X43855Y58599*
X43855Y58599*
X43855Y58600*
X43855Y58600*
X43855Y58601*
X43855Y58601*
X43854Y58602*
X43854Y58602*
X43854Y58603*
X43853Y58603*
X43853Y58604*
X43852Y58604*
X43852Y58604*
X43852Y58605*
X43851Y58605*
X43851Y58605*
X43850Y58605*
X43850Y58605*
X43849Y58605*
X43848Y58606*
X43848Y58606*
X43847*
X43847Y58606*
X43846Y58605*
X43846Y58605*
X43845Y58605*
X43845Y58605*
X43844Y58605*
X43844Y58605*
X43843Y58604*
X43843Y58604*
X43842Y58604*
X43842Y58603*
X43841Y58603*
X43841Y58602*
X43841Y58602*
X43841Y58601*
X43840Y58601*
X43840Y58600*
X43840Y58600*
X43840Y58599*
X43840Y58599*
X43840Y58598*
X43840Y58598*
X43840Y58597*
X43840Y58596*
X43840Y58596*
X43840Y58595*
X43840Y58595*
X43840Y58594*
X43840Y58594*
X43841Y58593*
X43841Y58593*
X43841Y58592*
X43842Y58592*
X43842Y58592*
X43843Y58591*
X43843Y58591*
X43844Y58591*
X43844Y58590*
X43845Y58590*
X43845Y58590*
X43846Y58590*
X43846Y58590*
X43847Y58590*
X43847Y58590*
X43848*
X43848Y58590*
X43849Y58590*
X43849Y58590*
X43850Y58590*
X43851Y58590*
X43851Y58590*
X43852Y58591*
X43852Y58591*
X43852Y58591*
X43853Y58592*
X43853Y58592*
X43854Y58592*
X43854Y58593*
X43854Y58593*
X43855Y58594*
X43855Y58594*
X43855Y58595*
X43855Y58595*
X43855Y58596*
X43855Y58596*
X43856Y58597*
X43856Y58598*
X43848Y58598D02*
X43856D01*
X43848D02*
X43856D01*
X43848Y58607D02*
X43852Y58600D01*
X43856Y58607D02*
D01*
X43856Y58608*
X43855Y58609*
X43855Y58609*
X43855Y58610*
X43855Y58610*
X43855Y58611*
X43855Y58611*
X43854Y58612*
X43854Y58612*
X43854Y58613*
X43853Y58613*
X43853Y58613*
X43852Y58614*
X43852Y58614*
X43852Y58614*
X43851Y58615*
X43851Y58615*
X43850Y58615*
X43850Y58615*
X43849Y58615*
X43848Y58615*
X43848Y58615*
X43847*
X43847Y58615*
X43846Y58615*
X43846Y58615*
X43845Y58615*
X43845Y58615*
X43844Y58615*
X43844Y58614*
X43843Y58614*
X43843Y58614*
X43842Y58613*
X43842Y58613*
X43841Y58613*
X43841Y58612*
X43841Y58612*
X43841Y58611*
X43840Y58611*
X43840Y58610*
X43840Y58610*
X43840Y58609*
X43840Y58609*
X43840Y58608*
X43840Y58607*
X43840Y58607*
X43840Y58606*
X43840Y58606*
X43840Y58605*
X43840Y58605*
X43840Y58604*
X43840Y58604*
X43841Y58603*
X43841Y58603*
X43841Y58602*
X43842Y58602*
X43842Y58601*
X43843Y58601*
X43843Y58601*
X43844Y58600*
X43844Y58600*
X43845Y58600*
X43845Y58600*
X43846Y58600*
X43846Y58600*
X43847Y58599*
X43847Y58599*
X43848Y58599*
X43848Y58599*
X43849Y58600*
X43849Y58600*
X43850Y58600*
X43851Y58600*
X43851Y58600*
X43852Y58600*
X43852Y58601*
X43852Y58601*
X43853Y58601*
X43853Y58602*
X43854Y58602*
X43854Y58603*
X43854Y58603*
X43855Y58604*
X43855Y58604*
X43855Y58605*
X43855Y58605*
X43855Y58606*
X43855Y58606*
X43856Y58607*
X43856Y58607*
X43848Y58607D02*
X43856D01*
X43848D02*
X43856D01*
X43848D02*
X43852Y58608D01*
X43848Y55399D02*
X44196Y55408D01*
X40678Y56590D02*
X40676Y56560D01*
X43848Y54562D02*
X44196Y54568D01*
X43848Y54533D02*
X43852Y54568D01*
X44290Y54572D02*
X43748Y54576D01*
X44192Y54562D02*
X44196Y54536D01*
X40334Y57426D02*
X40676Y57432D01*
X43739Y58607D02*
X43748Y59416D01*
X44527Y62997D02*
X40028Y57496D01*
X40334Y57397D02*
X40332Y57432D01*
X40235Y57387D02*
X40780Y57392D01*
X40678Y57397D02*
X40332Y57400D01*
X40678Y57426D02*
X40676Y57400D01*
X41456Y57289D02*
X42348Y58184D01*
X40787Y57387D02*
X40780Y56592D01*
X41456Y56688D02*
X41452Y57296D01*
X41466Y56678D02*
X41452Y56696D01*
X42352Y55792D02*
X41460Y56688D01*
X40334Y56590D02*
X40676Y56592D01*
X40334Y56550D02*
X40332Y56592D01*
X40787Y56590D02*
X40228Y56592D01*
X40235Y56590D02*
X40228Y57392D01*
X40029Y57495D02*
X40028Y56496D01*
X43739Y54572D02*
X43748Y55376D01*
X44527Y55802D02*
X42348Y55800D01*
X43848Y55369D02*
X43852Y55408D01*
X43739Y55369D02*
X44300Y55376D01*
X44192Y55369D02*
X43852Y55376D01*
X44192Y55399D02*
X44196Y55376D01*
X44290Y55369D02*
X44300Y54576D01*
X44527Y50989D02*
X44532Y55808D01*
X44192Y54533D02*
X43852Y54536D01*
X40678Y56550D02*
X40332Y56560D01*
X40029Y56491D02*
X44532Y50992D01*
X44290Y58607D02*
X43748Y58616D01*
X44192Y58607D02*
X44196Y58584D01*
X43848Y58607D02*
X44196Y58608D01*
X43848Y58578D02*
X43852Y58608D01*
X42352Y58174D02*
X44532Y58184D01*
X44192Y58578D02*
X43852Y58584D01*
X44290Y59415D02*
X44300Y58616D01*
X44527Y58174D02*
X44532Y63000D01*
X43848Y59454D02*
X44196Y59456D01*
X43848Y59415D02*
X43852Y59456D01*
X43739Y59415D02*
X44300Y59416D01*
X44192Y59415D02*
X43852Y59424D01*
X44192Y59454D02*
X44196Y59424D01*
X43856Y55379D02*
D01*
X43856Y55380*
X43855Y55380*
X43855Y55381*
X43855Y55381*
X43855Y55382*
X43855Y55382*
X43855Y55383*
X43854Y55383*
X43854Y55384*
X43854Y55384*
X43853Y55385*
X43853Y55385*
X43852Y55385*
X43852Y55386*
X43852Y55386*
X43851Y55386*
X43851Y55387*
X43850Y55387*
X43850Y55387*
X43849Y55387*
X43848Y55387*
X43848Y55387*
X43847*
X43847Y55387*
X43846Y55387*
X43846Y55387*
X43845Y55387*
X43845Y55387*
X43844Y55386*
X43844Y55386*
X43843Y55386*
X43843Y55385*
X43842Y55385*
X43842Y55385*
X43841Y55384*
X43841Y55384*
X43841Y55383*
X43841Y55383*
X43840Y55382*
X43840Y55382*
X43840Y55381*
X43840Y55381*
X43840Y55380*
X43840Y55380*
X43840Y55379*
X43840Y55379*
X43840Y55378*
X43840Y55377*
X43840Y55377*
X43840Y55376*
X43840Y55376*
X43840Y55375*
X43841Y55375*
X43841Y55374*
X43841Y55374*
X43842Y55374*
X43842Y55373*
X43843Y55373*
X43843Y55372*
X43844Y55372*
X43844Y55372*
X43845Y55372*
X43845Y55371*
X43846Y55371*
X43846Y55371*
X43847Y55371*
X43847Y55371*
X43848Y55371*
X43848Y55371*
X43849Y55371*
X43849Y55371*
X43850Y55371*
X43851Y55372*
X43851Y55372*
X43852Y55372*
X43852Y55372*
X43852Y55373*
X43853Y55373*
X43853Y55374*
X43854Y55374*
X43854Y55374*
X43854Y55375*
X43855Y55375*
X43855Y55376*
X43855Y55376*
X43855Y55377*
X43855Y55377*
X43855Y55378*
X43856Y55379*
X43856Y55379*
X43848Y55379D02*
X43856D01*
X43848D02*
X43856D01*
X43848Y55399D02*
X43852Y55392D01*
X43856Y55399D02*
D01*
X43856Y55399*
X43855Y55400*
X43855Y55400*
X43855Y55401*
X43855Y55402*
X43855Y55402*
X43855Y55403*
X43854Y55403*
X43854Y55403*
X43854Y55404*
X43853Y55404*
X43853Y55405*
X43852Y55405*
X43852Y55405*
X43852Y55406*
X43851Y55406*
X43851Y55406*
X43850Y55406*
X43850Y55407*
X43849Y55407*
X43848Y55407*
X43848Y55407*
X43847*
X43847Y55407*
X43846Y55407*
X43846Y55407*
X43845Y55406*
X43845Y55406*
X43844Y55406*
X43844Y55406*
X43843Y55405*
X43843Y55405*
X43842Y55405*
X43842Y55404*
X43841Y55404*
X43841Y55403*
X43841Y55403*
X43841Y55403*
X43840Y55402*
X43840Y55402*
X43840Y55401*
X43840Y55400*
X43840Y55400*
X43840Y55399*
X43840Y55399*
X43840Y55398*
X43840Y55398*
X43840Y55397*
X43840Y55397*
X43840Y55396*
X43840Y55396*
X43840Y55395*
X43841Y55395*
X43841Y55394*
X43841Y55394*
X43842Y55393*
X43842Y55393*
X43843Y55392*
X43843Y55392*
X43844Y55392*
X43844Y55392*
X43845Y55391*
X43845Y55391*
X43846Y55391*
X43846Y55391*
X43847Y55391*
X43847Y55391*
X43848*
X43848Y55391*
X43849Y55391*
X43849Y55391*
X43850Y55391*
X43851Y55391*
X43851Y55392*
X43852Y55392*
X43852Y55392*
X43852Y55392*
X43853Y55393*
X43853Y55393*
X43854Y55394*
X43854Y55394*
X43854Y55395*
X43855Y55395*
X43855Y55396*
X43855Y55396*
X43855Y55397*
X43855Y55397*
X43855Y55398*
X43856Y55398*
X43856Y55399*
X43848D02*
X43856D01*
X43848D02*
X43856D01*
X40344Y57239D02*
X40340Y56752D01*
X40668Y57239D02*
X40340Y57240D01*
X40344Y56747D02*
X40668Y56752D01*
X40668Y56747D02*
X40668Y57240D01*
X43867Y59247D02*
X43868Y58784D01*
X44172Y59247D02*
X43868Y59256D01*
X43867Y58775D02*
X44180Y58784D01*
X44172Y58775D02*
X44180Y59256D01*
X43867Y55202D02*
X43868Y54736D01*
X44172Y55202D02*
X43868Y55208D01*
X43867Y54729D02*
X44180Y54736D01*
X44172Y54729D02*
X44180Y55208D01*
X54428Y67968D02*
X62444Y67968D01*
X54428Y69464D02*
X54436Y67968D01*
X62440Y67968D02*
X62444Y69464D01*
X62440Y69464D02*
X54436Y69464D01*
X50226Y69119D02*
X50188Y69120D01*
X55029Y68391D02*
X55060Y68768D01*
X54527Y67052D02*
X54716Y67368D01*
X54044Y66511D02*
X54308Y66776D01*
X52411Y65783D02*
X52780Y65848D01*
X52056Y65753D02*
X52420Y65784D01*
X49251Y69828D02*
X49148Y69480D01*
X49399Y70153D02*
X49252Y69832D01*
X51692Y71737D02*
X51340Y71680D01*
X53444Y71422D02*
X53124Y71576D01*
X54300Y70753D02*
X54052Y71016D01*
X54527Y70468D02*
X54308Y70760D01*
X54714Y70153D02*
X54532Y70472D01*
X55029Y69119D02*
X54972Y69480D01*
X55058Y68765D02*
X55036Y69128D01*
X50659Y68598D02*
X50660Y68768D01*
X50698Y68430D02*
X50668Y68600D01*
X50816Y68105D02*
X50748Y68272D01*
X51003Y67840D02*
X50908Y67968D01*
X51722Y67407D02*
X51564Y67456D01*
X53414Y69100D02*
X53452Y68936D01*
X53365Y69257D02*
X53420Y69104D01*
X53296Y69414D02*
X53372Y69264D01*
X53100Y69690D02*
X53212Y69560D01*
X52981Y69808D02*
X53108Y69696D01*
X52706Y70005D02*
X52852Y69920D01*
X52548Y70064D02*
X52708Y70008D01*
X52391Y70123D02*
X52556Y70072D01*
X52056Y70163D02*
X52228Y70160D01*
X51259Y69916D02*
X51412Y70008D01*
X53237Y67574D02*
X53260Y67616D01*
X53237Y67535D02*
X53244Y67576D01*
X53227Y67495D02*
X53244Y67544D01*
X53208Y67968D02*
X53108Y67840D01*
X52981Y67712D02*
X52852Y67616D01*
X53100Y67840D02*
X52988Y67720D01*
X53237Y67456D02*
X53236Y67504D01*
X53247Y67416D02*
X53244Y67464D01*
X52844Y67613D02*
X52708Y67528D01*
X53257Y67387D02*
X53252Y67424D01*
X53267Y67357D02*
X53260Y67392D01*
X53296Y67328D02*
X53276Y67360D01*
X53759Y66294D02*
X54052Y66520D01*
X53444Y66098D02*
X53764Y66296D01*
X53601Y67200D02*
X53564Y67192D01*
X53631Y67200D02*
X53604Y67200D01*
X53670Y67210D02*
X53636Y67208D01*
X53700Y67229D02*
X53676Y67216D01*
X53739Y67249D02*
X53708Y67232D01*
X53769Y67279D02*
X53740Y67256D01*
X53788Y67308D02*
X53772Y67280D01*
X53818Y67328D02*
X53796Y67312D01*
X54300Y66767D02*
X54532Y67056D01*
X53828Y67367D02*
X53820Y67336D01*
X53848Y67407D02*
X53836Y67368D01*
X53857Y67436D02*
X53852Y67408D01*
X53867Y67476D02*
X53860Y67440D01*
X53867Y67515D02*
X53868Y67480D01*
X53838Y67623D02*
X53860Y67592D01*
X53818Y67663D02*
X53844Y67632D01*
X53808Y67692D02*
X53828Y67664D01*
X53779Y67722D02*
X53812Y67696D01*
X53749Y67751D02*
X53788Y67728D01*
X53720Y67771D02*
X53756Y67752D01*
X53690Y67790D02*
X53724Y67776D01*
X53651Y67800D02*
X53692Y67792D01*
X53434Y67790D02*
X53468Y67816D01*
X53296Y68105D02*
X53212Y67968D01*
X53395Y67781D02*
X53436Y67800D01*
X53365Y67761D02*
X53404Y67784D01*
X53336Y67741D02*
X53372Y67768D01*
X53306Y67712D02*
X53340Y67744D01*
X53267Y67643D02*
X53292Y67680D01*
X53257Y67613D02*
X53268Y67648D01*
X53287Y67672D02*
X53316Y67712D01*
X52322Y66806D02*
X52324Y66824D01*
X50993Y65960D02*
X51340Y65848D01*
X52322Y66806D02*
X52332Y66816D01*
X51338Y65842D02*
X51700Y65784D01*
X52332Y66796D02*
X52332Y66808D01*
X52342Y66787D02*
X52340Y66800D01*
X52342Y66777D02*
X52348Y66792D01*
X51692Y65783D02*
X52060Y65760D01*
X52351Y66767D02*
X52348Y66784D01*
X52361Y66767D02*
X52356Y66776D01*
X52371Y66767D02*
X52364Y66776D01*
X52381Y66767D02*
X52372Y66768D01*
X52391Y66767D02*
X52388Y66768D01*
X52401Y66767D02*
X52396Y66768D01*
X52411Y66767D02*
X52404Y66768D01*
X52411Y66767D02*
X52412Y66768D01*
X52420Y66767D02*
X52420Y66768D01*
X52430Y66767D02*
X52428Y66776D01*
X52440Y66777D02*
X52436Y66776D01*
X52775Y65842D02*
X53124Y65960D01*
X52450Y66787D02*
X52444Y66784D01*
X52450Y66796D02*
X52452Y66792D01*
X52450Y66806D02*
X52460Y66800D01*
X53119Y65960D02*
X53452Y66104D01*
X52460Y66806D02*
X52460Y66808D01*
X52460Y66816D02*
X52468Y66816D01*
X52470Y66826D02*
X52468Y66824D01*
X52470Y66836D02*
X52476Y66832D01*
X52470Y66846D02*
X52476Y66840D01*
X52470Y66855D02*
X52476Y66848D01*
X52460Y66855D02*
X52476Y66856D01*
X52460Y66865D02*
X52468Y66864D01*
X52450Y66875D02*
X52468Y66872D01*
X52450Y66885D02*
X52460Y66880D01*
X52450Y66895D02*
X52460Y66888D01*
X52440Y66895D02*
X52452Y66896D01*
X52430Y66895D02*
X52444Y66904D01*
X52420Y66905D02*
X52436Y66904D01*
X52411Y66905D02*
X52428Y66912D01*
X52411Y66914D02*
X52420Y66912D01*
X53562Y67190D02*
X53524Y67200D01*
X53523Y67200D02*
X53484Y67200D01*
X53483Y67200D02*
X53452Y67216D01*
X53444Y67210D02*
X53412Y67224D01*
X53405Y67220D02*
X53380Y67248D01*
X53375Y67239D02*
X53348Y67272D01*
X53346Y67269D02*
X53324Y67296D01*
X53316Y67289D02*
X53300Y67328D01*
X52706Y67525D02*
X52556Y67456D01*
X52548Y67456D02*
X52396Y67408D01*
X52401Y66914D02*
X52412Y66920D01*
X52391Y66914D02*
X52404Y66920D01*
X52381Y66914D02*
X52396Y66920D01*
X52056Y67367D02*
X51892Y67376D01*
X52224Y67367D02*
X52060Y67368D01*
X52322Y66836D02*
X52324Y66848D01*
X52322Y66846D02*
X52324Y66856D01*
X52322Y66855D02*
X52324Y66864D01*
X52322Y66855D02*
X52332Y66872D01*
X52322Y66865D02*
X52332Y66880D01*
X52322Y66875D02*
X52340Y66888D01*
X52332Y66885D02*
X52348Y66896D01*
X52342Y66895D02*
X52356Y66904D01*
X52359Y66895D02*
D01*
X52359Y66895*
X52359Y66896*
X52359Y66896*
X52359Y66897*
X52359Y66898*
X52359Y66898*
X52359Y66899*
X52358Y66899*
X52358Y66900*
X52358Y66900*
X52357Y66900*
X52357Y66901*
X52356Y66901*
X52356Y66901*
X52355Y66902*
X52355Y66902*
X52354Y66902*
X52354Y66902*
X52353Y66903*
X52353Y66903*
X52352Y66903*
X52352Y66903*
X52351*
X52351Y66903*
X52350Y66903*
X52350Y66903*
X52349Y66902*
X52348Y66902*
X52348Y66902*
X52347Y66902*
X52347Y66901*
X52347Y66901*
X52346Y66901*
X52346Y66900*
X52345Y66900*
X52345Y66900*
X52345Y66899*
X52344Y66899*
X52344Y66898*
X52344Y66898*
X52344Y66897*
X52344Y66896*
X52344Y66896*
X52344Y66895*
X52343Y66895*
X52344Y66894*
X52344Y66894*
X52344Y66893*
X52344Y66893*
X52344Y66892*
X52344Y66892*
X52344Y66891*
X52345Y66891*
X52345Y66890*
X52345Y66890*
X52346Y66889*
X52346Y66889*
X52347Y66889*
X52347Y66888*
X52347Y66888*
X52348Y66888*
X52348Y66887*
X52349Y66887*
X52350Y66887*
X52350Y66887*
X52351Y66887*
X52351Y66887*
X52352*
X52352Y66887*
X52353Y66887*
X52353Y66887*
X52354Y66887*
X52354Y66887*
X52355Y66888*
X52355Y66888*
X52356Y66888*
X52356Y66889*
X52357Y66889*
X52357Y66889*
X52358Y66890*
X52358Y66890*
X52358Y66891*
X52359Y66891*
X52359Y66892*
X52359Y66892*
X52359Y66893*
X52359Y66893*
X52359Y66894*
X52359Y66894*
X52359Y66895*
X52351D02*
X52359D01*
X52351D02*
X52359D01*
X52351D02*
X52364Y66912D01*
X52361Y66905D02*
X52380Y66912D01*
X52391Y67407D02*
X52228Y67376D01*
X52371Y66905D02*
X52388Y66920D01*
X51101Y67141D02*
X51116Y67144D01*
X51072Y67151D02*
X51084Y67152D01*
X51062Y67151D02*
X51076Y67152D01*
X51052Y67141D02*
X51068Y67152D01*
X51259Y67613D02*
X51132Y67720D01*
X51042Y67141D02*
X51060Y67144D01*
X51042Y67131D02*
X51052Y67144D01*
X51131Y67712D02*
X51012Y67840D01*
X51033Y67131D02*
X51044Y67136D01*
X51023Y67121D02*
X51036Y67136D01*
X51013Y67111D02*
X51028Y67128D01*
X49802Y66767D02*
X50068Y66520D01*
X50058Y66511D02*
X50356Y66296D01*
X50353Y66294D02*
X50668Y66104D01*
X50659Y66098D02*
X50996Y65960D01*
X51003Y67062D02*
X51012Y67080D01*
X51003Y67062D02*
X51012Y67072D01*
X51003Y67042D02*
X51012Y67064D01*
X51003Y67033D02*
X51012Y67048D01*
X51013Y67023D02*
X51012Y67040D01*
X51023Y67023D02*
X51020Y67032D01*
X51031Y67023D02*
D01*
X51031Y67023*
X51031Y67024*
X51031Y67024*
X51030Y67025*
X51030Y67025*
X51030Y67026*
X51030Y67027*
X51030Y67027*
X51029Y67027*
X51029Y67028*
X51029Y67028*
X51028Y67029*
X51028Y67029*
X51027Y67029*
X51027Y67030*
X51026Y67030*
X51026Y67030*
X51025Y67030*
X51025Y67031*
X51024Y67031*
X51024Y67031*
X51023Y67031*
X51022*
X51022Y67031*
X51021Y67031*
X51021Y67031*
X51020Y67030*
X51020Y67030*
X51019Y67030*
X51019Y67030*
X51018Y67029*
X51018Y67029*
X51017Y67029*
X51017Y67028*
X51017Y67028*
X51016Y67027*
X51016Y67027*
X51016Y67027*
X51015Y67026*
X51015Y67026*
X51015Y67025*
X51015Y67024*
X51015Y67024*
X51015Y67023*
X51015Y67023*
X51015Y67022*
X51015Y67022*
X51015Y67021*
X51015Y67021*
X51015Y67020*
X51015Y67020*
X51016Y67019*
X51016Y67019*
X51016Y67018*
X51017Y67018*
X51017Y67017*
X51017Y67017*
X51018Y67016*
X51018Y67016*
X51019Y67016*
X51019Y67016*
X51020Y67015*
X51020Y67015*
X51021Y67015*
X51021Y67015*
X51022Y67015*
X51022Y67015*
X51023*
X51024Y67015*
X51024Y67015*
X51025Y67015*
X51025Y67015*
X51026Y67015*
X51026Y67016*
X51027Y67016*
X51027Y67016*
X51028Y67016*
X51028Y67017*
X51028Y67017*
X51029Y67018*
X51029Y67018*
X51030Y67019*
X51030Y67019*
X51030Y67020*
X51030Y67020*
X51030Y67021*
X51031Y67021*
X51031Y67022*
X51031Y67022*
X51031Y67023*
X51023Y67023D02*
X51031D01*
X51023D02*
X51031D01*
X51033Y67013D02*
X51028Y67024D01*
X51042Y67003D02*
X51036Y67016D01*
X51042Y67003D02*
X51044Y67008D01*
X51052Y66993D02*
X51052Y67008D01*
X51062Y66993D02*
X51060Y67000D01*
X51082Y66993D02*
X51068Y67000D01*
X52322Y66826D02*
X52324Y66840D01*
X52322Y66816D02*
X52324Y66832D01*
X51082Y66993D02*
X51084Y67000D01*
X51092Y66993D02*
X51092Y67000D01*
X51101Y67003D02*
X51100Y67000D01*
X51111Y67003D02*
X51108Y67008D01*
X51121Y67003D02*
X51116Y67008D01*
X51131Y67013D02*
X51124Y67008D01*
X51131Y67023D02*
X51132Y67016D01*
X51131Y67023D02*
X51140Y67024D01*
X51141Y67033D02*
X51140Y67032D01*
X51151Y67042D02*
X51148Y67040D01*
X51151Y67052D02*
X51156Y67048D01*
X51889Y67367D02*
X51724Y67408D01*
X51151Y67062D02*
X51156Y67056D01*
X51151Y67062D02*
X51156Y67064D01*
X51151Y67072D02*
X51156Y67072D01*
X51151Y67082D02*
X51156Y67080D01*
X51151Y67092D02*
X51156Y67088D01*
X51141Y67102D02*
X51156Y67096D01*
X51141Y67111D02*
X51148Y67104D01*
X51131Y67111D02*
X51148Y67112D01*
X51554Y67456D02*
X51412Y67528D01*
X51131Y67121D02*
X51140Y67120D01*
X51131Y67131D02*
X51132Y67128D01*
X51121Y67141D02*
X51132Y67136D01*
X51082Y67151D02*
X51108Y67144D01*
X51082Y67151D02*
X51092Y67152D01*
X51407Y67525D02*
X51260Y67616D01*
X51111Y67141D02*
X51124Y67144D01*
X50206Y68164D02*
X50220Y68176D01*
X50186Y68164D02*
X50212Y68168D01*
X50186Y68164D02*
X50196Y68168D01*
X50176Y68155D02*
X50188Y68168D01*
X50176Y68145D02*
X50180Y68160D01*
X50166Y68145D02*
X50180Y68152D01*
X50157Y68135D02*
X50172Y68152D01*
X50186Y69119D02*
X50156Y69128D01*
X50147Y68135D02*
X50164Y68144D01*
X50147Y68066D02*
X50156Y68080D01*
X50147Y68056D02*
X50156Y68072D01*
X50157Y68046D02*
X50156Y68064D01*
X50166Y68046D02*
X50164Y68056D01*
X50166Y68037D02*
X50172Y68048D01*
X50176Y68037D02*
X50172Y68040D01*
X50186Y68027D02*
X50180Y68040D01*
X50186Y68027D02*
X50188Y68032D01*
X50196Y68017D02*
X50196Y68032D01*
X50206Y68017D02*
X50204Y68024D01*
X50226Y68017D02*
X50212Y68024D01*
X50363Y69710D02*
X50404Y69696D01*
X50324Y69720D02*
X50372Y69712D01*
X50294Y69729D02*
X50332Y69728D01*
X50255Y69739D02*
X50300Y69736D01*
X50216Y69749D02*
X50260Y69744D01*
X49802Y70753D02*
X49588Y70472D01*
X50176Y69739D02*
X50220Y69752D01*
X50147Y69729D02*
X50180Y69744D01*
X50107Y69720D02*
X50148Y69736D01*
X50068Y69710D02*
X50108Y69728D01*
X49586Y70468D02*
X49404Y70160D01*
X50038Y69680D02*
X50076Y69712D01*
X50009Y69661D02*
X50044Y69688D01*
X49979Y69631D02*
X50012Y69664D01*
X49960Y69601D02*
X49988Y69640D01*
X49940Y69572D02*
X49964Y69608D01*
X49930Y69542D02*
X49948Y69576D01*
X49911Y69503D02*
X49932Y69544D01*
X49911Y69464D02*
X49916Y69504D01*
X49901Y69424D02*
X49916Y69464D01*
X49143Y69474D02*
X49076Y69128D01*
X49074Y69119D02*
X49060Y68768D01*
X49054Y68765D02*
X49076Y68400D01*
X49074Y68391D02*
X49148Y68048D01*
X49143Y68046D02*
X49252Y67704D01*
X49251Y67702D02*
X49404Y67368D01*
X49399Y67367D02*
X49588Y67056D01*
X49586Y67052D02*
X49812Y66776D01*
X49911Y69385D02*
X49908Y69432D01*
X49920Y69346D02*
X49916Y69392D01*
X49930Y69316D02*
X49924Y69352D01*
X50147Y68086D02*
X50148Y68096D01*
X50147Y68076D02*
X50148Y68088D01*
X49940Y69277D02*
X49932Y69320D01*
X49970Y69247D02*
X49948Y69280D01*
X49989Y69218D02*
X49972Y69248D01*
X50019Y69188D02*
X49996Y69224D01*
X50048Y69159D02*
X50020Y69192D01*
X50078Y69149D02*
X50052Y69168D01*
X50107Y69129D02*
X50084Y69152D01*
X50147Y68125D02*
X50156Y68136D01*
X50147Y69119D02*
X50116Y69136D01*
X50147Y68096D02*
X50156Y68120D01*
X50147Y68096D02*
X50148Y68104D01*
X50147Y68115D02*
X50156Y68128D01*
X51151Y70477D02*
X51156Y70464D01*
X51151Y70487D02*
X51156Y70480D01*
X51141Y70487D02*
X51156Y70488D01*
X51131Y70497D02*
X51148Y70496D01*
X51139Y70497D02*
D01*
X51139Y70498*
X51139Y70498*
X51139Y70499*
X51139Y70499*
X51139Y70500*
X51138Y70500*
X51138Y70501*
X51138Y70501*
X51137Y70502*
X51137Y70502*
X51137Y70503*
X51136Y70503*
X51136Y70503*
X51135Y70504*
X51135Y70504*
X51135Y70504*
X51134Y70505*
X51133Y70505*
X51133Y70505*
X51132Y70505*
X51132Y70505*
X51131Y70505*
X51131*
X51130Y70505*
X51130Y70505*
X51129Y70505*
X51129Y70505*
X51128Y70505*
X51128Y70504*
X51127Y70504*
X51127Y70504*
X51126Y70503*
X51126Y70503*
X51125Y70503*
X51125Y70502*
X51125Y70502*
X51124Y70501*
X51124Y70501*
X51124Y70500*
X51123Y70500*
X51123Y70499*
X51123Y70499*
X51123Y70498*
X51123Y70498*
X51123Y70497*
X51123Y70497*
X51123Y70496*
X51123Y70496*
X51123Y70495*
X51123Y70494*
X51124Y70494*
X51124Y70493*
X51124Y70493*
X51125Y70492*
X51125Y70492*
X51125Y70492*
X51126Y70491*
X51126Y70491*
X51127Y70491*
X51127Y70490*
X51128Y70490*
X51128Y70490*
X51129Y70490*
X51129Y70489*
X51130Y70489*
X51130Y70489*
X51131Y70489*
X51131Y70489*
X51132Y70489*
X51132Y70489*
X51133Y70489*
X51133Y70490*
X51134Y70490*
X51135Y70490*
X51135Y70490*
X51135Y70491*
X51136Y70491*
X51136Y70491*
X51137Y70492*
X51137Y70492*
X51137Y70492*
X51138Y70493*
X51138Y70493*
X51138Y70494*
X51139Y70494*
X51139Y70495*
X51139Y70495*
X51139Y70496*
X51139Y70497*
X51139Y70497*
X51131Y70497D02*
X51139D01*
X51131D02*
X51139D01*
X51131Y70507D02*
X51140Y70504D01*
X51121Y70517D02*
X51132Y70512D01*
X51111Y70517D02*
X51124Y70520D01*
X51101Y70527D02*
X51116Y70520D01*
X52076Y70704D02*
X52084Y70744D01*
X51092Y70527D02*
X51108Y70528D01*
X51013Y70409D02*
X51012Y70424D01*
X51013Y70399D02*
X51020Y70416D01*
X51023Y70399D02*
X51020Y70408D01*
X52224Y70153D02*
X52396Y70128D01*
X52371Y70369D02*
X52340Y70376D01*
X52411Y70369D02*
X52380Y70376D01*
X52450Y70369D02*
X52420Y70376D01*
X52489Y70379D02*
X52460Y70376D01*
X52529Y70399D02*
X52492Y70384D01*
X52558Y70409D02*
X52532Y70400D01*
X52588Y70438D02*
X52564Y70416D01*
X52617Y70458D02*
X52596Y70440D01*
X52696Y70586D02*
X52684Y70560D01*
X54044Y71009D02*
X53764Y71240D01*
X52706Y70704D02*
X52716Y70672D01*
X52706Y70743D02*
X52716Y70712D01*
X53759Y71235D02*
X53452Y71424D01*
X52696Y70783D02*
X52708Y70744D01*
X52676Y70812D02*
X52700Y70784D01*
X52666Y70851D02*
X52684Y70816D01*
X52637Y70871D02*
X52668Y70856D01*
X52617Y70911D02*
X52644Y70880D01*
X52578Y70930D02*
X52620Y70912D01*
X52548Y70960D02*
X52588Y70936D01*
X53119Y71570D02*
X52780Y71680D01*
X52519Y70970D02*
X52556Y70960D01*
X52489Y70989D02*
X52524Y70976D01*
X52450Y70999D02*
X52492Y70992D01*
X52775Y71678D02*
X52420Y71744D01*
X52411Y70999D02*
X52452Y71000D01*
X52371Y70999D02*
X52412Y71000D01*
X52332Y70999D02*
X52380Y71000D01*
X52292Y70979D02*
X52340Y71000D01*
X52411Y71737D02*
X52060Y71768D01*
X52263Y70970D02*
X52300Y70984D01*
X52233Y70950D02*
X52268Y70976D01*
X52056Y71767D02*
X51700Y71744D01*
X52194Y70930D02*
X52236Y70952D01*
X52164Y70911D02*
X52204Y70936D01*
X52145Y70871D02*
X52172Y70912D01*
X52115Y70842D02*
X52148Y70880D01*
X52105Y70812D02*
X52124Y70848D01*
X51003Y70428D02*
X51012Y70440D01*
X51003Y70418D02*
X51012Y70432D01*
X51003Y70438D02*
X51012Y70456D01*
X50058Y71009D02*
X49812Y70760D01*
X50353Y71235D02*
X50068Y71016D01*
X50659Y71422D02*
X50356Y71240D01*
X50993Y71570D02*
X50668Y71424D01*
X51003Y70448D02*
X51012Y70464D01*
X51003Y70458D02*
X51012Y70472D01*
X51003Y70468D02*
X51012Y70480D01*
X51003Y70477D02*
X51012Y70488D01*
X51003Y70487D02*
X51020Y70496D01*
X51013Y70487D02*
X51028Y70504D01*
X51023Y70497D02*
X51028Y70512D01*
X51023Y70507D02*
X51036Y70512D01*
X51033Y70507D02*
X51044Y70520D01*
X51042Y70517D02*
X51052Y70528D01*
X51042Y70527D02*
X51060Y70528D01*
X51052Y70527D02*
X51068Y70528D01*
X51062Y70527D02*
X51084Y70528D01*
X51082Y70527D02*
X51092Y70528D01*
X51082Y70527D02*
X51100Y70528D01*
X51338Y71678D02*
X50996Y71576D01*
X52096Y70773D02*
X52108Y70816D01*
X52076Y70743D02*
X52100Y70776D01*
X51003Y67082D02*
X51012Y67096D01*
X51003Y67072D02*
X51012Y67088D01*
X51003Y67092D02*
X51012Y67104D01*
X51003Y67102D02*
X51020Y67112D01*
X51013Y67111D02*
X51020Y67120D01*
X50235Y68017D02*
X50228Y68024D01*
X50235Y68017D02*
X50236Y68024D01*
X50245Y68017D02*
X50244Y68024D01*
X50255Y68027D02*
X50252Y68024D01*
X50265Y68027D02*
X50260Y68032D01*
X50275Y68037D02*
X50268Y68032D01*
X50275Y68046D02*
X50276Y68040D01*
X50275Y68046D02*
X50284Y68048D01*
X50285Y68056D02*
X50284Y68056D01*
X50905Y67968D02*
X50820Y68112D01*
X50285Y68066D02*
X50292Y68064D01*
X50294Y68076D02*
X50292Y68072D01*
X50294Y68086D02*
X50300Y68080D01*
X50294Y68096D02*
X50300Y68088D01*
X50294Y68096D02*
X50300Y68096D01*
X50294Y68105D02*
X50300Y68104D01*
X50294Y68115D02*
X50300Y68112D01*
X50285Y68125D02*
X50300Y68120D01*
X50275Y68135D02*
X50292Y68128D01*
X50275Y68135D02*
X50284Y68136D01*
X50747Y68263D02*
X50700Y68432D01*
X50275Y68145D02*
X50284Y68144D01*
X50265Y68155D02*
X50276Y68152D01*
X50255Y68155D02*
X50268Y68160D01*
X50245Y68164D02*
X50260Y68160D01*
X50235Y68164D02*
X50252Y68168D01*
X50235Y68174D02*
X50244Y68168D01*
X50226Y68174D02*
X50236Y68176D01*
X50216Y68174D02*
X50228Y68176D01*
X50265Y69119D02*
X50228Y69120D01*
X50304Y69119D02*
X50268Y69120D01*
X50334Y69129D02*
X50308Y69128D01*
X50363Y69149D02*
X50340Y69136D01*
X50403Y69168D02*
X50372Y69152D01*
X50432Y69198D02*
X50412Y69176D01*
X50462Y69218D02*
X50436Y69200D01*
X50481Y69247D02*
X50468Y69224D01*
X50501Y69287D02*
X50484Y69256D01*
X50521Y69326D02*
X50508Y69288D01*
X50531Y69355D02*
X50524Y69328D01*
X50531Y69395D02*
X50532Y69360D01*
X50531Y69434D02*
X50540Y69400D01*
X50659Y68765D02*
X50668Y68936D01*
X50659Y68932D02*
X50700Y69104D01*
X50698Y69100D02*
X50748Y69264D01*
X50747Y69257D02*
X50820Y69416D01*
X50531Y69464D02*
X50540Y69440D01*
X50531Y69503D02*
X50540Y69472D01*
X50511Y69542D02*
X50532Y69512D01*
X50816Y69414D02*
X50908Y69560D01*
X50491Y69582D02*
X50516Y69552D01*
X50481Y69611D02*
X50500Y69584D01*
X50452Y69641D02*
X50484Y69616D01*
X50905Y69552D02*
X51012Y69696D01*
X50422Y69670D02*
X50460Y69648D01*
X50403Y69690D02*
X50428Y69672D01*
X51003Y69690D02*
X51132Y69816D01*
X51033Y70399D02*
X51028Y70400D01*
X51042Y70389D02*
X51036Y70400D01*
X51042Y70379D02*
X51044Y70392D01*
X51052Y70379D02*
X51052Y70384D01*
X51131Y69808D02*
X51260Y69920D01*
X51062Y70379D02*
X51060Y70384D01*
X51072Y70379D02*
X51068Y70384D01*
X51082Y70379D02*
X51076Y70384D01*
X51082Y70379D02*
X51084Y70384D01*
X51101Y70379D02*
X51092Y70384D01*
X51111Y70379D02*
X51108Y70384D01*
X51121Y70389D02*
X51116Y70384D01*
X51131Y70389D02*
X51124Y70392D01*
X51131Y70399D02*
X51132Y70392D01*
X51131Y70399D02*
X51132Y70400D01*
X51407Y70005D02*
X51564Y70072D01*
X51141Y70409D02*
X51140Y70408D01*
X51141Y70418D02*
X51148Y70416D01*
X51151Y70428D02*
X51148Y70424D01*
X51151Y70438D02*
X51156Y70432D01*
X51151Y70438D02*
X51156Y70440D01*
X51554Y70064D02*
X51724Y70128D01*
X51151Y70448D02*
X51156Y70448D01*
X51151Y70458D02*
X51156Y70456D01*
X51722Y70123D02*
X51892Y70160D01*
X51889Y70153D02*
X52060Y70168D01*
X52076Y70655D02*
X52084Y70704D01*
X52086Y70625D02*
X52084Y70664D01*
X52096Y70586D02*
X52092Y70632D01*
X52105Y70546D02*
X52100Y70592D01*
X52125Y70517D02*
X52108Y70552D01*
X52145Y70487D02*
X52132Y70520D01*
X52174Y70458D02*
X52148Y70488D01*
X52194Y70438D02*
X52180Y70464D01*
X52233Y70409D02*
X52204Y70440D01*
X52263Y70399D02*
X52236Y70416D01*
X52302Y70379D02*
X52268Y70400D01*
X52332Y70369D02*
X52308Y70384D01*
X54861Y69828D02*
X54716Y70160D01*
X53621Y69995D02*
X53620Y69992D01*
X53621Y70005D02*
X53628Y70000D01*
X53621Y70015D02*
X53628Y70008D01*
X53621Y70015D02*
X53628Y70016D01*
X53621Y70025D02*
X53628Y70024D01*
X53621Y70044D02*
X53628Y70032D01*
X53611Y70054D02*
X53628Y70048D01*
X53611Y70054D02*
X53620Y70056D01*
X53611Y70054D02*
X53620Y70064D01*
X53601Y70064D02*
X53612Y70064D01*
X53592Y70074D02*
X53604Y70072D01*
X53582Y70084D02*
X53596Y70080D01*
X53572Y70084D02*
X53588Y70088D01*
X53562Y70094D02*
X53580Y70088D01*
X53562Y70094D02*
X53572Y70096D01*
X53552Y70094D02*
X53564Y70096D01*
X52706Y70625D02*
X52700Y70592D01*
X52706Y70664D02*
X52708Y70632D01*
X53542Y70094D02*
X53556Y70096D01*
X53533Y70094D02*
X53548Y70096D01*
X52676Y70556D02*
X52668Y70528D01*
X53523Y70084D02*
X53540Y70096D01*
X53936Y68735D02*
X53940Y68760D01*
X53867Y67554D02*
X53868Y67520D01*
X53857Y67584D02*
X53868Y67560D01*
X53936Y68735D02*
X53940Y68744D01*
X53946Y68726D02*
X53940Y68736D01*
X53946Y68716D02*
X53948Y68728D01*
X53946Y68706D02*
X53948Y68720D01*
X53956Y68706D02*
X53956Y68712D01*
X53966Y68696D02*
X53964Y68712D01*
X53975Y68686D02*
X53972Y68704D01*
X53985Y68686D02*
X53980Y68696D01*
X53995Y68686D02*
X53988Y68696D01*
X53995Y68686D02*
X53996Y68696D01*
X54005Y68686D02*
X54004Y68688D01*
X54015Y68686D02*
X54012Y68688D01*
X54025Y68686D02*
X54020Y68688D01*
X54035Y68686D02*
X54028Y68696D01*
X54861Y67702D02*
X54972Y68048D01*
X54714Y67367D02*
X54868Y67704D01*
X54035Y68686D02*
X54036Y68696D01*
X54044Y68696D02*
X54044Y68696D01*
X54054Y68706D02*
X54052Y68704D01*
X54970Y68046D02*
X55036Y68400D01*
X54064Y68706D02*
X54060Y68712D01*
X54074Y68716D02*
X54068Y68712D01*
X54074Y68726D02*
X54076Y68720D01*
X54074Y68735D02*
X54076Y68728D01*
X54074Y68735D02*
X54084Y68736D01*
X54074Y68755D02*
X54084Y68744D01*
X54074Y68765D02*
X54084Y68760D01*
X54074Y68775D02*
X54084Y68768D01*
X54074Y68775D02*
X54084Y68776D01*
X54074Y68785D02*
X54084Y68784D01*
X54074Y68794D02*
X54084Y68792D01*
X54074Y68804D02*
X54076Y68800D01*
X54064Y68814D02*
X54076Y68808D01*
X54054Y68824D02*
X54068Y68816D01*
X54044Y68824D02*
X54060D01*
X54035D02*
X54052D01*
X54035D02*
X54044Y68832D01*
X54025Y68834D02*
X54036Y68832D01*
X54970Y69474D02*
X54868Y69832D01*
X53611Y69976D02*
X53612Y69976D01*
X53611Y69985D02*
X53620Y69984D01*
X53611Y69976D02*
X53612Y69968D01*
X53611Y69966D02*
X53604Y69960D01*
X53601Y69956D02*
X53596Y69960D01*
X53592Y69956D02*
X53588Y69952D01*
X53582Y69946D02*
X53580Y69952D01*
X53572Y69946D02*
X53572Y69944D01*
X54015Y68834D02*
X54028Y68840D01*
X53562Y69936D02*
X53556Y69944D01*
X53562Y69936D02*
X53564Y69944D01*
X54005Y68834D02*
X54020Y68840D01*
X53995Y68834D02*
X54012Y68840D01*
X52637Y70487D02*
X52620Y70464D01*
X52666Y70527D02*
X52644Y70496D01*
X53523Y70084D02*
X53532Y70088D01*
X53513Y70074D02*
X53524Y70088D01*
X53503Y70074D02*
X53516Y70080D01*
X53493Y70064D02*
X53508Y70080D01*
X53483Y70054D02*
X53500Y70072D01*
X53483Y70054D02*
X53492Y70064D01*
X53483Y70044D02*
X53492Y70056D01*
X53483Y70035D02*
X53484Y70048D01*
X53483Y70025D02*
X53484Y70040D01*
X52844Y69916D02*
X52988Y69816D01*
X53474Y70015D02*
X53484Y70032D01*
X53474Y70015D02*
X53476Y70024D01*
X53483Y69995D02*
X53476Y70016D01*
X53483Y69985D02*
X53484Y70000D01*
X53483Y69976D02*
X53484Y69992D01*
X53483Y69976D02*
X53484Y69984D01*
X53493Y69966D02*
X53492Y69976D01*
X53501Y69966D02*
D01*
X53501Y69966*
X53501Y69967*
X53501Y69967*
X53501Y69968*
X53501Y69968*
X53501Y69969*
X53500Y69969*
X53500Y69970*
X53500Y69970*
X53499Y69971*
X53499Y69971*
X53499Y69972*
X53498Y69972*
X53498Y69972*
X53497Y69973*
X53497Y69973*
X53496Y69973*
X53496Y69973*
X53495Y69973*
X53495Y69974*
X53494Y69974*
X53493Y69974*
X53493*
X53492Y69974*
X53492Y69974*
X53491Y69973*
X53491Y69973*
X53490Y69973*
X53490Y69973*
X53489Y69973*
X53489Y69972*
X53488Y69972*
X53488Y69972*
X53487Y69971*
X53487Y69971*
X53487Y69970*
X53486Y69970*
X53486Y69969*
X53486Y69969*
X53486Y69968*
X53486Y69968*
X53485Y69967*
X53485Y69967*
X53485Y69966*
X53485Y69966*
X53485Y69965*
X53485Y69965*
X53485Y69964*
X53486Y69963*
X53486Y69963*
X53486Y69962*
X53486Y69962*
X53486Y69961*
X53487Y69961*
X53487Y69961*
X53487Y69960*
X53488Y69960*
X53488Y69959*
X53489Y69959*
X53489Y69959*
X53490Y69958*
X53490Y69958*
X53491Y69958*
X53491Y69958*
X53492Y69958*
X53492Y69958*
X53493Y69958*
X53493*
X53494Y69958*
X53495Y69958*
X53495Y69958*
X53496Y69958*
X53496Y69958*
X53497Y69958*
X53497Y69959*
X53498Y69959*
X53498Y69959*
X53499Y69960*
X53499Y69960*
X53499Y69961*
X53500Y69961*
X53500Y69961*
X53500Y69962*
X53501Y69962*
X53501Y69963*
X53501Y69963*
X53501Y69964*
X53501Y69965*
X53501Y69965*
X53501Y69966*
X53493D02*
X53501D01*
X53493D02*
X53501D01*
X53208Y69552D02*
X53300Y69416D01*
X53503Y69956D02*
X53500Y69968D01*
X53513Y69946D02*
X53508Y69960D01*
X53523Y69946D02*
X53516Y69952D01*
X53523Y69936D02*
X53524Y69952D01*
X53533Y69936D02*
X53532Y69944D01*
X53552Y69936D02*
X53540Y69944D01*
X53995Y68834D02*
X54004Y68840D01*
X53985Y68824D02*
X53996Y68840D01*
X53975Y68824D02*
X53988Y68832D01*
X53966Y68824D02*
X53980Y68832D01*
X53956Y68824D02*
X53972D01*
X53946Y68814D02*
X53964Y68824D01*
X53946Y68804D02*
X53956Y68816D01*
X53946Y68794D02*
X53948Y68808D01*
X53936Y68785D02*
X53948Y68800D01*
X53444Y68932D02*
X53460Y68768D01*
X53936Y68775D02*
X53940Y68792D01*
X53936Y68775D02*
X53940Y68784D01*
X53926Y68765D02*
X53940Y68776D01*
X53503Y67820D02*
X53548Y67824D01*
X53464Y67810D02*
X53508Y67824D01*
X53365Y68263D02*
X53300Y68112D01*
X53542Y67820D02*
X53580Y67824D01*
X53572Y67820D02*
X53620Y67816D01*
X53611Y67810D02*
X53660Y67808D01*
X53414Y68430D02*
X53372Y68272D01*
X53444Y68598D02*
X53420Y68432D01*
X53454Y68765D02*
X53452Y68600D01*
X53936Y68755D02*
X53932Y68768D01*
X50186Y73991D02*
X48468Y72992D01*
X51731Y71324D02*
X50196Y73992D01*
X50344Y72663D02*
X50372Y72616D01*
X50314Y72712D02*
X50348Y72664D01*
X50275Y72751D02*
X50316Y72720D01*
X50235Y72790D02*
X50284Y72760D01*
X50196Y72830D02*
X50244Y72800D01*
X50147Y72859D02*
X50204Y72832D01*
X50098Y72879D02*
X50148Y72864D01*
X50038Y72899D02*
X50100Y72888D01*
X49979Y72909D02*
X50044Y72904D01*
X49930Y72918D02*
X49988Y72912D01*
X49871Y72909D02*
X49932Y72920D01*
X49812Y72899D02*
X49876Y72912D01*
X49763Y72879D02*
X49820Y72904D01*
X49714Y72859D02*
X49764Y72888D01*
X49664Y72830D02*
X49716Y72864D01*
X49615Y72790D02*
X49668Y72832D01*
X49576Y72751D02*
X49620Y72800D01*
X49546Y72712D02*
X49580Y72760D01*
X49507Y72663D02*
X49548Y72720D01*
X49487Y72613D02*
X49516Y72664D01*
X49468Y72554D02*
X49492Y72616D01*
X49458Y72495D02*
X49476Y72560D01*
X49458Y72446D02*
X49468Y72504D01*
X49458Y72387D02*
X49460Y72448D01*
X49468Y72328D02*
X49468Y72392D01*
X49487Y72279D02*
X49476Y72336D01*
X49507Y72229D02*
X49492Y72280D01*
X49546Y72180D02*
X49516Y72232D01*
X48464Y72987D02*
X50004Y70320D01*
X49576Y72131D02*
X49548Y72184D01*
X49615Y72092D02*
X49580Y72136D01*
X49664Y72062D02*
X49620Y72096D01*
X49714Y72023D02*
X49668Y72064D01*
X49763Y72003D02*
X49716Y72032D01*
X49812Y71983D02*
X49764Y72008D01*
X49871Y71983D02*
X49820Y71992D01*
X49930Y71974D02*
X49876Y71984D01*
X49979Y71983D02*
X49932Y71976D01*
X50038Y71983D02*
X49988Y71984D01*
X50098Y72003D02*
X50044Y71992D01*
X50147Y72023D02*
X50100Y72008D01*
X49999Y70310D02*
X51740Y71328D01*
X50196Y72062D02*
X50148Y72032D01*
X50235Y72092D02*
X50204Y72064D01*
X50275Y72131D02*
X50244Y72096D01*
X50314Y72180D02*
X50284Y72136D01*
X50344Y72229D02*
X50316Y72184D01*
X50363Y72279D02*
X50348Y72232D01*
X50383Y72328D02*
X50372Y72280D01*
X50393Y72387D02*
X50388Y72336D01*
X50403Y72446D02*
X50396Y72392D01*
X50383Y72554D02*
X50396Y72504D01*
X50363Y72613D02*
X50388Y72560D01*
X50393Y72495D02*
X50404Y72448D01*
X58779Y79099D02*
X59276Y79967D01*
X56170Y80595D02*
X58780Y79103D01*
X59271Y79965D02*
X56244Y81719D01*
X56121Y80624D02*
X56180Y80599D01*
X56062Y80644D02*
X56124Y80631D01*
X56003Y80654D02*
X56068Y80647D01*
X55944Y80663D02*
X56004Y80663D01*
X55875Y80654D02*
X55948Y80671D01*
X55826Y80654D02*
X55884Y80663D01*
X55767Y80634D02*
X55828Y80655D01*
X55708Y80614D02*
X55772Y80639D01*
X55659Y80585D02*
X55716Y80623D01*
X55609Y80545D02*
X55660Y80591D01*
X55560Y80506D02*
X55612Y80551D01*
X55521Y80467D02*
X55564Y80511D01*
X55491Y80408D02*
X55524Y80471D01*
X56495Y71747D02*
X52428Y74104D01*
X57145Y71875D02*
X57108Y71840D01*
X59724Y76372D02*
X59708Y76319D01*
X59733Y76431D02*
X59732Y76375D01*
X59743Y76490D02*
X59740Y76439D01*
X57401Y79315D02*
X56900Y78447D01*
X56899Y78439D02*
X59500Y76951D01*
X60432Y77563D02*
X57404Y79319D01*
X59497Y76943D02*
X59548Y76919D01*
X59546Y76913D02*
X59596Y76879D01*
X59596Y76874D02*
X59636Y76831D01*
X59635Y76825D02*
X59676Y76783D01*
X59674Y76776D02*
X59700Y76727D01*
X59694Y76726D02*
X59724Y76671D01*
X59724Y76667D02*
X59740Y76615D01*
X59733Y76608D02*
X59748Y76559D01*
X60481Y77534D02*
X60436Y77567D01*
X59743Y76549D02*
X59748Y76495D01*
X60531Y77494D02*
X60484Y77535D01*
X60570Y77445D02*
X60532Y77495D01*
X60599Y77396D02*
X60572Y77447D01*
X60629Y77337D02*
X60604Y77399D01*
X60659Y77278D02*
X60636Y77343D01*
X60668Y77228D02*
X60660Y77287D01*
X60678Y77169D02*
X60676Y77231D01*
X60678Y77110D02*
X60684Y77175D01*
X60668Y77051D02*
X60684Y77111D01*
X60659Y76982D02*
X60676Y77055D01*
X60619Y76874D02*
X60644Y76935D01*
X60639Y76933D02*
X60668Y76991D01*
X59674Y76254D02*
X57180Y71936D01*
X59704Y76313D02*
X59684Y76263D01*
X57115Y70812D02*
X60620Y76879D01*
X57174Y71934D02*
X57148Y71880D01*
X57076Y70763D02*
X57116Y70816D01*
X57037Y70714D02*
X57084Y70768D01*
X56987Y70674D02*
X57044Y70720D01*
X56938Y70635D02*
X56996Y70680D01*
X56889Y70615D02*
X56948Y70640D01*
X56830Y70586D02*
X56892Y70616D01*
X56771Y70576D02*
X56836Y70592D01*
X56722Y70566D02*
X56780Y70576D01*
X56653Y70566D02*
X56724Y70568D01*
X56603Y70576D02*
X56660Y70568D01*
X56535Y70576D02*
X56604Y70576D01*
X56475Y70605D02*
X56540Y70584D01*
X57105Y71836D02*
X57068Y71792D01*
X57066Y71787D02*
X57012Y71760D01*
X57007Y71757D02*
X56964Y71728D01*
X56426Y70625D02*
X56484Y70608D01*
X56958Y71727D02*
X56908Y71712D01*
X56899Y71708D02*
X56852Y71696D01*
X56850Y71688D02*
X56788Y71688D01*
X56781Y71678D02*
X56732Y71680D01*
X56731Y71678D02*
X56668Y71688D01*
X56662Y71678D02*
X56612Y71704D01*
X56603Y71698D02*
X56556Y71720D01*
X56554Y71718D02*
X56500Y71752D01*
X54822Y71550D02*
X56428Y70632D01*
X54763Y71580D02*
X54828Y71560D01*
X54714Y71600D02*
X54772Y71584D01*
X54655Y71609D02*
X54716Y71608D01*
X53434Y70153D02*
X54148Y71376D01*
X52578Y70655D02*
X53444Y70160D01*
X53267Y71865D02*
X52580Y70664D01*
X53306Y71924D02*
X53276Y71872D01*
X53316Y71983D02*
X53308Y71928D01*
X53336Y72042D02*
X53324Y71984D01*
X53336Y72101D02*
X53340Y72048D01*
X53336Y72161D02*
X53340Y72104D01*
X54143Y71373D02*
X54180Y71424D01*
X53326Y72220D02*
X53340Y72168D01*
X51259Y73755D02*
X51292Y73704D01*
X51249Y73814D02*
X51268Y73760D01*
X51239Y73873D02*
X51252Y73816D01*
X51239Y73932D02*
X51244Y73880D01*
X51239Y73991D02*
X51244Y73936D01*
X51259Y74050D02*
X51244Y74000D01*
X51298Y74159D02*
X51284Y74112D01*
X51279Y74109D02*
X51260Y74056D01*
X54212Y71472D02*
X54260Y71512D01*
X54172Y71422D02*
X54220Y71472D01*
X53306Y72279D02*
X53332Y72224D01*
X54251Y71511D02*
X54308Y71544D01*
X53296Y72338D02*
X53316Y72288D01*
X54300Y71540D02*
X54364Y71576D01*
X54359Y71570D02*
X54420Y71600D01*
X54418Y71600D02*
X54476Y71616D01*
X54468Y71609D02*
X54540Y71624D01*
X54537Y71619D02*
X54596Y71624D01*
X54596Y71619D02*
X54660Y71616D01*
X53267Y72387D02*
X53300Y72344D01*
X53227Y72436D02*
X53268Y72392D01*
X53178Y72485D02*
X53228Y72440D01*
X53139Y72525D02*
X53188Y72488D01*
X53090Y72554D02*
X53148Y72528D01*
X51485Y73479D02*
X53092Y72560D01*
X52420Y74100D02*
X52372Y74136D01*
X52371Y74129D02*
X52332Y74176D01*
X52322Y74168D02*
X52284Y74216D01*
X52283Y74208D02*
X52252Y74264D01*
X52243Y74257D02*
X52220Y74320D01*
X52214Y74316D02*
X52204Y74376D01*
X52194Y74375D02*
X52188Y74432D01*
X52184Y74424D02*
X52172Y74496D01*
X51436Y73519D02*
X51492Y73488D01*
X52164Y74493D02*
X52172Y74552D01*
X51387Y73558D02*
X51444Y73520D01*
X51348Y73598D02*
X51396Y73560D01*
X52164Y74542D02*
X52180Y74616D01*
X51308Y73647D02*
X51356Y73600D01*
X51288Y73696D02*
X51316Y73648D01*
X52174Y74611D02*
X52196Y74672D01*
X52194Y74670D02*
X52212Y74728D01*
X52204Y74720D02*
X52244Y74784D01*
X52243Y74779D02*
X55492Y80415D01*
X55560Y81530D02*
X51308Y74168D01*
X55590Y81579D02*
X55564Y81535D01*
X55629Y81628D02*
X55596Y81583D01*
X55668Y81667D02*
X55636Y81631D01*
X55718Y81697D02*
X55676Y81671D01*
X55777Y81726D02*
X55724Y81703D01*
X55826Y81756D02*
X55780Y81735D01*
X55885Y81766D02*
X55836Y81759D01*
X55954Y81776D02*
X55892Y81775D01*
X56003Y81776D02*
X55956Y81783D01*
X56072Y81766D02*
X56012Y81783D01*
X56131Y81766D02*
X56076Y81775D01*
X56180Y81736D02*
X56132Y81767D01*
X56239Y81717D02*
X56188Y81743D01*
X57647Y57771D02*
X58148Y56912D01*
X60245Y59277D02*
X57652Y57776D01*
X58139Y56905D02*
X61188Y58664D01*
X60294Y59306D02*
X60252Y59280D01*
X60344Y59346D02*
X60300Y59312D01*
X60383Y59395D02*
X60348Y59352D01*
X60412Y59444D02*
X60388Y59400D01*
X60442Y59493D02*
X60420Y59448D01*
X60472Y59542D02*
X60452Y59496D01*
X60491Y59611D02*
X60476Y59552D01*
X60491Y59670D02*
X60492Y59616D01*
X60491Y59729D02*
X60500Y59672D01*
X60491Y59789D02*
X60500Y59736D01*
X60481Y59848D02*
X60492Y59792D01*
X60452Y59907D02*
X60484Y59856D01*
X60432Y59966D02*
X60460Y59912D01*
X52420Y63430D02*
X56500Y65784D01*
X52204Y62790D02*
X52196Y62856D01*
X54802Y58302D02*
X54780Y58360D01*
X54851Y58263D02*
X54812Y58312D01*
X54901Y58233D02*
X54860Y58272D01*
X58523Y58863D02*
X58028Y59728D01*
X58021Y59720D02*
X55428Y58232D01*
X55491Y57111D02*
X58524Y58864D01*
X55422Y58224D02*
X55372Y58200D01*
X55363Y58194D02*
X55316Y58184D01*
X55314Y58174D02*
X55260Y58168D01*
X55255Y58165D02*
X55196Y58160D01*
X55186Y58155D02*
X55140Y58160D01*
X55137Y58155D02*
X55076Y58176D01*
X55068Y58174D02*
X55020Y58184D01*
X55019Y58174D02*
X54964Y58208D01*
X55432Y57082D02*
X55492Y57112D01*
X54960Y58204D02*
X54908Y58240D01*
X55373Y57062D02*
X55436Y57088D01*
X55314Y57042D02*
X55380Y57064D01*
X55255Y57042D02*
X55324Y57048D01*
X55196Y57042D02*
X55260Y57048D01*
X55137Y57052D02*
X55204Y57048D01*
X55078Y57062D02*
X55140Y57056D01*
X55019Y57092D02*
X55084Y57072D01*
X54979Y57111D02*
X55028Y57096D01*
X54920Y57151D02*
X54980Y57120D01*
X54881Y57200D02*
X54924Y57160D01*
X54802Y57289D02*
X54844Y57248D01*
X54842Y57239D02*
X54884Y57200D01*
X54733Y58411D02*
X52244Y62744D01*
X54773Y58352D02*
X54740Y58416D01*
X51298Y63352D02*
X54812Y57296D01*
X52243Y62741D02*
X52212Y62800D01*
X51279Y63411D02*
X51308Y63360D01*
X51259Y63470D02*
X51284Y63416D01*
X51239Y63529D02*
X51260Y63472D01*
X51239Y63588D02*
X51244Y63536D01*
X51239Y63647D02*
X51244Y63592D01*
X51249Y63706D02*
X51244Y63656D01*
X51259Y63765D02*
X51252Y63712D01*
X51288Y63824D02*
X51268Y63768D01*
X51308Y63873D02*
X51292Y63824D01*
X51348Y63922D02*
X51316Y63880D01*
X51387Y63972D02*
X51356Y63928D01*
X51436Y64011D02*
X51396Y63976D01*
X52194Y62850D02*
X52180Y62912D01*
X52174Y62909D02*
X52172Y62976D01*
X52164Y62968D02*
X52172Y63040D01*
X51485Y64040D02*
X51444Y64016D01*
X52164Y63037D02*
X52188Y63096D01*
X52184Y63096D02*
X52204Y63152D01*
X52194Y63145D02*
X52220Y63208D01*
X52214Y63204D02*
X52252Y63264D01*
X52243Y63263D02*
X52284Y63312D01*
X52283Y63302D02*
X52332Y63360D01*
X52322Y63352D02*
X52372Y63400D01*
X52371Y63391D02*
X52428Y63432D01*
X53090Y64966D02*
X51492Y64048D01*
X53139Y65005D02*
X53092Y64968D01*
X53178Y65044D02*
X53148Y65008D01*
X53227Y65084D02*
X53188Y65048D01*
X52578Y66865D02*
X53276Y65656D01*
X53434Y67367D02*
X52580Y66872D01*
X54143Y66147D02*
X53444Y67368D01*
X54172Y66098D02*
X54148Y66152D01*
X54212Y66048D02*
X54180Y66104D01*
X54251Y66009D02*
X54220Y66056D01*
X54300Y65979D02*
X54260Y66016D01*
X54359Y65950D02*
X54308Y65984D01*
X53267Y65655D02*
X53308Y65600D01*
X54418Y65920D02*
X54364Y65952D01*
X56771Y66944D02*
X56724Y66960D01*
X56830Y66934D02*
X56780Y66952D01*
X56889Y66914D02*
X56836Y66936D01*
X56938Y66885D02*
X56892Y66920D01*
X56987Y66855D02*
X56948Y66888D01*
X57037Y66806D02*
X56996Y66856D01*
X57115Y66708D02*
X57084Y66768D01*
X57076Y66767D02*
X57044Y66808D01*
X53316Y65537D02*
X53340Y65488D01*
X53306Y65596D02*
X53324Y65544D01*
X54468Y65911D02*
X54420Y65928D01*
X53336Y65487D02*
X53340Y65424D01*
X54537Y65901D02*
X54476Y65912D01*
X53336Y65418D02*
X53340Y65368D01*
X53336Y65359D02*
X53332Y65304D01*
X53326Y65300D02*
X53316Y65248D01*
X53306Y65241D02*
X53300Y65192D01*
X53296Y65182D02*
X53268Y65136D01*
X53267Y65133D02*
X53228Y65088D01*
X54596Y65901D02*
X54540Y65904D01*
X54655Y65911D02*
X54596Y65904D01*
X54714Y65920D02*
X54660Y65912D01*
X54763Y65940D02*
X54716Y65928D01*
X54822Y65970D02*
X54772Y65944D01*
X56426Y66895D02*
X54828Y65976D01*
X56495Y65783D02*
X56556Y65808D01*
X56554Y65802D02*
X56612Y65832D01*
X56603Y65832D02*
X56668Y65840D01*
X56662Y65832D02*
X56732Y65848D01*
X56731Y65842D02*
X56788Y65848D01*
X56781Y65842D02*
X56852Y65840D01*
X56850Y65832D02*
X56908Y65824D01*
X56899Y65822D02*
X56964Y65800D01*
X56475Y66924D02*
X56428Y66896D01*
X56958Y65792D02*
X57012Y65768D01*
X56535Y66934D02*
X56484Y66928D01*
X56603Y66954D02*
X56540Y66944D01*
X57007Y65763D02*
X57068Y65736D01*
X56653Y66964D02*
X56604Y66960D01*
X56722Y66954D02*
X56660Y66968D01*
X57066Y65733D02*
X57108Y65696D01*
X57105Y65694D02*
X57148Y65648D01*
X57145Y65645D02*
X57180Y65600D01*
X57174Y65596D02*
X60436Y59968D01*
X61357Y59346D02*
X57116Y66712D01*
X61387Y59287D02*
X61364Y59352D01*
X61407Y59237D02*
X61396Y59296D01*
X61426Y59168D02*
X61412Y59240D01*
X61426Y59119D02*
X61428Y59176D01*
X61426Y59050D02*
X61436Y59120D01*
X61426Y58991D02*
X61436Y59056D01*
X61407Y58932D02*
X61428Y59000D01*
X61387Y58873D02*
X61412Y58936D01*
X61348Y58824D02*
X61388Y58880D01*
X61318Y58775D02*
X61356Y58832D01*
X61279Y58735D02*
X61324Y58784D01*
X61229Y58686D02*
X61284Y58736D01*
X61180Y58657D02*
X61236Y58696D01*
X39753Y69414D02*
X38748Y69416D01*
X39753Y66413D02*
X39748Y69416D01*
X38749Y69414D02*
X38748Y65912D01*
X39763Y66344D02*
X39748Y66416D01*
X39773Y66294D02*
X39756Y66352D01*
X39783Y66235D02*
X39764Y66296D01*
X39812Y66176D02*
X39780Y66240D01*
X39842Y66127D02*
X39804Y66184D01*
X39881Y66078D02*
X39836Y66128D01*
X39920Y66039D02*
X39876Y66080D01*
X39970Y65999D02*
X39916Y66040D01*
X40029Y65960D02*
X39964Y66000D01*
X40078Y65940D02*
X40020Y65968D01*
X40137Y65920D02*
X40076Y65944D01*
X40196Y65911D02*
X40132Y65928D01*
X40255Y65911D02*
X40188Y65920D01*
X47243Y71117D02*
X47252Y66416D01*
X46810Y71609D02*
X46876Y71600D01*
X41633Y71600D02*
X41692Y71616D01*
X41574Y71580D02*
X41628Y71600D01*
X41525Y71550D02*
X41572Y71584D01*
X40255Y68105D02*
X41252Y68112D01*
X41259Y68105D02*
X41252Y71120D01*
X40255Y71609D02*
X40252Y68112D01*
X41259Y71117D02*
X41252Y71176D01*
X41259Y71166D02*
X41268Y71240D01*
X41269Y71235D02*
X41284Y71296D01*
X41289Y71294D02*
X41308Y71352D01*
X41308Y71344D02*
X41340Y71400D01*
X41348Y71393D02*
X41380Y71448D01*
X41387Y71442D02*
X41420Y71488D01*
X41426Y71481D02*
X41468Y71528D01*
X40255Y71678D02*
X40252Y71616D01*
X41476Y71521D02*
X41516Y71560D01*
X40275Y71727D02*
X40252Y71680D01*
X40285Y71787D02*
X40268Y71736D01*
X40314Y71846D02*
X40284Y71792D01*
X40344Y71895D02*
X40308Y71848D01*
X40383Y71944D02*
X40340Y71904D01*
X40422Y71983D02*
X40380Y71952D01*
X40472Y72023D02*
X40420Y71992D01*
X40521Y72062D02*
X40468Y72032D01*
X40580Y72082D02*
X40516Y72064D01*
X40629Y72101D02*
X40572Y72088D01*
X40757Y72111D02*
X40692Y72112D01*
X40698Y72111D02*
X40628Y72104D01*
X41751Y71609D02*
X46756Y71616D01*
X41692Y71609D02*
X41748Y71616D01*
X47755Y72111D02*
X40748Y72120D01*
X46751Y71609D02*
X46812Y71616D01*
X47814Y72111D02*
X47756Y72120D01*
X47873Y72101D02*
X47820Y72112D01*
X47922Y72082D02*
X47876Y72104D01*
X47981Y72062D02*
X47932Y72088D01*
X48040Y72023D02*
X47988Y72064D01*
X48080Y71983D02*
X48044Y72032D01*
X48129Y71944D02*
X48084Y71992D01*
X48159Y71895D02*
X48132Y71952D01*
X48188Y71846D02*
X48164Y71904D01*
X48227Y71787D02*
X48196Y71848D01*
X48237Y71727D02*
X48228Y71792D01*
X48247Y71678D02*
X48244Y71736D01*
X46869Y71600D02*
X46932Y71584D01*
X46928Y71580D02*
X46988Y71560D01*
X46987Y71550D02*
X47036Y71528D01*
X48257Y71609D02*
X48252Y71680D01*
X47027Y71521D02*
X47084Y71488D01*
X47076Y71481D02*
X47132Y71448D01*
X47125Y71442D02*
X47164Y71400D01*
X47155Y71393D02*
X47196Y71352D01*
X47194Y71344D02*
X47220Y71296D01*
X47214Y71294D02*
X47244Y71240D01*
X47243Y71235D02*
X47252Y71176D01*
X47243Y71166D02*
X47252Y71120D01*
X48257Y69759D02*
X48260Y71616D01*
X48257Y69700D02*
X48260Y69768D01*
X48267Y69641D02*
X48260Y69704D01*
X48287Y69592D02*
X48268Y69648D01*
X50147Y69257D02*
X48756Y69264D01*
X50147Y68263D02*
X50156Y69264D01*
X48749Y68263D02*
X50156Y68264D01*
X48690Y68263D02*
X48756Y68264D01*
X48631Y68243D02*
X48700Y68264D01*
X48572Y68224D02*
X48636Y68248D01*
X48523Y68204D02*
X48580Y68232D01*
X48474Y68174D02*
X48524Y68208D01*
X48749Y69257D02*
X48700Y69272D01*
X48424Y68135D02*
X48476Y68176D01*
X48129Y65576D02*
X48164Y65632D01*
X48080Y65527D02*
X48132Y65584D01*
X48040Y65497D02*
X48084Y65536D01*
X47981Y65468D02*
X48044Y65504D01*
X47922Y65438D02*
X47988Y65472D01*
X47873Y65418D02*
X47932Y65448D01*
X47755Y65409D02*
X47820Y65416D01*
X47814Y65409D02*
X47876Y65424D01*
X48631Y69277D02*
X48580Y69296D01*
X48690Y69267D02*
X48636Y69280D01*
X48375Y68096D02*
X48428Y68136D01*
X48572Y69287D02*
X48524Y69320D01*
X48346Y68046D02*
X48380Y68096D01*
X48523Y69316D02*
X48476Y69352D01*
X48474Y69346D02*
X48428Y69392D01*
X48424Y69385D02*
X48380Y69432D01*
X48375Y69424D02*
X48348Y69480D01*
X48346Y69474D02*
X48316Y69536D01*
X48306Y69533D02*
X48292Y69592D01*
X48306Y67997D02*
X48348Y68048D01*
X48287Y67938D02*
X48316Y68000D01*
X48267Y67879D02*
X48292Y67944D01*
X48257Y67820D02*
X48268Y67888D01*
X48257Y67761D02*
X48260Y67824D01*
X48257Y65911D02*
X48260Y67768D01*
X47243Y66413D02*
X47252Y66352D01*
X47243Y66344D02*
X47244Y66296D01*
X47243Y66294D02*
X47220Y66240D01*
X47214Y66235D02*
X47196Y66184D01*
X47194Y66176D02*
X47164Y66128D01*
X47155Y66127D02*
X47132Y66080D01*
X47125Y66078D02*
X47084Y66040D01*
X47076Y66039D02*
X47036Y66000D01*
X48247Y65852D02*
X48260Y65912D01*
X47027Y65999D02*
X46988Y65968D01*
X48237Y65783D02*
X48252Y65856D01*
X48227Y65733D02*
X48244Y65792D01*
X46987Y65960D02*
X46932Y65944D01*
X48188Y65674D02*
X48228Y65736D01*
X48159Y65625D02*
X48196Y65680D01*
X46928Y65940D02*
X46876Y65928D01*
X46869Y65920D02*
X46812Y65920D01*
X46810Y65911D02*
X46756Y65912D01*
X46751Y65911D02*
X40252Y65912D01*
X39261Y65409D02*
X47756Y65416D01*
X39192Y65409D02*
X39252Y65416D01*
X39133Y65418D02*
X39188Y65416D01*
X39084Y65438D02*
X39132Y65424D01*
X39025Y65468D02*
X39076Y65448D01*
X38966Y65497D02*
X39020Y65472D01*
X38916Y65527D02*
X38964Y65504D01*
X38877Y65576D02*
X38916Y65536D01*
X38838Y65625D02*
X38876Y65584D01*
X38808Y65674D02*
X38836Y65632D01*
X38789Y65733D02*
X38804Y65680D01*
X38769Y65783D02*
X38780Y65736D01*
X38759Y65852D02*
X38764Y65792D01*
X38749Y65911D02*
X38756Y65856D01*
X34527Y50989D02*
X34524Y55808D01*
X34527Y55802D02*
X32388Y55808D01*
X32391Y55802D02*
X31500Y56688D01*
X31505Y56678D02*
X31500Y57296D01*
X31505Y57289D02*
X32388Y58184D01*
X32391Y58174D02*
X34524Y58184D01*
X34527Y58174D02*
X34524Y63000D01*
X34527Y62997D02*
X33492Y62000D01*
X33493Y61993D02*
X33492Y63000D01*
X33493Y62997D02*
X32988Y63000D01*
X32991Y62997D02*
X30020Y57496D01*
X30029Y57495D02*
X30020Y56496D01*
X30029Y56491D02*
X32988Y50992D01*
X32991Y50989D02*
X33492Y50992D01*
X33493Y50989D02*
X33492Y51992D01*
X33493Y51983D02*
X34524Y50992D01*
M02*