*
G04 Gerber written by LinkCAD 5.6.12 Build 4507*
G04 Layer: MICRON-PBM2_LED_Plate.gbr*
%FSLAX34Y34*%
%MOIN*%
%ADD10C,0.0010*%
G54D10*
X3789Y6590D02*
G01X7558Y2342D01*
X6362Y12283D02*
X6861Y12318D01*
X6292Y13281D02*
X6362Y12283D01*
X7824Y13388D02*
X6292Y13281D01*
X8068Y9896D02*
X7824Y13388D01*
X7769Y9857D02*
X8068Y9896D01*
X7477Y9782D02*
X7769Y9857D01*
X7195Y9672D02*
X7477Y9782D01*
X6929Y9530D02*
X7195Y9672D01*
X6682Y9356D02*
X6929Y9530D01*
X6458Y9153D02*
X6682Y9356D01*
X6260Y8926D02*
X6458Y9153D01*
X6091Y8675D02*
X6260Y8926D01*
X5953Y8407D02*
X6091Y8675D01*
X6861Y12318D02*
X3719Y7587D01*
X5849Y8124D02*
X5953Y8407D01*
X5780Y7830D02*
X5849Y8124D01*
X5746Y7530D02*
X5780Y7830D01*
X3719Y7587D02*
X3789Y6590D01*
X5749Y7228D02*
X5746Y7530D01*
X5788Y6929D02*
X5749Y7228D01*
X5863Y6636D02*
X5788Y6929D01*
X5973Y6355D02*
X5863Y6636D01*
X6116Y6089D02*
X5973Y6355D01*
X6289Y5842D02*
X6116Y6089D01*
X6492Y5618D02*
X6289Y5842D01*
X6719Y5420D02*
X6492Y5618D01*
X6970Y5251D02*
X6719Y5420D01*
X7238Y5113D02*
X6970Y5251D01*
X7521Y5009D02*
X7238Y5113D01*
X7815Y4939D02*
X7521Y5009D01*
X8115Y4906D02*
X7815Y4939D01*
X7129Y1310D02*
X8661Y1417D01*
X7059Y2307D02*
X7129Y1310D01*
X7558Y2342D02*
X7059Y2307D01*
X8661Y1417D02*
X8417Y4908D01*
X8115Y4906D01*
M02*
