M48
INCH
T01C0.022
T02C0.031
T03C0.034
T04C0.035
T05C0.038
T06C0.046
T07C0.110
T08C0.116
T09C0.125
%
T01
X+076000Y+013500
X+081000Y+019500
X+076000Y+021500
X+080500Y+027500
X+076000Y+029500
X+081000Y+035500
X+076500Y+037500
X+081000Y+044000
X+078375Y+051000
Y+053250
X+111000Y+057000
X+108000
X+105000
X+102000
X+095000Y+037500
X+097500
X+114625Y+035000
X+114875Y+033500
X+114750Y+031250
X+098625Y+042000
X+099000Y+034125
X+098625Y+032000
X+099375Y+042625
X+113625Y+033000
X+095000Y+029500
X+097500
X+095000Y+021500
X+097500
X+095000Y+013500
X+097500
X+114000Y+029375
X+114875Y+029000
X+107750Y+020875
X+108000Y+022750
X+098375Y+024000
X+099375Y+016000
X+098500Y+018000
X+115000Y+022000
X+114875Y+025000
X+109125Y+021250
X+109500Y+023000
X+113375Y+028875
X+113750Y+027250
X+114750Y+028250
X+098375Y+026000
X+114125Y+023875
T02
X+116000Y+038000
X+116750Y+037500
X+116000Y+037000
X+116750Y+036500
X+116000Y+036000
X+116750Y+035500
X+116000Y+035000
X+116750Y+034500
X+116000Y+034000
X+116750Y+033500
X+116000Y+033000
X+116750Y+032500
X+116000Y+032000
X+116750Y+031500
X+116000Y+031000
X+116750Y+030500
X+116000Y+030000
X+116750Y+029500
X+116000Y+029000
X+116750Y+028500
X+116000Y+028000
X+116750Y+027500
Y+026500
X+116000Y+026000
X+116750Y+025500
X+116000Y+025000
X+116750Y+024500
X+116000Y+024000
X+116750Y+023500
X+116000Y+023000
X+116750Y+022500
X+116000Y+022000
X+116750Y+021500
X+117500Y+038000
X+118250Y+037500
X+117500Y+037000
X+118250Y+036500
X+117500Y+036000
X+118250Y+035500
X+117500Y+035000
X+118250Y+034500
X+117500Y+034000
X+118250Y+033500
X+117500Y+033000
X+118250Y+032500
X+117500Y+032000
X+118250Y+031500
X+117500Y+031000
X+118250Y+030500
X+117500Y+030000
X+118250Y+029500
X+117500Y+029000
X+118250Y+028500
X+117500Y+028000
X+118250Y+027500
X+117500Y+027000
X+118250Y+026500
X+117500Y+026000
X+118250Y+025500
X+117500Y+025000
X+118250Y+024500
X+117500Y+024000
X+118250Y+023500
X+117500Y+023000
X+118250Y+022500
X+117500Y+022000
X+118250Y+021500
X+116000Y+027000
T03
X+090000Y+059000
X+074000
X+077000
X+080000
X+086000
X+083000
X+108000Y+042000
X+102000Y+032000
Y+034000
Y+036000
Y+038000
Y+040000
Y+042000
X+108000Y+040000
Y+038000
Y+036000
Y+034000
Y+032000
X+093000Y+059000
X+096000
X+102000
X+105000
X+108000
X+111000
Y+046000
X+108000
X+105000
X+102000
Y+030000
Y+028000
Y+026000
Y+024000
Y+022000
Y+020000
Y+018000
X+108000Y+030000
Y+026000
Y+016000
Y+018000
Y+024000
Y+020000
Y+022000
Y+028000
T04
X+077000Y+026000
Y+025000
Y+024000
Y+023000
X+080000
Y+024000
Y+025000
Y+026000
X+077000Y+018000
Y+017000
Y+016000
Y+015000
X+080000
Y+016000
Y+017000
Y+018000
X+077000Y+034000
Y+033000
Y+032000
Y+031000
X+080000
Y+032000
Y+033000
Y+034000
X+077000Y+042000
Y+041000
Y+040000
Y+039000
X+080000
Y+040000
Y+041000
Y+042000
T05
X+058000Y+022000
Y+023000
Y+024000
Y+025000
Y+026000
Y+027000
X+057000Y+028000
Y+027000
Y+026000
Y+025000
Y+024000
Y+023000
Y+022000
Y+021000
X+058000
Y+028000
Y+044000
Y+045000
Y+046000
Y+047000
Y+048000
Y+049000
X+057000Y+050000
Y+049000
Y+048000
Y+047000
Y+046000
Y+045000
Y+044000
Y+043000
X+058000
Y+050000
X+069000Y+027000
X+065000
X+067000Y+023000
X+065000
X+082000Y+017000
X+086000
X+082000Y+025000
X+086000
X+085000Y+031000
X+083000
X+072000Y+027000
X+074000
X+075000Y+025000
X+071000
X+072000Y+023000
X+074000
X+087000Y+025000
X+091000
X+089000Y+023000
X+091000
X+085000Y+027000
X+083000
X+085000Y+023000
X+083000
X+085000Y+015000
X+083000
X+067000
X+065000
X+069000Y+019000
X+065000
X+072000
X+074000
X+075000Y+017000
X+071000
X+072000Y+015000
X+074000
X+087000Y+017000
X+091000
X+089000Y+015000
X+091000
X+085000Y+019000
X+083000
X+065000Y+017000
X+069000
X+091000Y+019000
X+087000
X+065000Y+025000
X+069000
X+091000Y+027000
X+087000
X+082000Y+033000
X+086000
X+082000Y+041000
X+086000
X+067000Y+031000
X+065000
X+069000Y+035000
X+065000
X+067000Y+039000
X+065000
X+069000Y+043000
X+065000
X+074000Y+056000
X+075000
X+079000
X+080000
X+072000Y+039000
X+074000
X+087000Y+041000
X+091000
X+089000Y+039000
X+091000
X+085000Y+043000
X+083000
X+072000Y+035000
X+074000
X+075000Y+033000
X+071000
X+072000Y+031000
X+074000
X+087000Y+033000
X+091000
X+089000Y+031000
X+091000
X+085000Y+035000
X+083000
X+075000Y+041000
X+071000
X+072000Y+043000
X+074000
X+085000Y+039000
X+083000
X+065000Y+033000
X+069000
X+091000Y+035000
X+087000
X+065000Y+041000
X+069000
X+091000Y+043000
X+087000
X+105000Y+052000
Y+048000
X+102000Y+052000
Y+048000
X+108000Y+052000
Y+048000
X+111000Y+052000
Y+048000
T06
X+069000Y+031000
Y+023000
X+087000
X+069000Y+015000
X+087000
Y+031000
X+080000Y+054000
X+069000Y+039000
X+076000Y+047000
X+074000Y+054000
X+087000Y+039000
X+094000Y+042000
Y+040000
Y+034000
Y+032000
Y+026000
Y+024000
Y+018000
Y+016000
T07
X+116750Y+041153
Y+018346
T08
X+057710Y+018700
Y+030300
Y+040700
Y+052300
T09
X+057000Y+059000
Y+012000
X+117000Y+059000
X+118125Y+012000
T00
M30
