M48
INCH
T01C0.022
T02C0.030
T03C0.034
T04C0.035
T05C0.038
T06C0.046
T07C0.125
%
T01
X+073500Y+029500
Y+021500
Y+013500
X+078500Y+019500
X+078000Y+027500
X+074000Y+037500
X+078500Y+044000
Y+035500
X+095000Y+037500
X+092500
X+096000Y+040000
X+096500Y+042000
X+097000Y+032000
X+097500Y+034000
X+101250Y+036500
X+097000
X+095000
X+103125Y+044500
X+096000
X+094125
X+092500Y+013500
X+095000
X+092500Y+029500
Y+021500
X+095000
Y+029500
X+099500Y+026000
X+099000Y+024000
X+096000Y+024500
X+096500Y+025000
X+107125Y+026125
X+096625Y+018000
X+096125Y+026875
Y+016000
T02
X+064500Y+047250
X+091000Y+049000
T03
X+062500Y+048000
Y+049000
Y+050000
Y+051000
Y+052000
T04
X+074500Y+018000
Y+017000
Y+016000
Y+015000
X+077500
Y+016000
Y+017000
Y+018000
X+074500Y+026000
Y+025000
Y+024000
Y+023000
X+077500
Y+024000
Y+025000
Y+026000
X+074500Y+034000
Y+033000
Y+032000
Y+031000
X+077500
Y+032000
Y+033000
Y+034000
X+074500Y+042000
Y+041000
Y+040000
Y+039000
X+077500
Y+040000
Y+041000
Y+042000
X+101500
Y+041000
Y+040000
Y+039000
X+104500
Y+040000
Y+041000
Y+042000
T05
X+058000Y+028000
Y+029000
Y+030000
Y+031000
Y+032000
Y+033000
Y+034000
X+057000
Y+033000
Y+032000
Y+031000
Y+030000
Y+029000
Y+028000
Y+027000
X+058000
X+064500Y+023000
X+062500
X+088500Y+027000
X+084500
Y+025000
X+088500
X+084500Y+017000
X+088500
X+086500Y+023000
X+088500
X+079500Y+025000
X+083500
X+079500Y+017000
X+083500
X+082500Y+027000
X+080500
X+082500Y+019000
X+080500
X+082500Y+031000
X+080500
X+082500Y+023000
X+080500
X+082500Y+015000
X+080500
X+072500Y+025000
X+068500
X+072500Y+017000
X+068500
X+069500Y+015000
X+071500
X+069500Y+027000
X+071500
X+069500Y+019000
X+071500
X+062500Y+025000
X+066500
X+062500Y+017000
X+066500
Y+019000
X+062500
X+066500Y+027000
X+062500
X+064500Y+015000
X+062500
X+086500
X+088500
X+069500Y+023000
X+071500
X+088500Y+019000
X+084500
X+064500Y+039000
X+062500
X+064500Y+031000
X+062500
X+088500Y+043000
X+084500
X+088500Y+035000
X+084500
Y+041000
X+088500
X+084500Y+033000
X+088500
X+086500Y+039000
X+088500
X+086500Y+031000
X+088500
X+079500Y+041000
X+083500
X+079500Y+033000
X+083500
X+082500Y+043000
X+080500
X+082500Y+035000
X+080500
X+082500Y+039000
X+080500
X+072500Y+041000
X+068500
X+072500Y+033000
X+068500
X+069500Y+043000
X+071500
X+069500Y+035000
X+071500
X+062500Y+041000
X+066500
X+062500Y+033000
X+066500
Y+043000
X+062500
X+066500Y+035000
X+062500
X+069500Y+031000
X+071500
X+069500Y+039000
X+071500
X+091000Y+046500
X+090000
X+099000Y+049875
X+100000Y+048875
X+101000Y+049875
X+100500Y+031000
X+104500
X+100500Y+033000
X+104500
Y+035000
X+100500
X+096500Y+046500
X+095500
X+104250Y+045875
X+102250
X+101000Y+025000
Y+024000
Y+023000
Y+022000
Y+021000
Y+020000
Y+019000
Y+018000
Y+017000
Y+016000
X+102000
Y+017000
Y+018000
Y+019000
Y+020000
Y+021000
Y+022000
Y+023000
Y+024000
Y+025000
T06
X+066500Y+015000
X+084500
Y+023000
X+066500
X+084500Y+031000
X+066500
X+084500Y+039000
X+066500
X+067625Y+047250
X+067750Y+052750
X+068875Y+049875
X+091500Y+032000
Y+040000
Y+042000
Y+034000
Y+018000
Y+016000
Y+024000
Y+026000
T07
X+057000Y+052500
Y+012500
X+107000Y+052500
Y+012500
T00
M30
