M48
INCH
T01C0.022
T02C0.031
T03C0.034
T04C0.038
T05C0.046
T06C0.110
T07C0.125
%
T01
X+058875Y+042750
Y+041750
X+060125Y+053125
X+051250Y+066375
X+058500Y+067500
X+056500Y+069500
X+080750Y+061125
X+078000Y+061000
X+088875Y+061750
X+088000
Y+060500
X+087125
Y+061750
X+086250
X+079000Y+061000
X+079875
X+069750Y+062875
X+069250Y+063375
X+088500Y+062500
X+089375
X+090250
X+089750Y+061750
X+088875Y+060500
X+089750
X+086500Y+067500
X+086000Y+071000
X+082500Y+067500
X+082000Y+071000
X+078500Y+067500
X+078000Y+071000
X+074500Y+067500
X+074000Y+071000
X+070500Y+067500
X+070000Y+071000
X+066500Y+067500
X+062500
X+066000Y+071000
X+061000
X+090000Y+067000
X+103500Y+069500
X+100500
X+093500
X+098000
X+112000Y+073000
X+109000
X+104500Y+062000
X+092500Y+065500
Y+061250
X+100125Y+060750
X+103375Y+061500
X+106500Y+064750
X+108500
X+114500
X+116500
X+118500Y+064875
X+090625Y+061750
Y+060500
X+116125Y+073000
X+066250Y+043125
X+065250Y+043250
X+062375Y+043000
X+064250Y+042875
X+071250Y+046125
X+061125Y+056250
X+060625Y+055000
X+079000Y+059375
X+079875
X+080750
X+080875Y+060125
X+080000
X+078000Y+059375
X+110750Y+043750
X+101375Y+042875
X+098125Y+043125
X+096875Y+043250
X+111750Y+044250
X+108375Y+046000
X+109000Y+043500
X+109125Y+045875
X+107875Y+044500
X+091875Y+045500
X+095750Y+043250
X+094625Y+043500
X+104250Y+043875
X+098375Y+053500
X+098875Y+051000
Y+048125
X+099375Y+053000
Y+048750
X+097875Y+051500
Y+048125
X+099875
Y+052500
X+102500Y+059000
X+095625Y+059875
X+097875
X+090250Y+059750
X+089375
X+088500
X+121000Y+073000
Y+063000
X+123000
X+124000Y+064000
Y+066000
Y+068000
Y+070000
T02
X+065250Y+041250
X+065750Y+042000
X+066250Y+041250
X+066750Y+042000
X+067250Y+041250
X+067750Y+042000
X+068250Y+041250
X+068750Y+042000
X+069250Y+041250
X+069750Y+042000
X+070250Y+041250
X+070750Y+042000
X+071250Y+041250
X+071750Y+042000
X+072250Y+041250
X+072750Y+042000
X+073250Y+041250
X+073750Y+042000
X+074250Y+041250
X+074750Y+042000
X+075250Y+041250
X+075750Y+042000
X+076250Y+041250
X+076750Y+042000
X+077250Y+041250
X+077750Y+042000
X+078250Y+041250
X+078750Y+042000
X+079250Y+041250
X+079750Y+042000
X+080250Y+041250
X+080750Y+042000
X+081250Y+041250
X+065250Y+039750
X+065750Y+040500
X+066250Y+039750
X+066750Y+040500
X+067250Y+039750
X+067750Y+040500
X+068250Y+039750
X+068750Y+040500
X+069250Y+039750
X+069750Y+040500
X+070250Y+039750
X+070750Y+040500
X+071250Y+039750
X+071750Y+040500
X+072250Y+039750
X+072750Y+040500
X+073250Y+039750
X+073750Y+040500
X+074250Y+039750
X+074750Y+040500
X+075250Y+039750
X+075750Y+040500
X+076250Y+039750
X+076750Y+040500
X+077250Y+039750
X+077750Y+040500
X+078250Y+039750
X+078750Y+040500
X+079250Y+039750
X+079750Y+040500
X+080250Y+039750
X+081250
X+080750Y+040500
X+064750
Y+042000
X+098125Y+041250
X+098625Y+042000
X+099125Y+041250
X+099625Y+042000
X+100125Y+041250
X+100625Y+042000
X+101125Y+041250
X+101625Y+042000
X+102125Y+041250
X+102625Y+042000
X+103125Y+041250
X+103625Y+042000
X+104125Y+041250
X+104625Y+042000
X+105125Y+041250
X+105625Y+042000
X+106125Y+041250
X+106625Y+042000
X+107125Y+041250
X+107625Y+042000
X+108125Y+041250
X+108625Y+042000
X+109125Y+041250
X+109625Y+042000
X+110125Y+041250
X+110625Y+042000
X+111125Y+041250
X+111625Y+042000
X+112125Y+041250
X+112625Y+042000
X+113125Y+041250
X+113625Y+042000
X+114125Y+041250
X+098125Y+039750
X+098625Y+040500
X+099125Y+039750
X+099625Y+040500
X+100125Y+039750
X+100625Y+040500
X+101125Y+039750
X+101625Y+040500
X+102125Y+039750
X+102625Y+040500
X+103125Y+039750
X+103625Y+040500
X+104125Y+039750
X+104625Y+040500
X+105125Y+039750
X+105625Y+040500
X+106125Y+039750
X+106625Y+040500
X+107125Y+039750
X+107625Y+040500
X+108125Y+039750
X+108625Y+040500
X+109125Y+039750
X+109625Y+040500
X+110125Y+039750
X+110625Y+040500
X+111125Y+039750
X+111625Y+040500
X+112125Y+039750
X+112625Y+040500
X+113125Y+039750
X+114125
X+113625Y+040500
X+097625
Y+042000
T03
X+058125Y+053125
X+060125Y+057625
X+058125Y+056125
X+060125Y+051625
X+058125Y+045625
X+060125
Y+047125
X+058125Y+050125
X+060125
X+058125Y+051625
Y+054625
Y+057625
Y+047125
Y+048625
X+060125Y+060750
X+031000Y+058000
X+032000
X+033000
X+034000
X+035000
X+031000Y+054000
X+032000
X+033000
X+034000
X+035000
X+039000Y+058000
X+040000
X+041000
X+042000
X+043000
X+039000Y+054000
X+040000
X+041000
X+042000
X+043000
X+039000Y+050000
X+040000
X+041000
X+042000
X+043000
X+047000Y+058000
X+048000
X+049000
X+050000
X+051000
X+047000Y+054000
X+048000
X+049000
X+050000
X+051000
X+047000Y+050000
X+048000
X+049000
X+050000
X+051000
X+047000Y+072000
X+048000
X+049000
X+050000
X+051000
X+046000
X+045000
X+044000
X+035000
X+036000
X+039500
X+040500
X+059125Y+071750
X+060125
X+083125
X+084125
X+079125
X+080125
X+075125
X+076125
X+071125
X+072125
X+067125
X+068125
X+063125
X+064125
X+087125
X+088125
X+106000
X+107000
X+094875
X+095875
X+096875
X+097875
X+098875
X+093875
X+101875
X+102875
X+118000
X+119000
X+114000
X+115000
X+110000
X+111000
X+090500Y+051500
X+088500Y+051000
Y+048000
X+090500Y+047000
Y+050000
X+088500Y+049500
X+090500Y+048500
X+088500Y+046500
Y+045000
X+090500Y+045500
X+106125Y+060750
X+103375Y+057500
X+106500Y+047500
X+108500
Y+053125
Y+054125
Y+055125
Y+056125
Y+057125
Y+052125
Y+051125
T04
X+044750Y+070000
Y+066000
X+038000Y+070000
Y+066000
X+049500Y+069750
Y+065750
X+048000Y+069750
Y+065750
X+042500Y+064750
X+041500
X+040500
X+042500Y+061750
X+041500
X+040500
X+044750Y+060750
Y+064750
X+038000Y+061000
Y+065000
X+036250Y+064750
X+035250
X+034250
X+036250Y+061750
X+035250
X+034250
X+058500Y+069750
Y+065750
X+060125Y+069750
Y+065750
X+076125Y+069750
Y+065750
X+080125Y+069750
Y+065750
X+084125Y+069750
Y+065750
X+064125Y+069750
Y+065750
X+068125Y+069750
Y+065750
X+072125Y+069750
Y+065750
X+062500Y+069750
Y+065750
X+066500Y+069750
Y+065750
X+070500Y+069750
Y+065750
X+074500Y+069750
Y+065750
X+078500Y+069750
Y+065750
X+082500Y+069750
Y+065750
X+086500Y+069750
Y+065750
X+088125Y+069750
Y+065750
X+113500Y+063625
X+115500
X+109500
X+111500
X+105500
X+107500
X+113500Y+065250
Y+069250
X+115500Y+065250
Y+069250
X+109500Y+065250
Y+069250
X+111500Y+065250
Y+069250
X+105500Y+065250
Y+069250
X+107500Y+065250
Y+069250
X+119500Y+065250
Y+069250
X+117500Y+065250
Y+069250
Y+063625
X+119500
X+067000Y+055000
Y+054000
Y+053000
Y+052000
Y+051000
Y+050000
Y+049000
X+068000
Y+050000
Y+051000
Y+052000
Y+053000
Y+054000
Y+055000
Y+056000
X+067000
X+074125Y+058000
Y+057000
Y+056000
Y+055000
Y+054000
Y+053000
Y+052000
Y+051000
Y+050000
Y+049000
X+075125
Y+050000
Y+051000
Y+052000
Y+053000
Y+054000
Y+055000
Y+056000
Y+057000
Y+058000
X+094500Y+063625
Y+059625
X+096750Y+063625
Y+059625
X+099000Y+063625
Y+059625
X+101125Y+063625
Y+059625
T05
X+096750Y+067375
Y+065375
X+094500Y+067375
Y+065375
X+101125Y+067375
Y+065375
X+099000Y+067375
Y+065375
T06
X+061600Y+040500
X+084400
X+094475
X+117275
T07
X+031000Y+047500
X+055000
Y+072500
X+031000
X+091000
X+123000
Y+047500
T00
M30
