M48
INCH
T01C0.022
T02C0.030
T03C0.034
T04C0.035
T05C0.038
T06C0.046
T07C0.125
%
T01
X+058875Y+053000
X+057125
X+057500Y+059000
X+056625Y+079125
Y+078000
X+053625Y+068375
X+052250Y+066875
X+060125Y+071500
X+059000Y+072500
X+058750Y+062000
X+054125Y+074625
X+051000Y+070875
X+050875Y+062375
X+057375Y+074500
X+056625Y+073125
X+053750Y+069500
X+057125Y+062000
X+073375Y+068500
X+074375Y+067500
X+075375Y+068500
X+073375Y+077000
X+074375Y+076000
X+075375Y+077000
X+073750Y+072625
X+076375
Y+074750
X+079625Y+077375
X+072250Y+078375
Y+069875
Y+061375
X+073750Y+064125
X+076375Y+066250
Y+064125
X+078875Y+068875
Y+060375
X+081375Y+078375
X+087125Y+071875
X+088125Y+070875
X+089125Y+071875
X+073375Y+051500
X+074375Y+050500
X+075375Y+051500
X+073375Y+060000
X+074375Y+059000
X+075375Y+060000
X+085125Y+053125
X+086125Y+052125
X+087125Y+053125
X+072250Y+052875
X+073750Y+055625
Y+047125
X+076375Y+057750
Y+055625
Y+049250
Y+047125
X+078875Y+051875
T02
X+092500Y+065000
X+082250Y+058500
T03
X+088000Y+078000
X+087000
X+086000
X+085000
X+084000
X+089000
X+090000
X+094500Y+060500
Y+061500
Y+062500
Y+063500
Y+064500
T04
X+067000Y+078000
Y+077000
Y+076000
Y+075000
X+070000
Y+076000
Y+077000
Y+078000
X+067000Y+069500
Y+068500
Y+067500
Y+066500
X+070000
Y+067500
Y+068500
Y+069500
X+092000Y+054500
Y+053500
Y+052500
Y+051500
X+095000
Y+052500
Y+053500
Y+054500
X+067000Y+061000
Y+060000
Y+059000
Y+058000
X+070000
Y+059000
Y+060000
Y+061000
X+067000Y+052500
Y+051500
Y+050500
Y+049500
X+070000
Y+050500
Y+051500
Y+052500
T05
X+061500Y+060500
X+065500
Y+059000
X+061500
X+065500Y+057500
X+061500
Y+052000
X+065500
Y+050500
X+061500
X+065500Y+049000
X+061500
X+051875Y+055250
X+055875
X+046000Y+059625
X+050000
X+052500Y+065000
Y+064000
Y+063000
Y+062000
X+055500Y+065000
Y+064000
Y+063000
Y+062000
Y+061000
Y+060000
Y+059000
X+052500Y+061000
Y+060000
Y+059000
X+046000Y+055625
X+050000
X+051875Y+051250
X+055875
X+046000Y+057625
X+050000
X+051875Y+053250
X+055875
X+046000Y+053625
X+050000
X+051875Y+049250
X+055875
X+062500Y+055500
X+064500
X+061500Y+069000
X+065500
Y+067500
X+061500
X+065500Y+066000
X+061500
X+052500Y+076000
Y+075000
Y+074000
Y+073000
X+055500Y+076000
Y+075000
Y+074000
Y+073000
Y+072000
Y+071000
Y+070000
X+052500Y+072000
Y+071000
Y+070000
X+046500Y+071125
Y+070125
Y+069125
Y+068125
Y+067125
Y+066125
Y+065125
X+047500
Y+066125
Y+067125
Y+068125
Y+069125
Y+070125
Y+071125
Y+072125
X+046500
X+061500Y+077500
X+065500
Y+074500
X+061500
X+065500Y+076000
X+061500
X+062500Y+064000
X+064500
X+079750Y+063000
Y+068000
X+089000Y+061500
Y+063500
X+079750Y+071500
Y+076500
X+081250Y+071500
Y+076500
X+093750Y+069625
X+089750
Y+067875
X+093750
X+062500Y+072500
X+064500
X+066500Y+073250
X+070500
X+069750Y+071500
X+067750
X+066500Y+064750
X+070500
X+069750Y+063000
X+067750
X+081250
Y+068000
X+093125Y+071750
Y+076750
X+091625Y+071750
Y+076750
X+079750Y+046000
Y+051000
X+081250Y+046000
Y+051000
X+079750Y+054500
Y+059500
X+081250Y+054500
Y+059500
X+086000Y+056000
X+087000
X+084750Y+050625
X+088750
X+089500Y+053000
X+090500
X+089000Y+058500
Y+059500
X+062500Y+047000
X+064500
X+066500Y+056250
X+070500
X+069750Y+054500
X+067750
X+066500Y+047750
X+070500
X+069750Y+046000
X+067750
X+085000Y+047100
X+086000Y+046100
X+087000Y+047100
T06
X+077875Y+064000
X+071875
X+077875Y+066000
X+071875
X+077875Y+072500
X+071875
X+077875Y+074500
X+071875
X+089750
X+087750
X+077875Y+047000
X+071875
X+077875Y+049000
X+071875
X+077875Y+055500
X+071875
X+077875Y+057500
X+071875
X+089375Y+045750
T07
X+045000Y+045000
Y+079000
X+095000
Y+045000
T00
M30
