M48
INCH
T01C0.022
T02C0.027
T03C0.034
T04C0.046
T05C0.125
T06C0.129
%
T01
X+075700Y+017900
X+059400Y+019400
X+051000Y+018000
X+065200Y+025100
X+066400
Y+026200
X+065200
X+054300Y+018300
X+073800Y+027700
X+071300Y+018600
X+072000Y+022600
X+071100
X+052500Y+025400
X+053300Y+023100
X+069000Y+023600
X+070200Y+024800
X+073800Y+025100
X+074000Y+022800
X+069600Y+019400
X+070600Y+021000
X+053100Y+027600
X+055400Y+022900
X+070600Y+023200
X+055400Y+021900
X+072800Y+021000
T02
X+063500Y+020850
Y+028150
X+059850Y+024500
X+063500
X+067150
T03
X+056500Y+025200
X+051600Y+030600
X+075200
X+051600Y+026200
Y+024000
X+075200Y+026200
Y+024100
X+054500Y+032600
T04
X+058800Y+029200
T05
X+057300Y+032200
Y+016800
X+069700
Y+032200
X+075500
X+051500
T06
X+063500Y+032200
Y+016800
T00
M30
