M48
INCH
T01C0.022
T02C0.034
T03C0.038
T04C0.046
T05C0.050
T06C0.060
T07C0.070
T08C0.100
T09C0.125
%
T01
X+049000Y+053875
X+050000
X+055625Y+053000
X+052875Y+046875
X+053250Y+051750
X+054375Y+045875
X+049625Y+074000
X+045250Y+076125
X+048125Y+074000
X+052875Y+069375
X+055625Y+091000
X+053375Y+089875
X+055250Y+069750
X+049125Y+062875
X+056250Y+094000
X+050750
X+046750Y+062875
X+052750Y+077750
X+048750Y+073250
X+052500Y+064625
X+089125Y+062875
X+088125Y+074000
X+085250Y+076125
X+089625Y+074000
X+072500Y+064625
X+068750Y+073250
X+072750Y+077750
X+066750Y+062875
X+069125
X+075250Y+069750
X+073375Y+089875
X+072875Y+069375
X+068125Y+074000
X+065250Y+076125
X+069625Y+074000
X+086750Y+062875
X+088750Y+073250
X+084125Y+097500
X+080625Y+091000
X+082125Y+096125
Y+094000
X+070750
X+076250
X+075625Y+091000
X+064125Y+097500
X+060625Y+091000
X+062125Y+096125
Y+094000
X+096250
X+095625Y+091000
X+102125Y+097500
X+090750Y+094000
X+102125
Y+096125
X+100625Y+091000
X+095250Y+069750
X+093375Y+089875
X+092875Y+069375
X+092500Y+064625
X+092000Y+077500
X+094500Y+041000
X+073500Y+033750
X+083750Y+035500
X+086000
X+088375
X+078875Y+033750
X+076125
X+060250Y+031125
X+070375
X+065500
X+072625Y+032500
X+072250Y+030875
X+064500Y+030125
X+080250Y+036125
X+065250Y+035875
X+066500Y+030625
X+069000Y+053875
X+070000
X+075625Y+053000
X+072875Y+046875
X+073250Y+051750
X+089000Y+053875
X+090000
X+095625Y+053000
X+092875Y+046875
X+093250Y+051750
X+074375Y+045875
X+094375
T02
X+038000Y+033000
X+037000
X+057000Y+032000
X+056000
X+055000
X+054000
X+053000
X+106000Y+080250
Y+081250
Y+082250
Y+083250
Y+084250
Y+079250
X+087000Y+032000
X+086000
X+085000
X+084000
X+083000
X+088000
X+089000
T03
X+047375Y+032375
Y+038375
X+058375Y+060625
Y+058625
X+051375Y+060625
Y+056625
X+052500Y+046000
X+048500
X+053625Y+062625
Y+058625
X+052500Y+061625
Y+057625
X+054750Y+061625
Y+057625
X+060000Y+081625
Y+083625
X+038000Y+096000
X+044000
X+043625Y+064000
Y+066000
X+051125Y+087375
X+047125
X+051125Y+095750
X+047125
X+050000Y+070125
X+046000
X+038000Y+065000
X+039000Y+064000
X+040000Y+065000
X+033500Y+064000
X+034500Y+063000
X+035500Y+064000
X+060000Y+086625
Y+088625
X+080000Y+086625
Y+088625
X+070000Y+070125
X+066000
X+071125Y+087375
X+067125
X+080000Y+081625
Y+083625
X+091125Y+087375
X+087125
X+090000Y+070125
X+086000
X+071125Y+095750
X+067125
X+091125
X+087125
X+100000Y+081625
Y+083625
Y+086625
Y+088625
X+078375Y+060625
Y+058625
X+071375Y+060625
Y+056625
X+072500Y+046000
X+068500
X+073625Y+062625
Y+058625
X+072500Y+061625
Y+057625
X+074750Y+061625
Y+057625
X+098375Y+060625
Y+058625
X+091375Y+060625
Y+056625
X+092500Y+046000
X+088500
X+093625Y+062625
Y+058625
X+092500Y+061625
Y+057625
X+094750Y+061625
Y+057625
T04
X+060425Y+056625
Y+054625
X+058025Y+055625
X+041875Y+032375
X+047125Y+040250
X+060425Y+071625
Y+069625
X+058025Y+070625
X+046750Y+097500
X+080425Y+071625
Y+069625
X+078025Y+070625
X+100425Y+071625
Y+069625
X+098025Y+070625
X+080425Y+056625
Y+054625
X+078025Y+055625
X+100425Y+056625
Y+054625
X+098025Y+055625
T05
X+033000Y+059000
X+036000
X+038000
X+040000
X+043000
Y+038000
X+034000
X+043000Y+070000
X+040000
X+038000
X+036000
X+033000
Y+091000
X+042000
X+081625Y+081500
Y+085500
Y+087500
Y+091500
X+061625Y+081500
Y+085500
Y+087500
Y+091500
X+101625Y+087500
Y+091500
Y+081500
Y+085500
X+078875Y+037000
Y+041000
X+076125Y+037000
Y+041000
X+073375Y+037000
Y+041000
T06
X+040750Y+044250
X+057875Y+034125
X+052125
X+031875Y+075625
X+060625Y+034250
X+070250Y+034375
T07
X+102500Y+033000
X+100000
X+097500
X+095000
T08
X+061875Y+050625
Y+060625
Y+065625
Y+075625
X+081875Y+065625
Y+075625
X+101875Y+065625
Y+075625
X+081875Y+050625
Y+060625
X+101875Y+050625
Y+060625
T09
X+032000Y+031000
Y+098000
X+106000
Y+069625
X+075000Y+031000
X+106000
T00
M30
