M48
INCH
T01C0.022
T02C0.034
T03C0.038
T04C0.072
T05C0.110
T06C0.125
%
T01
X+021400Y+024500
T02
X+012000Y+022200
Y+021200
T03
X+024500Y+010500
X+023500
X+022500
X+021500
X+020500
X+019500
X+018500
X+017500
X+016500
X+015500
Y+009500
X+016500
X+017500
X+018500
X+019500
X+020500
X+021500
X+022500
X+023500
X+024500
T04
X+018740Y+017910
X+017820Y+018870
X+017560Y+020140
X+017980Y+021400
X+019000Y+022250
X+020000Y+021400
X+021100Y+020400
X+018900
X+020000Y+017550
X+021260Y+017910
X+022180Y+018870
X+022440Y+020140
X+022020Y+021400
X+021000Y+022250
T05
X+020000Y+019230
T06
X+015380Y+024620
X+024620
Y+015380
X+015380
T00
M30
