M48
INCH
T01C0.020
T02C0.030
T03C0.031
T04C0.038
T05C0.110
T06C0.125
%
T01
X+107625Y+043125
X+108625
X+109625
X+110500
X+113500
X+113750Y+044000
X+108500Y+045375
X+112750Y+044375
X+104330Y+043110
X+102755Y+043503
X+103543Y+043307
X+105019Y+042814
X+098051Y+065885
X+091377Y+065866
X+092165Y+064921
X+093149
X+094232Y+060787
X+099389Y+056259
X+093996Y+064960
X+101397Y+062972
X+100925Y+062027
X+094232Y+062913
X+091732Y+064153
X+098090
X+098346Y+064606
X+101397Y+064960
X+099586Y+062913
X+100433Y+063996
X+099586Y+065984
X+099724Y+058996
X+100905Y+059527
X+094862Y+063740
Y+059507
X+097165Y+062559
X+097992Y+062145
X+098532Y+060531
X+098611Y+059547
X+098886Y+060000
X+097922Y+060866
X+100070Y+061000
Y+064600
X+099360Y+058600
X+095900Y+061050
X+096270Y+066930
X+090039Y+062362
X+100078Y+056220
X+093700Y+065452
X+093484Y+060787
X+106566Y+069360
T02
X+098625Y+045125
Y+044250
X+093375Y+044500
Y+045500
Y+046500
X+093700Y+048720
X+091161Y+049685
T03
X+099000Y+041250
X+100000
X+100500Y+042000
X+101000Y+041250
X+101500Y+042000
X+102000Y+041250
X+102500Y+042000
X+103000Y+041250
X+103500Y+042000
X+104000Y+041250
X+106000
X+106500Y+042000
X+107000Y+041250
X+107500Y+042000
X+108000Y+041250
X+108500Y+042000
X+109000Y+041250
X+109500Y+042000
X+110000Y+041250
X+110500Y+042000
X+111000Y+041250
X+111500Y+042000
X+112000Y+041250
X+112500Y+042000
X+113000Y+041250
X+113500Y+042000
X+114000Y+041250
X+114500Y+042000
X+115000Y+041250
X+099000Y+039750
X+099500Y+040500
X+100000Y+039750
X+100500Y+040500
X+101000Y+039750
X+101500Y+040500
X+102000Y+039750
X+102500Y+040500
X+103000Y+039750
X+103500Y+040500
X+104000Y+039750
X+104500Y+040500
X+105000Y+039750
X+105500Y+040500
X+106000Y+039750
X+106500Y+040500
X+107000Y+039750
X+107500Y+040500
X+108000Y+039750
X+108500Y+040500
X+109000Y+039750
X+109500Y+040500
X+110000Y+039750
X+110500Y+040500
X+111000Y+039750
X+111500Y+040500
X+112000Y+039750
X+112500Y+040500
X+113000Y+039750
X+113500Y+040500
X+114000Y+039750
X+115000
X+114500Y+040500
X+098500
X+105500Y+042000
X+104500
X+105000Y+041250
X+098500Y+042000
X+099500
T04
X+109000Y+063000
Y+062000
Y+061000
Y+060000
Y+059000
Y+058000
Y+057000
X+110000
Y+058000
Y+059000
Y+060000
Y+061000
Y+062000
Y+063000
Y+064000
X+109000
X+115000Y+063000
Y+062000
Y+061000
Y+060000
Y+059000
Y+058000
Y+057000
X+116000
Y+058000
Y+059000
Y+060000
Y+061000
Y+062000
Y+063000
Y+064000
X+115000
X+121000Y+063000
Y+062000
Y+061000
Y+060000
Y+059000
Y+058000
Y+057000
X+122000
Y+058000
Y+059000
Y+060000
Y+061000
Y+062000
Y+063000
Y+064000
X+121000
X+103000Y+066000
Y+065000
Y+064000
Y+063000
Y+062000
Y+061000
Y+060000
Y+059000
Y+058000
Y+057000
X+104000
Y+058000
Y+059000
Y+060000
Y+061000
Y+062000
Y+063000
Y+064000
Y+065000
Y+066000
T05
X+095350Y+040500
X+118150
T06
X+091000Y+072500
Y+047500
X+123000
Y+072500
T00
M30
