M48
INCH,TZ
T01C0.010
T02C0.016
T03C0.020
T04C0.024
T05C0.043
T06C0.059
T07C0.065
T08C0.071
T09C0.088
T10C0.118
%
T01
X+49084Y+42627
X+47450Y+39763
X+48917Y+42047
X+49232Y+42194
X+37283Y+41978
X+36348Y+41102
X+49173Y+38484
X+48307Y+41003
X+48818Y+40767
X+49242Y+40501
X+49340Y+38169
X+60364Y+37027
X+60639Y+36830
X+60905Y+40423
X+61377Y+40147
X+61033Y+39074
X+61230Y+40521
X+60698Y+38986
X+51889Y+40177
X+50915Y+41624
X+61348Y+38818
X+61673Y+40314
X+50580Y+41702
X+52283Y+40688
X+50246Y+41633
X+49950Y+41456
X+50049Y+42037
X+61486Y+41850
X+49744Y+41899
X+49438Y+41761
X+61338Y+42214
X+60442Y+41062
X+49576Y+42194
X+60944Y+42027
X+60629Y+37824
X+50875Y+41171
X+51368Y+40994
Y+40639
X+49488Y+37814
X+66062Y+39409
X+66240Y+41811
X+65039Y+40531
X+65846Y+42106
X+63720Y+43307
X+64094Y+39655
X+62746Y+37568
X+63120Y+40413
X+64409Y+37480
X+64330Y+42027
X+65147Y+38297
X+66446Y+40049
X+62637Y+41427
X+64685Y+38484
X+63553Y+41309
X+64960Y+39537
X+65403Y+39291
X+63996Y+41230
X+66624Y+41200
X+64625Y+41860
X+64527Y+39812
X+63907Y+42086
X+63120Y+37844
X+61988Y+40118
X+62440Y+41702
X+62106Y+41584
X+62362Y+42185
X+61860Y+42096
X+64763Y+41161
X+62401Y+37844
X+62490Y+36279
X+64527Y+36761
X+62411Y+36811
X+63110Y+36564
X+63543Y+35482
T02
X+39322Y+41716
X+39344Y+42305
X+39690Y+40366
X+40442Y+40538
X+40353Y+41120
X+39842Y+41416
X+39142Y+42851
X+38631Y+42575
X+36522Y+37024
X+36152Y+37545
X+35507Y+39954
X+36728Y+37898
X+37171Y+37446
X+37240Y+38361
X+37751Y+37810
X+38086Y+38440
T03
X+48887Y+37785
X+38100Y+40147
X+39625Y+42962
X+39872Y+43257
X+36998Y+42381
X+60620Y+42234
X+61013Y+42460
X+61466Y+42657
X+59468Y+40688
X+54202Y+39881
X+59133Y+39665
X+59360Y+39960
X+60265Y+39005
X+60433Y+39360
X+50482Y+38435
X+49793Y+40226
X+61889Y+42480
T04
X+36470Y+41748
X+38720Y+40449
X+48281Y+41748
X+50531Y+40449

X+48281Y+41748
X+60092
X+62342Y+40449

X+60092Y+41748
T05
X+53311Y+38185
X+66480Y+38765
X+65298Y+36719
T06
X+53488Y+36673
X+54669Y+38719
T07
X+37766Y+42809
X+43107Y+40029
X+37472Y+36083
X+47894Y+37472
X+59705
X+54467
X+51181Y+43165
X+62992
X+66278Y+37472
T08
X+40282Y+36063
X+41256Y+39567
T09
X+41691Y+36666
X+42872Y+38711
X+41514Y+38131
T10
X+39370Y+39370
X+39192Y+37490
X+51181Y+39370
X+62992
T00
M30
