G04 CAM Products 2000  RS274-X Output*
G04 Serial Number: 0000-00-00000*
G04 File Name:HANDLE_R2.DRL *
%FSDAX44Y44*%
%MOMM*%
%SFA1B1*%

%IPPOS*%
%ADD10C,0.248920*%
%ADD11C,0.025400*%
%ADD12C,0.254000*%
%ADD13C,0.279400*%
%ADD14C,0.299720*%
%ADD15C,0.497840*%
%ADD16C,0.099060*%
%ADD17C,0.800100*%
%ADD18C,0.998220*%
%ADD19C,0.127000*%
%ADD20C,0.149860*%
%ADD21C,0.160020*%
%ADD22C,0.177800*%
%ADD23C,0.198120*%
%ADD24C,1.998980*%
%ADD25C,0.203200*%
%ADD26C,0.248920*%
%ADD27C,2.598420*%
%ADD28C,2.860040*%
%ADD29C,2.999740*%
%ADD30C,3.119120*%
%ADD31C,3.197860*%
%ADD32C,3.319780*%
%ADD33C,3.357880*%
%ADD34C,3.479800*%
%ADD35C,3.619500*%
%ADD36C,3.997960*%
%ADD37C,4.119880*%
%ADD38C,5.499100*%
%ADD39C,5.618480*%
%ADD40C,0.698500*%
%ADD41C,0.998220*%
%ADD42C,1.018540*%
%ADD43C,1.120140*%
%ADD44C,1.219200*%
%ADD45C,1.709420*%
%ADD46C,1.859280*%
%ADD47C,1.978660*%
%ADD48C,1.998980*%
%ADD49C,2.118360*%
%ADD50C,2.418080*%
%ADD51R,0.635000X0.635000*%
%ADD52R,0.754380X0.754380*%
%ADD53R,1.399540X0.304800*%
%ADD54R,1.518920X0.424180*%
%ADD55C,0.568960*%
%ADD56C,0.688340*%
%ADD57C,0.817880*%
%ADD58C,0.868680*%
%ADD59C,0.939800*%
%ADD500C,0.254000*%
%ADD501C,0.406400*%
%ADD502C,0.508000*%
%ADD503C,0.609600*%
%ADD504C,1.092200*%
%ADD505C,1.498600*%
%ADD506C,1.651000*%
%ADD507C,1.803400*%
%ADD508C,2.235200*%
%ADD509C,2.997200*%
%LNHANDLE_R2-1*%
%LPD*%
G54D500*
X01551991Y00911225D03*
X01538732Y00938480D03*
X01561745Y01062990D03*
X01557986Y01072236D03*
X01547978Y01067486D03*
X01512748Y00973481D03*
X01508227Y00984733D03*
X01548740Y00961746D03*
X01505484Y01013740D03*
X01512748Y01006475D03*
X01562227Y00978485D03*
X01559992Y00987248D03*
X01504976Y01035990D03*
X01511250Y01032993D03*
X01538732Y01072998D03*
X01566495Y01078738D03*
X01546479Y01077494D03*
X01553236Y01082244D03*
X01561745Y01085495D03*
X01550747Y01027989D03*
X01540993Y01037997D03*
X01677975Y01000989D03*
X01682496Y01062000D03*
X01651991Y01029488D03*
X01672489Y01069493D03*
X01618488Y01099998D03*
X01627988Y01007237D03*
X01603248Y01026491D03*
X01633982Y01067486D03*
X01687729Y01017245D03*
X01590980Y01052246D03*
X01614247Y01049249D03*
X01649984Y01004240D03*
X01661237Y00997992D03*
X01625499Y01047242D03*
X01692250Y01046480D03*
X01641475Y01063244D03*
X01638986Y01011225D03*
X01623238Y01068985D03*
X01585976Y01059231D03*
X01577493Y01056234D03*
X01583995Y01071499D03*
X01571244Y01069239D03*
X01644981Y01045490D03*
X01640231Y00979475D03*
X01656233Y00968985D03*
X01603248Y00953491D03*
X01593977D03*
X01578991Y00946989D03*
X01600734Y00968731D03*
X01636243Y00945236D03*
X01575232Y01080999D03*
X01569746Y01087247D03*
X01598727Y00899745D03*
X01602486Y00941477D03*
X01587500Y00914248D03*
X01601978Y00928243D03*
X01586992Y00930987D03*
X01638986Y00930733D03*
G54D502*
X01535989Y00999490D03*
X01531239Y00990727D03*
X01549731Y00991743D03*
X01544981Y00982498D03*
G54D503*
X01526337Y01060400D03*
X01583487Y01027405D03*
X01526337Y01060400D03*
G54D504*
X01688592Y00984631D03*
X01658570Y00932663D03*
G54D506*
X01516507Y00951789D03*
X01599997Y01096391D03*
X01683462Y00951789D03*
G54D509*
X01599997Y00999998D03*
M02*