G04 CAM Products 2000  RS274-X Output*
G04 Serial Number: 0000-00-00000*
G04 File Name:LED-FLEX-R2-SPACER.GBR *
%FSLAX34Y34*%
%MOIN*%
%SFA1B1*%

%IPPOS*%
%AMROUNDRECTNOHOLED21*
4,1,4,0.019700,0.008900,
-0.019700,0.008900,
-0.019700,-0.008900,
0.019700,-0.008900,
0.019700,0.008900,0.0*
4,1,4,0.010900,0.017700,
-0.010900,0.017700,
-0.010900,-0.017700,
0.010900,-0.017700,
0.010900,0.017700,0.0*
1,1,0.017700,-0.010800,-0.008900*
1,1,0.017700,-0.010800,0.008900*
1,1,0.017700,0.010800,0.008900*
1,1,0.017700,0.010800,-0.008900*
%
%ADD10C,0.000400*%
%ADD11C,0.010000*%
%ADD12C,0.013800*%
%ADD13C,0.002000*%
%ADD14C,0.003900*%
%ADD15C,0.039400*%
%ADD16C,0.005000*%
%ADD17C,0.005900*%
%ADD18C,0.007900*%
%ADD19C,0.008000*%
%ADD20C,0.009800*%
%ADD21ROUNDRECTNOHOLED21*%
%ADD22R,0.137800X0.013800*%
%ADD23R,0.152800X0.028800*%
%ADD24R,0.047200X0.051200*%
%ADD25R,0.062200X0.066200*%
%ADD26R,0.049600X0.071800*%
%LNLED-FLEX-R2-SPACER-1*%
%LPD*%
G54D17*
X34448Y15944D02*
X38385D01*
Y19881D02*
X34448D01*
Y15944*
X38385D02*
Y19881D01*
G54D19*
X36098Y20650D02*
Y20388D01*
Y20575D02*
X36154Y20632D01*
X36192Y20650*
X36248*
X36286Y20632*
X36304Y20575*
Y20388*
Y20575D02*
X36361Y20632D01*
X36398Y20650*
X36454*
X36492Y20632*
X36511Y20575*
Y20388*
X36661Y20650D02*
Y20388D01*
Y20575D02*
X36717Y20632D01*
X36754Y20650*
X36811*
X36848Y20632*
X36867Y20575*
Y20388*
Y20575D02*
X36923Y20632D01*
X36961Y20650*
X37017*
X37054Y20632*
X37073Y20575*
Y20388*
X43522Y14447D02*
X43374Y14835D01*
X43227Y14447*
X43282Y14577D02*
X43466D01*
X43614Y14835D02*
Y14447D01*
X43762Y14835D02*
Y14447D01*
X44352Y14835D02*
Y14447D01*
Y14650D02*
X44315Y14687D01*
X44278Y14706*
X44223*
X44186Y14687*
X44149Y14650*
X44131Y14595*
Y14558*
X44149Y14503*
X44186Y14466*
X44223Y14447*
X44278*
X44315Y14466*
X44352Y14503*
X44481Y14835D02*
X44500Y14816D01*
X44518Y14835*
X44500Y14853*
X44481Y14835*
X44500Y14706D02*
Y14447D01*
X44647Y14706D02*
Y14447D01*
Y14632D02*
X44703Y14687D01*
X44740Y14706*
X44795*
X44832Y14687*
X44850Y14632*
Y14447*
Y14632D02*
X44906Y14687D01*
X44943Y14706*
X44998*
X45035Y14687*
X45053Y14632*
Y14447*
X45182Y14595D02*
X45404D01*
Y14632*
X45385Y14669*
X45367Y14687*
X45330Y14706*
X45275*
X45238Y14687*
X45201Y14650*
X45182Y14595*
Y14558*
X45201Y14503*
X45238Y14466*
X45275Y14447*
X45330*
X45367Y14466*
X45404Y14503*
X45533Y14706D02*
Y14447D01*
Y14632D02*
X45588Y14687D01*
X45625Y14706*
X45681*
X45718Y14687*
X45736Y14632*
Y14447*
X46068Y14650D02*
X46050Y14687D01*
X45994Y14706*
X45939*
X45884Y14687*
X45865Y14650*
X45884Y14614*
X45920Y14595*
X46013Y14577*
X46050Y14558*
X46068Y14521*
Y14503*
X46050Y14466*
X45994Y14447*
X45939*
X45884Y14466*
X45865Y14503*
X46179Y14835D02*
X46197Y14816D01*
X46216Y14835*
X46197Y14853*
X46179Y14835*
X46197Y14706D02*
Y14447D01*
X46419Y14706D02*
X46382Y14687D01*
X46345Y14650*
X46326Y14595*
Y14558*
X46345Y14503*
X46382Y14466*
X46419Y14447*
X46474*
X46511Y14466*
X46548Y14503*
X46566Y14558*
Y14595*
X46548Y14650*
X46511Y14687*
X46474Y14706*
X46419*
X46695D02*
Y14447D01*
Y14632D02*
X46751Y14687D01*
X46788Y14706*
X46843*
X46880Y14687*
X46898Y14632*
Y14447*
X47231Y14650D02*
X47212Y14687D01*
X47157Y14706*
X47101*
X47046Y14687*
X47028Y14650*
X47046Y14614*
X47083Y14595*
X47175Y14577*
X47212Y14558*
X47231Y14521*
Y14503*
X47212Y14466*
X47157Y14447*
X47101*
X47046Y14466*
X47028Y14503*
X47581Y14835D02*
X47600Y14816D01*
X47618Y14835*
X47600Y14853*
X47581Y14835*
X47600Y14706D02*
Y14447D01*
X47747Y14706D02*
Y14447D01*
Y14632D02*
X47803Y14687D01*
X47839Y14706*
X47895*
X47932Y14687*
X47950Y14632*
Y14447*
X48338Y14706D02*
Y14447D01*
Y14632D02*
X48393Y14687D01*
X48430Y14706*
X48485*
X48522Y14687*
X48541Y14632*
Y14447*
Y14632D02*
X48596Y14687D01*
X48633Y14706*
X48688*
X48725Y14687*
X48744Y14632*
Y14447*
X48891Y14706D02*
Y14447D01*
Y14632D02*
X48947Y14687D01*
X48983Y14706*
X49039*
X49076Y14687*
X49094Y14632*
Y14447*
Y14632D02*
X49149Y14687D01*
X49186Y14706*
X49242*
X49279Y14687*
X49297Y14632*
Y14447*
X49463Y14484D02*
X49445Y14466D01*
X49463Y14447*
X49482Y14466*
X49463Y14484*
X43540Y14005D02*
X43522Y14042D01*
X43485Y14079*
X43448Y14097*
X43374*
X43337Y14079*
X43300Y14042*
X43282Y14005*
X43264Y13950*
Y13858*
X43282Y13802*
X43300Y13765*
X43337Y13728*
X43374Y13710*
X43448*
X43485Y13728*
X43522Y13765*
X43540Y13802*
X43669Y13968D02*
Y13784D01*
X43688Y13728*
X43725Y13710*
X43780*
X43817Y13728*
X43872Y13784*
Y13968D02*
Y13710D01*
X44038Y14097D02*
Y13784D01*
X44057Y13728*
X44094Y13710*
X44131*
X43983Y13968D02*
X44112D01*
X44481Y14097D02*
Y13710D01*
X44610Y14097D02*
X44629Y14079D01*
X44647Y14097*
X44629Y14116*
X44610Y14097*
X44629Y13968D02*
Y13710D01*
X44777Y13968D02*
Y13710D01*
Y13894D02*
X44832Y13950D01*
X44869Y13968*
X44924*
X44961Y13950*
X44979Y13894*
Y13710*
X45109Y13858D02*
X45330D01*
Y13894*
X45312Y13931*
X45293Y13950*
X45256Y13968*
X45201*
X45164Y13950*
X45127Y13913*
X45109Y13858*
Y13821*
X45127Y13765*
X45164Y13728*
X45201Y13710*
X45256*
X45293Y13728*
X45330Y13765*
X45644Y13913D02*
X45625Y13950D01*
X45570Y13968*
X45515*
X45459Y13950*
X45441Y13913*
X45459Y13876*
X45496Y13858*
X45588Y13839*
X45625Y13821*
X45644Y13784*
Y13765*
X45625Y13728*
X45570Y13710*
X45515*
X45459Y13728*
X45441Y13765*
X46013Y14097D02*
Y13710D01*
Y13894D02*
X46068Y13950D01*
X46105Y13968*
X46160*
X46197Y13950*
X46216Y13894*
Y13710*
X46566Y13968D02*
Y13710D01*
Y13913D02*
X46529Y13950D01*
X46492Y13968*
X46437*
X46400Y13950*
X46363Y13913*
X46345Y13858*
Y13821*
X46363Y13765*
X46400Y13728*
X46437Y13710*
X46492*
X46529Y13728*
X46566Y13765*
X46677Y13968D02*
X46788Y13710D01*
X46898Y13968*
X46991Y13858D02*
X47212D01*
Y13894*
X47194Y13931*
X47175Y13950*
X47138Y13968*
X47083*
X47046Y13950*
X47009Y13913*
X46991Y13858*
Y13821*
X47009Y13765*
X47046Y13728*
X47083Y13710*
X47138*
X47175Y13728*
X47212Y13765*
X47581Y14097D02*
Y13710D01*
Y13913D02*
X47618Y13950D01*
X47655Y13968*
X47710*
X47747Y13950*
X47784Y13913*
X47803Y13858*
Y13821*
X47784Y13765*
X47747Y13728*
X47710Y13710*
X47655*
X47618Y13728*
X47581Y13765*
X47913Y13858D02*
X48135D01*
Y13894*
X48116Y13931*
X48098Y13950*
X48061Y13968*
X48005*
X47969Y13950*
X47932Y13913*
X47913Y13858*
Y13821*
X47932Y13765*
X47969Y13728*
X48005Y13710*
X48061*
X48098Y13728*
X48135Y13765*
X48245Y13858D02*
X48467D01*
Y13894*
X48448Y13931*
X48430Y13950*
X48393Y13968*
X48338*
X48301Y13950*
X48264Y13913*
X48245Y13858*
Y13821*
X48264Y13765*
X48301Y13728*
X48338Y13710*
X48393*
X48430Y13728*
X48467Y13765*
X48596Y13968D02*
Y13710D01*
Y13894D02*
X48651Y13950D01*
X48688Y13968*
X48744*
X48780Y13950*
X48799Y13894*
Y13710*
X49260Y13968D02*
X49223Y13950D01*
X49186Y13913*
X49168Y13858*
Y13821*
X49186Y13765*
X49223Y13728*
X49260Y13710*
X49316*
X49352Y13728*
X49389Y13765*
X49408Y13821*
Y13858*
X49389Y13913*
X49352Y13950*
X49316Y13968*
X49260*
X49648Y14097D02*
X49611D01*
X49574Y14079*
X49555Y14024*
Y13710*
X49500Y13968D02*
X49629D01*
X49869Y14097D02*
X49832D01*
X49795Y14079*
X49777Y14024*
Y13710*
X49721Y13968D02*
X49851D01*
X50164Y13913D02*
X50146Y13950D01*
X50090Y13968*
X50035*
X49980Y13950*
X49961Y13913*
X49980Y13876*
X50017Y13858*
X50109Y13839*
X50146Y13821*
X50164Y13784*
Y13765*
X50146Y13728*
X50090Y13710*
X50035*
X49980Y13728*
X49961Y13765*
X50275Y13858D02*
X50496D01*
Y13894*
X50478Y13931*
X50460Y13950*
X50423Y13968*
X50367*
X50330Y13950*
X50293Y13913*
X50275Y13858*
Y13821*
X50293Y13765*
X50330Y13728*
X50367Y13710*
X50423*
X50460Y13728*
X50496Y13765*
X50644Y14097D02*
Y13784D01*
X50662Y13728*
X50699Y13710*
X50736*
X50589Y13968D02*
X50718D01*
X51179Y14097D02*
X51124Y14079D01*
X51087Y14024*
X51068Y13931*
Y13876*
X51087Y13784*
X51124Y13728*
X51179Y13710*
X51216*
X51271Y13728*
X51308Y13784*
X51327Y13876*
Y13931*
X51308Y14024*
X51271Y14079*
X51216Y14097*
X51179*
X51308Y14024D02*
X51087Y13784D01*
X51474Y13747D02*
X51456Y13728D01*
X51474Y13710*
X51493Y13728*
X51474Y13747*
X51677Y14024D02*
X51714Y14042D01*
X51770Y14097*
Y13710*
X52009Y14005D02*
Y14024D01*
X52028Y14061*
X52046Y14079*
X52083Y14097*
X52157*
X52194Y14079*
X52212Y14061*
X52231Y14024*
Y13987*
X52212Y13950*
X52175Y13894*
X51991Y13710*
X52249*
X52581Y14097D02*
X52397D01*
X52378Y13931*
X52397Y13950*
X52452Y13968*
X52508*
X52563Y13950*
X52600Y13913*
X52618Y13858*
Y13821*
X52600Y13765*
X52563Y13728*
X52508Y13710*
X52452*
X52397Y13728*
X52378Y13747*
X52360Y13784*
X52987Y13968D02*
Y13710D01*
Y13894D02*
X53043Y13950D01*
X53080Y13968*
X53135*
X53172Y13950*
X53190Y13894*
Y13710*
Y13894D02*
X53246Y13950D01*
X53283Y13968*
X53338*
X53375Y13950*
X53393Y13894*
Y13710*
X53541Y13968D02*
Y13710D01*
Y13894D02*
X53596Y13950D01*
X53633Y13968*
X53688*
X53725Y13950*
X53744Y13894*
Y13710*
Y13894D02*
X53799Y13950D01*
X53836Y13968*
X53891*
X53928Y13950*
X53947Y13894*
Y13710*
X54353Y14097D02*
Y13784D01*
X54371Y13728*
X54408Y13710*
X54445*
X54297Y13968D02*
X54427D01*
X54629D02*
X54593Y13950D01*
X54556Y13913*
X54537Y13858*
Y13821*
X54556Y13765*
X54593Y13728*
X54629Y13710*
X54685*
X54722Y13728*
X54759Y13765*
X54777Y13821*
Y13858*
X54759Y13913*
X54722Y13950*
X54685Y13968*
X54629*
X55349Y13913D02*
X55312Y13950D01*
X55275Y13968*
X55220*
X55183Y13950*
X55146Y13913*
X55128Y13858*
Y13821*
X55146Y13765*
X55183Y13728*
X55220Y13710*
X55275*
X55312Y13728*
X55349Y13765*
X55552Y13968D02*
X55515Y13950D01*
X55478Y13913*
X55460Y13858*
Y13821*
X55478Y13765*
X55515Y13728*
X55552Y13710*
X55607*
X55644Y13728*
X55681Y13765*
X55700Y13821*
Y13858*
X55681Y13913*
X55644Y13950*
X55607Y13968*
X55552*
X55829D02*
Y13710D01*
Y13894D02*
X55884Y13950D01*
X55921Y13968*
X55976*
X56013Y13950*
X56032Y13894*
Y13710*
Y13894D02*
X56087Y13950D01*
X56124Y13968*
X56179*
X56216Y13950*
X56235Y13894*
Y13710*
X56382Y13968D02*
Y13581D01*
Y13913D02*
X56419Y13950D01*
X56456Y13968*
X56512*
X56548Y13950*
X56585Y13913*
X56604Y13858*
Y13821*
X56585Y13765*
X56548Y13728*
X56512Y13710*
X56456*
X56419Y13728*
X56382Y13765*
X56714Y13858D02*
X56936D01*
Y13894*
X56917Y13931*
X56899Y13950*
X56862Y13968*
X56807*
X56770Y13950*
X56733Y13913*
X56714Y13858*
Y13821*
X56733Y13765*
X56770Y13728*
X56807Y13710*
X56862*
X56899Y13728*
X56936Y13765*
X57065Y13968D02*
Y13710D01*
Y13894D02*
X57120Y13950D01*
X57157Y13968*
X57213*
X57250Y13950*
X57268Y13894*
Y13710*
X57600Y13913D02*
X57582Y13950D01*
X57526Y13968*
X57471*
X57416Y13950*
X57397Y13913*
X57416Y13876*
X57453Y13858*
X57545Y13839*
X57582Y13821*
X57600Y13784*
Y13765*
X57582Y13728*
X57526Y13710*
X57471*
X57416Y13728*
X57397Y13765*
X57932Y13968D02*
Y13710D01*
Y13913D02*
X57895Y13950D01*
X57858Y13968*
X57803*
X57766Y13950*
X57729Y13913*
X57711Y13858*
Y13821*
X57729Y13765*
X57766Y13728*
X57803Y13710*
X57858*
X57895Y13728*
X57932Y13765*
X58098Y14097D02*
Y13784D01*
X58117Y13728*
X58154Y13710*
X58191*
X58043Y13968D02*
X58172D01*
X58283Y13858D02*
X58504D01*
Y13894*
X58486Y13931*
X58467Y13950*
X58430Y13968*
X58375*
X58338Y13950*
X58301Y13913*
X58283Y13858*
Y13821*
X58301Y13765*
X58338Y13728*
X58375Y13710*
X58430*
X58467Y13728*
X58504Y13765*
X58984Y14097D02*
X58947D01*
X58910Y14079*
X58892Y14024*
Y13710*
X58836Y13968D02*
X58966D01*
X59169D02*
X59132Y13950D01*
X59095Y13913*
X59076Y13858*
Y13821*
X59095Y13765*
X59132Y13728*
X59169Y13710*
X59224*
X59261Y13728*
X59298Y13765*
X59316Y13821*
Y13858*
X59298Y13913*
X59261Y13950*
X59224Y13968*
X59169*
X59445D02*
Y13710D01*
Y13858D02*
X59464Y13913D01*
X59501Y13950*
X59538Y13968*
X59593*
X59925Y14097D02*
Y13710D01*
X60110Y13968D02*
X59925Y13784D01*
X59999Y13858D02*
X60128Y13710D01*
X60220Y13858D02*
X60442D01*
Y13894*
X60423Y13931*
X60405Y13950*
X60368Y13968*
X60312*
X60276Y13950*
X60239Y13913*
X60220Y13858*
Y13821*
X60239Y13765*
X60276Y13728*
X60312Y13710*
X60368*
X60405Y13728*
X60442Y13765*
X60571Y13968D02*
Y13710D01*
Y13858D02*
X60589Y13913D01*
X60626Y13950*
X60663Y13968*
X60718*
X60921Y14097D02*
X60884D01*
X60848Y14079*
X60829Y14024*
Y13710*
X60774Y13968D02*
X60903D01*
X61051Y13747D02*
X61032Y13728D01*
X61051Y13710*
X61069Y13728*
X61051Y13747*
X43577Y12235D02*
Y12622D01*
X43430Y12235*
X43282Y12622*
Y12235*
X43928Y12493D02*
Y12235D01*
Y12438D02*
X43891Y12475D01*
X43854Y12493*
X43799*
X43762Y12475*
X43725Y12438*
X43706Y12383*
Y12346*
X43725Y12290*
X43762Y12253*
X43799Y12235*
X43854*
X43891Y12253*
X43928Y12290*
X44094Y12622D02*
Y12309D01*
X44112Y12253*
X44149Y12235*
X44186*
X44038Y12493D02*
X44168D01*
X44278Y12383D02*
X44500D01*
Y12419*
X44481Y12456*
X44463Y12475*
X44426Y12493*
X44371*
X44334Y12475*
X44297Y12438*
X44278Y12383*
Y12346*
X44297Y12290*
X44334Y12253*
X44371Y12235*
X44426*
X44463Y12253*
X44500Y12290*
X44629Y12493D02*
Y12235D01*
Y12383D02*
X44647Y12438D01*
X44684Y12475*
X44721Y12493*
X44777*
X45072D02*
Y12235D01*
Y12438D02*
X45035Y12475D01*
X44998Y12493*
X44943*
X44906Y12475*
X44869Y12438*
X44850Y12383*
Y12346*
X44869Y12290*
X44906Y12253*
X44943Y12235*
X44998*
X45035Y12253*
X45072Y12290*
X45219Y12622D02*
Y12235D01*
X45385Y12493D02*
X45367Y12475D01*
X45385Y12456*
X45404Y12475*
X45385Y12493*
Y12272D02*
X45367Y12253D01*
X45385Y12235*
X45404Y12253*
X45385Y12272*
X45828Y12549D02*
X45865Y12567D01*
X45920Y12622*
Y12235*
X46160Y12530D02*
Y12549D01*
X46179Y12586*
X46197Y12604*
X46234Y12622*
X46308*
X46345Y12604*
X46363Y12586*
X46382Y12549*
Y12512*
X46363Y12475*
X46326Y12419*
X46142Y12235*
X46400*
X46548Y12272D02*
X46529Y12253D01*
X46548Y12235*
X46566Y12253*
X46548Y12272*
X46917Y12622D02*
X46732D01*
X46714Y12456*
X46732Y12475*
X46788Y12493*
X46843*
X46898Y12475*
X46935Y12438*
X46954Y12383*
Y12346*
X46935Y12290*
X46898Y12253*
X46843Y12235*
X46788*
X46732Y12253*
X46714Y12272*
X46695Y12309*
X47083Y12493D02*
Y12235D01*
Y12419D02*
X47138Y12475D01*
X47175Y12493*
X47231*
X47267Y12475*
X47286Y12419*
Y12235*
Y12419D02*
X47341Y12475D01*
X47378Y12493*
X47434*
X47470Y12475*
X47489Y12419*
Y12235*
X47618Y12622D02*
X47636Y12604D01*
X47655Y12622*
X47636Y12641*
X47618Y12622*
X47636Y12493D02*
Y12235D01*
X47784Y12622D02*
Y12235D01*
X48172Y12622D02*
Y12235D01*
Y12438D02*
X48208Y12475D01*
X48245Y12493*
X48301*
X48338Y12475*
X48375Y12438*
X48393Y12383*
Y12346*
X48375Y12290*
X48338Y12253*
X48301Y12235*
X48245*
X48208Y12253*
X48172Y12290*
X48522Y12622D02*
Y12235D01*
X48873Y12493D02*
Y12235D01*
Y12438D02*
X48836Y12475D01*
X48799Y12493*
X48744*
X48707Y12475*
X48670Y12438*
X48651Y12383*
Y12346*
X48670Y12290*
X48707Y12253*
X48744Y12235*
X48799*
X48836Y12253*
X48873Y12290*
X49223Y12438D02*
X49186Y12475D01*
X49149Y12493*
X49094*
X49057Y12475*
X49020Y12438*
X49002Y12383*
Y12346*
X49020Y12290*
X49057Y12253*
X49094Y12235*
X49149*
X49186Y12253*
X49223Y12290*
X49352Y12622D02*
Y12235D01*
X49537Y12493D02*
X49352Y12309D01*
X49426Y12383D02*
X49555Y12235D01*
X49906Y12493D02*
Y12106D01*
Y12438D02*
X49943Y12475D01*
X49980Y12493*
X50035*
X50072Y12475*
X50109Y12438*
X50127Y12383*
Y12346*
X50109Y12290*
X50072Y12253*
X50035Y12235*
X49980*
X49943Y12253*
X49906Y12290*
X50330Y12493D02*
X50293Y12475D01*
X50257Y12438*
X50238Y12383*
Y12346*
X50257Y12290*
X50293Y12253*
X50330Y12235*
X50386*
X50423Y12253*
X50460Y12290*
X50478Y12346*
Y12383*
X50460Y12438*
X50423Y12475*
X50386Y12493*
X50330*
X50607Y12622D02*
Y12235D01*
X50718Y12493D02*
X50829Y12235D01*
X50792Y12161*
X50755Y12124*
X50718Y12106*
X50699*
X50939Y12493D02*
X50829Y12235D01*
X51253Y12438D02*
X51216Y12475D01*
X51179Y12493*
X51124*
X51087Y12475*
X51050Y12438*
X51031Y12383*
Y12346*
X51050Y12290*
X51087Y12253*
X51124Y12235*
X51179*
X51216Y12253*
X51253Y12290*
X51585Y12493D02*
Y12235D01*
Y12438D02*
X51548Y12475D01*
X51511Y12493*
X51456*
X51419Y12475*
X51382Y12438*
X51364Y12383*
Y12346*
X51382Y12290*
X51419Y12253*
X51456Y12235*
X51511*
X51548Y12253*
X51585Y12290*
X51733Y12493D02*
Y12235D01*
Y12383D02*
X51751Y12438D01*
X51788Y12475*
X51825Y12493*
X51880*
X51973Y12622D02*
Y12235D01*
Y12438D02*
X52009Y12475D01*
X52046Y12493*
X52102*
X52139Y12475*
X52175Y12438*
X52194Y12383*
Y12346*
X52175Y12290*
X52139Y12253*
X52102Y12235*
X52046*
X52009Y12253*
X51973Y12290*
X52397Y12493D02*
X52360Y12475D01*
X52323Y12438*
X52305Y12383*
Y12346*
X52323Y12290*
X52360Y12253*
X52397Y12235*
X52452*
X52489Y12253*
X52526Y12290*
X52544Y12346*
Y12383*
X52526Y12438*
X52489Y12475*
X52452Y12493*
X52397*
X52674D02*
Y12235D01*
Y12419D02*
X52729Y12475D01*
X52766Y12493*
X52821*
X52858Y12475*
X52877Y12419*
Y12235*
X53227Y12493D02*
Y12235D01*
Y12438D02*
X53190Y12475D01*
X53153Y12493*
X53098*
X53061Y12475*
X53024Y12438*
X53006Y12383*
Y12346*
X53024Y12290*
X53061Y12253*
X53098Y12235*
X53153*
X53190Y12253*
X53227Y12290*
X53393Y12622D02*
Y12309D01*
X53412Y12253*
X53449Y12235*
X53486*
X53338Y12493D02*
X53467D01*
X53578Y12383D02*
X53799D01*
Y12419*
X53781Y12456*
X53762Y12475*
X53725Y12493*
X53670*
X53633Y12475*
X53596Y12438*
X53578Y12383*
Y12346*
X53596Y12290*
X53633Y12253*
X53670Y12235*
X53725*
X53762Y12253*
X53799Y12290*
X54353Y12438D02*
X54334Y12475D01*
X54279Y12493*
X54224*
X54168Y12475*
X54150Y12438*
X54168Y12401*
X54205Y12383*
X54297Y12364*
X54334Y12346*
X54353Y12309*
Y12290*
X54334Y12253*
X54279Y12235*
X54224*
X54168Y12253*
X54150Y12290*
X54482Y12622D02*
Y12235D01*
Y12419D02*
X54537Y12475D01*
X54574Y12493*
X54629*
X54666Y12475*
X54685Y12419*
Y12235*
X54814Y12622D02*
X54832Y12604D01*
X54851Y12622*
X54832Y12641*
X54814Y12622*
X54832Y12493D02*
Y12235D01*
X54980Y12493D02*
Y12235D01*
Y12419D02*
X55035Y12475D01*
X55072Y12493*
X55128*
X55165Y12475*
X55183Y12419*
Y12235*
Y12419D02*
X55238Y12475D01*
X55275Y12493*
X55331*
X55368Y12475*
X55386Y12419*
Y12235*
X55958Y12438D02*
X55940Y12475D01*
X55884Y12493*
X55829*
X55773Y12475*
X55755Y12438*
X55773Y12401*
X55810Y12383*
X55903Y12364*
X55940Y12346*
X55958Y12309*
Y12290*
X55940Y12253*
X55884Y12235*
X55829*
X55773Y12253*
X55755Y12290*
X56106Y12622D02*
Y12309D01*
X56124Y12253*
X56161Y12235*
X56198*
X56050Y12493D02*
X56179D01*
X56382D02*
X56345Y12475D01*
X56309Y12438*
X56290Y12383*
Y12346*
X56309Y12290*
X56345Y12253*
X56382Y12235*
X56438*
X56475Y12253*
X56512Y12290*
X56530Y12346*
Y12383*
X56512Y12438*
X56475Y12475*
X56438Y12493*
X56382*
X56862Y12438D02*
X56825Y12475D01*
X56788Y12493*
X56733*
X56696Y12475*
X56659Y12438*
X56641Y12383*
Y12346*
X56659Y12290*
X56696Y12253*
X56733Y12235*
X56788*
X56825Y12253*
X56862Y12290*
X56991Y12622D02*
Y12235D01*
X57176Y12493D02*
X56991Y12309D01*
X57065Y12383D02*
X57194Y12235D01*
X57674Y12696D02*
X57637Y12659D01*
X57600Y12604*
X57563Y12530*
X57545Y12438*
Y12364*
X57563Y12272*
X57600Y12198*
X57637Y12143*
X57674Y12106*
X58006Y12622D02*
Y12235D01*
Y12438D02*
X57969Y12475D01*
X57932Y12493*
X57877*
X57840Y12475*
X57803Y12438*
X57785Y12383*
Y12346*
X57803Y12290*
X57840Y12253*
X57877Y12235*
X57932*
X57969Y12253*
X58006Y12290*
X58154Y12493D02*
Y12235D01*
Y12383D02*
X58172Y12438D01*
X58209Y12475*
X58246Y12493*
X58301*
X58467D02*
X58430Y12475D01*
X58394Y12438*
X58375Y12383*
Y12346*
X58394Y12290*
X58430Y12253*
X58467Y12235*
X58523*
X58560Y12253*
X58597Y12290*
X58615Y12346*
Y12383*
X58597Y12438*
X58560Y12475*
X58523Y12493*
X58467*
X58744D02*
Y12106D01*
Y12438D02*
X58781Y12475D01*
X58818Y12493*
X58873*
X58910Y12475*
X58947Y12438*
X58966Y12383*
Y12346*
X58947Y12290*
X58910Y12253*
X58873Y12235*
X58818*
X58781Y12253*
X58744Y12290*
X59095Y12401D02*
X59427D01*
X59759Y12438D02*
X59740Y12475D01*
X59685Y12493*
X59630*
X59574Y12475*
X59556Y12438*
X59574Y12401*
X59611Y12383*
X59704Y12364*
X59740Y12346*
X59759Y12309*
Y12290*
X59740Y12253*
X59685Y12235*
X59630*
X59574Y12253*
X59556Y12290*
X59888Y12622D02*
Y12235D01*
Y12419D02*
X59943Y12475D01*
X59980Y12493*
X60036*
X60073Y12475*
X60091Y12419*
Y12235*
X60220Y12622D02*
X60239Y12604D01*
X60257Y12622*
X60239Y12641*
X60220Y12622*
X60239Y12493D02*
Y12235D01*
X60386Y12493D02*
Y12106D01*
Y12438D02*
X60423Y12475D01*
X60460Y12493*
X60515*
X60552Y12475*
X60589Y12438*
X60608Y12383*
Y12346*
X60589Y12290*
X60552Y12253*
X60515Y12235*
X60460*
X60423Y12253*
X60386Y12290*
X60737Y12493D02*
Y12106D01*
Y12438D02*
X60774Y12475D01*
X60811Y12493*
X60866*
X60903Y12475*
X60940Y12438*
X60958Y12383*
Y12346*
X60940Y12290*
X60903Y12253*
X60866Y12235*
X60811*
X60774Y12253*
X60737Y12290*
X61069Y12383D02*
X61290D01*
Y12419*
X61272Y12456*
X61254Y12475*
X61217Y12493*
X61161*
X61124Y12475*
X61087Y12438*
X61069Y12383*
Y12346*
X61087Y12290*
X61124Y12253*
X61161Y12235*
X61217*
X61254Y12253*
X61290Y12290*
X61623Y12622D02*
Y12235D01*
Y12438D02*
X61586Y12475D01*
X61549Y12493*
X61493*
X61456Y12475*
X61420Y12438*
X61401Y12383*
Y12346*
X61420Y12290*
X61456Y12253*
X61493Y12235*
X61549*
X61586Y12253*
X61623Y12290*
X62121Y12622D02*
X62084D01*
X62047Y12604*
X62028Y12549*
Y12235*
X61973Y12493D02*
X62102D01*
X62231D02*
Y12235D01*
Y12383D02*
X62250Y12438D01*
X62287Y12475*
X62324Y12493*
X62379*
X62545D02*
X62508Y12475D01*
X62471Y12438*
X62453Y12383*
Y12346*
X62471Y12290*
X62508Y12253*
X62545Y12235*
X62600*
X62637Y12253*
X62674Y12290*
X62693Y12346*
Y12383*
X62674Y12438*
X62637Y12475*
X62600Y12493*
X62545*
X62822D02*
Y12235D01*
Y12419D02*
X62877Y12475D01*
X62914Y12493*
X62969*
X63006Y12475*
X63025Y12419*
Y12235*
Y12419D02*
X63080Y12475D01*
X63117Y12493*
X63172*
X63209Y12475*
X63228Y12419*
Y12235*
X63910D02*
Y12622D01*
X63763Y12235*
X63615Y12622*
Y12235*
X64261Y12438D02*
X64224Y12475D01*
X64187Y12493*
X64132*
X64095Y12475*
X64058Y12438*
X64040Y12383*
Y12346*
X64058Y12290*
X64095Y12253*
X64132Y12235*
X64187*
X64224Y12253*
X64261Y12290*
X64685Y12235D02*
Y12622D01*
X64538Y12235*
X64390Y12622*
Y12235*
X65036Y12493D02*
Y12235D01*
Y12438D02*
X64999Y12475D01*
X64962Y12493*
X64907*
X64870Y12475*
X64833Y12438*
X64815Y12383*
Y12346*
X64833Y12290*
X64870Y12253*
X64907Y12235*
X64962*
X64999Y12253*
X65036Y12290*
X65368Y12438D02*
X65350Y12475D01*
X65294Y12493*
X65239*
X65184Y12475*
X65165Y12438*
X65184Y12401*
X65221Y12383*
X65313Y12364*
X65350Y12346*
X65368Y12309*
Y12290*
X65350Y12253*
X65294Y12235*
X65239*
X65184Y12253*
X65165Y12290*
X65516Y12622D02*
Y12309D01*
X65534Y12253*
X65571Y12235*
X65608*
X65460Y12493D02*
X65590D01*
X65700Y12383D02*
X65922D01*
Y12419*
X65903Y12456*
X65885Y12475*
X65848Y12493*
X65793*
X65756Y12475*
X65719Y12438*
X65700Y12383*
Y12346*
X65719Y12290*
X65756Y12253*
X65793Y12235*
X65848*
X65885Y12253*
X65922Y12290*
X66051Y12493D02*
Y12235D01*
Y12383D02*
X66069Y12438D01*
X66106Y12475*
X66143Y12493*
X66198*
X66789Y12530D02*
X66770Y12567D01*
X66734Y12604*
X66697Y12622*
X66623*
X66586Y12604*
X66549Y12567*
X66531Y12530*
X66512Y12475*
Y12383*
X66531Y12327*
X66549Y12290*
X66586Y12253*
X66623Y12235*
X66697*
X66734Y12253*
X66770Y12290*
X66789Y12327*
X67121Y12493D02*
Y12235D01*
Y12438D02*
X67084Y12475D01*
X67047Y12493*
X66992*
X66955Y12475*
X66918Y12438*
X66900Y12383*
Y12346*
X66918Y12290*
X66955Y12253*
X66992Y12235*
X67047*
X67084Y12253*
X67121Y12290*
X67269Y12493D02*
Y12235D01*
Y12383D02*
X67287Y12438D01*
X67324Y12475*
X67361Y12493*
X67416*
X67508D02*
Y12235D01*
Y12383D02*
X67527Y12438D01*
X67564Y12475*
X67601Y12493*
X67656*
X67730Y12696D02*
X67767Y12659D01*
X67804Y12604*
X67841Y12530*
X67859Y12438*
Y12364*
X67841Y12272*
X67804Y12198*
X67767Y12143*
X67730Y12106*
G54D17*
X34448Y21189D02*
X30448D01*
G54D10*
X33271Y20999D02*
X33283D01*
X33271Y21001D02*
X33295D01*
X33271Y21003D02*
X33306D01*
X33271Y21005D02*
X33318D01*
X33271Y21007D02*
X33330D01*
X33271Y21009D02*
X33342D01*
X33271Y21010D02*
X33354D01*
X33271Y21012D02*
X33365D01*
X33271Y21014D02*
X33377D01*
X33271Y21016D02*
X33389D01*
X33271Y21018D02*
X33401D01*
X33271Y21020D02*
X33412D01*
X33271Y21022D02*
X33424D01*
X33271Y21024D02*
X33436D01*
X33271Y21026D02*
X33448D01*
X33271Y21028D02*
X33459D01*
X33271Y21030D02*
X33471D01*
X33271Y21032D02*
X33483D01*
X33271Y21034D02*
X33495D01*
X33271Y21036D02*
X33506D01*
X33271Y21038D02*
X33518D01*
X33271Y21040D02*
X33530D01*
X33271Y21042D02*
X33542D01*
X33271Y21044D02*
X33553D01*
X33271Y21046D02*
X33565D01*
X33271Y21048D02*
X33577D01*
X33271Y21050D02*
X33589D01*
X33271Y21052D02*
X33601D01*
X33271Y21054D02*
X33612D01*
X33271Y21056D02*
X33624D01*
X33271Y21058D02*
X33636D01*
X33271Y21059D02*
X33648D01*
X33271Y21061D02*
X33659D01*
X33271Y21063D02*
X33671D01*
X33271Y21065D02*
X33683D01*
X33271Y21067D02*
X33695D01*
X33271Y21069D02*
X33706D01*
X33271Y21071D02*
X33718D01*
X33271Y21073D02*
X33730D01*
X33271Y21075D02*
X33742D01*
X33271Y21077D02*
X33753D01*
X33271Y21079D02*
X33765D01*
X33271Y21081D02*
X33777D01*
X33271Y21083D02*
X33789D01*
X33271Y21085D02*
X33801D01*
X33271Y21087D02*
X33812D01*
X33271Y21089D02*
X33824D01*
X33271Y21091D02*
X33836D01*
X33271Y21093D02*
X33848D01*
X33271Y21095D02*
X33859D01*
X33271Y21097D02*
X33871D01*
X33271Y21099D02*
X33883D01*
X33271Y21101D02*
X33895D01*
X33271Y21103D02*
X33906D01*
X33271Y21105D02*
X33918D01*
X33271Y21107D02*
X33930D01*
X33271Y21109D02*
X33942D01*
X33271Y21110D02*
X33953D01*
X33271Y21112D02*
X33965D01*
X33271Y21114D02*
X33977D01*
X33271Y21116D02*
X33989D01*
X33271Y21118D02*
X34001D01*
X33271Y21120D02*
X34012D01*
X33271Y21122D02*
X34024D01*
X33271Y21124D02*
X34036D01*
X33271Y21126D02*
X34048D01*
X33271Y21128D02*
X34059D01*
X33271Y21130D02*
X34071D01*
X33271Y21132D02*
X34083D01*
X33271Y21134D02*
X34095D01*
X33271Y21136D02*
X34106D01*
X33271Y21138D02*
X34118D01*
X33271Y21140D02*
X34130D01*
X33271Y21142D02*
X34142D01*
X33271Y21144D02*
X34153D01*
X33271Y21146D02*
X34165D01*
X33271Y21148D02*
X34177D01*
X33271Y21150D02*
X34189D01*
X33271Y21152D02*
X34200D01*
X33271Y21154D02*
X34212D01*
X33271Y21156D02*
X34224D01*
X33271Y21158D02*
X34236D01*
X33271Y21159D02*
X34248D01*
X33271Y21161D02*
X34259D01*
X33271Y21163D02*
X34271D01*
X33271Y21165D02*
X34283D01*
X33271Y21167D02*
X34295D01*
X33271Y21169D02*
X34306D01*
X33271Y21171D02*
X34318D01*
X33271Y21173D02*
X34330D01*
X33271Y21175D02*
X34342D01*
X33271Y21177D02*
X34353D01*
X33271Y21179D02*
X34365D01*
X33271Y21181D02*
X34377D01*
X33271Y21183D02*
X34389D01*
X33271Y21185D02*
X34400D01*
X33271Y21187D02*
X34412D01*
X33271Y21189D02*
X34424D01*
X33271Y21191D02*
X34413D01*
X33271Y21193D02*
X34401D01*
X33271Y21195D02*
X34389D01*
X33271Y21197D02*
X34378D01*
X33271Y21199D02*
X34366D01*
X33271Y21201D02*
X34354D01*
X33271Y21203D02*
X34342D01*
X33271Y21205D02*
X34331D01*
X33271Y21207D02*
X34319D01*
X33271Y21209D02*
X34307D01*
X33271Y21210D02*
X34295D01*
X33271Y21212D02*
X34284D01*
X33271Y21214D02*
X34272D01*
X33271Y21216D02*
X34260D01*
X33271Y21218D02*
X34248D01*
X33271Y21220D02*
X34237D01*
X33271Y21222D02*
X34225D01*
X33271Y21224D02*
X34213D01*
X33271Y21226D02*
X34201D01*
X33271Y21228D02*
X34189D01*
X33271Y21230D02*
X34178D01*
X33271Y21232D02*
X34166D01*
X33271Y21234D02*
X34154D01*
X33271Y21236D02*
X34142D01*
X33271Y21238D02*
X34131D01*
X33271Y21240D02*
X34119D01*
X33271Y21242D02*
X34107D01*
X33271Y21244D02*
X34095D01*
X33271Y21246D02*
X34084D01*
X33271Y21248D02*
X34072D01*
X33271Y21250D02*
X34060D01*
X33271Y21252D02*
X34048D01*
X33271Y21254D02*
X34037D01*
X33271Y21256D02*
X34025D01*
X33271Y21258D02*
X34013D01*
X33271Y21259D02*
X34001D01*
X33271Y21261D02*
X33990D01*
X33271Y21263D02*
X33978D01*
X33271Y21265D02*
X33966D01*
X33271Y21267D02*
X33954D01*
X33271Y21269D02*
X33942D01*
X33271Y21271D02*
X33931D01*
X33271Y21273D02*
X33919D01*
X33271Y21275D02*
X33907D01*
X33271Y21277D02*
X33895D01*
X33271Y21279D02*
X33884D01*
X33271Y21281D02*
X33872D01*
X33271Y21283D02*
X33860D01*
X33271Y21285D02*
X33848D01*
X33271Y21287D02*
X33837D01*
X33271Y21289D02*
X33825D01*
X33271Y21291D02*
X33813D01*
X33271Y21293D02*
X33801D01*
X33271Y21295D02*
X33790D01*
X33271Y21297D02*
X33778D01*
X33271Y21299D02*
X33766D01*
X33271Y21301D02*
X33754D01*
X33271Y21303D02*
X33742D01*
X33271Y21305D02*
X33731D01*
X33271Y21307D02*
X33719D01*
X33271Y21308D02*
X33707D01*
X33271Y21310D02*
X33695D01*
X33271Y21312D02*
X33684D01*
X33271Y21314D02*
X33672D01*
X33271Y21316D02*
X33660D01*
X33271Y21318D02*
X33648D01*
X33271Y21320D02*
X33637D01*
X33271Y21322D02*
X33625D01*
X33271Y21324D02*
X33613D01*
X33271Y21326D02*
X33601D01*
X33271Y21328D02*
X33590D01*
X33271Y21330D02*
X33578D01*
X33271Y21332D02*
X33566D01*
X33271Y21334D02*
X33554D01*
X33271Y21336D02*
X33542D01*
X33271Y21338D02*
X33531D01*
X33271Y21340D02*
X33519D01*
X33271Y21342D02*
X33507D01*
X33271Y21344D02*
X33495D01*
X33271Y21346D02*
X33484D01*
X33271Y21348D02*
X33472D01*
X33271Y21350D02*
X33460D01*
X33271Y21352D02*
X33448D01*
X33271Y21354D02*
X33437D01*
X33271Y21356D02*
X33425D01*
X33271Y21358D02*
X33413D01*
X33271Y21359D02*
X33401D01*
X33271Y21361D02*
X33390D01*
X33271Y21363D02*
X33378D01*
X33271Y21365D02*
X33366D01*
X33271Y21367D02*
X33354D01*
X33271Y21369D02*
X33342D01*
X33271Y21371D02*
X33331D01*
X33271Y21373D02*
X33319D01*
X33271Y21375D02*
X33307D01*
X33271Y21377D02*
X33295D01*
X33271Y21379D02*
X33284D01*
X33271Y21381D02*
X33272D01*
X33269Y21383D02*
Y20994D01*
X34436Y21189*
X33269Y21383*
G54D17*
X38385Y21189D02*
X42385D01*
G54D10*
X39551Y20999D02*
X39562D01*
X39539Y21001D02*
X39562D01*
X39527Y21003D02*
X39562D01*
X39515Y21005D02*
X39562D01*
X39504Y21007D02*
X39562D01*
X39492Y21009D02*
X39562D01*
X39480Y21010D02*
X39562D01*
X39468Y21012D02*
X39562D01*
X39457Y21014D02*
X39562D01*
X39445Y21016D02*
X39562D01*
X39433Y21018D02*
X39562D01*
X39421Y21020D02*
X39562D01*
X39410Y21022D02*
X39562D01*
X39398Y21024D02*
X39562D01*
X39386Y21026D02*
X39562D01*
X39374Y21028D02*
X39562D01*
X39363Y21030D02*
X39562D01*
X39351Y21032D02*
X39562D01*
X39339Y21034D02*
X39562D01*
X39327Y21036D02*
X39562D01*
X39315Y21038D02*
X39562D01*
X39304Y21040D02*
X39562D01*
X39292Y21042D02*
X39562D01*
X39280Y21044D02*
X39562D01*
X39268Y21046D02*
X39562D01*
X39257Y21048D02*
X39562D01*
X39245Y21050D02*
X39562D01*
X39233Y21052D02*
X39562D01*
X39221Y21054D02*
X39562D01*
X39210Y21056D02*
X39562D01*
X39198Y21058D02*
X39562D01*
X39186Y21059D02*
X39562D01*
X39174Y21061D02*
X39562D01*
X39163Y21063D02*
X39562D01*
X39151Y21065D02*
X39562D01*
X39139Y21067D02*
X39562D01*
X39127Y21069D02*
X39562D01*
X39115Y21071D02*
X39562D01*
X39104Y21073D02*
X39562D01*
X39092Y21075D02*
X39562D01*
X39080Y21077D02*
X39562D01*
X39068Y21079D02*
X39562D01*
X39057Y21081D02*
X39562D01*
X39045Y21083D02*
X39562D01*
X39033Y21085D02*
X39562D01*
X39021Y21087D02*
X39562D01*
X39010Y21089D02*
X39562D01*
X38998Y21091D02*
X39562D01*
X38986Y21093D02*
X39562D01*
X38974Y21095D02*
X39562D01*
X38963Y21097D02*
X39562D01*
X38951Y21099D02*
X39562D01*
X38939Y21101D02*
X39562D01*
X38927Y21103D02*
X39562D01*
X38915Y21105D02*
X39562D01*
X38904Y21107D02*
X39562D01*
X38892Y21109D02*
X39562D01*
X38880Y21110D02*
X39562D01*
X38868Y21112D02*
X39562D01*
X38857Y21114D02*
X39562D01*
X38845Y21116D02*
X39562D01*
X38833Y21118D02*
X39562D01*
X38821Y21120D02*
X39562D01*
X38810Y21122D02*
X39562D01*
X38798Y21124D02*
X39562D01*
X38786Y21126D02*
X39562D01*
X38774Y21128D02*
X39562D01*
X38763Y21130D02*
X39562D01*
X38751Y21132D02*
X39562D01*
X38739Y21134D02*
X39562D01*
X38727Y21136D02*
X39562D01*
X38716Y21138D02*
X39562D01*
X38704Y21140D02*
X39562D01*
X38692Y21142D02*
X39562D01*
X38680Y21144D02*
X39562D01*
X38668Y21146D02*
X39562D01*
X38657Y21148D02*
X39562D01*
X38645Y21150D02*
X39562D01*
X38633Y21152D02*
X39562D01*
X38621Y21154D02*
X39562D01*
X38610Y21156D02*
X39562D01*
X38598Y21158D02*
X39562D01*
X38586Y21159D02*
X39562D01*
X38574Y21161D02*
X39562D01*
X38563Y21163D02*
X39562D01*
X38551Y21165D02*
X39562D01*
X38539Y21167D02*
X39562D01*
X38527Y21169D02*
X39562D01*
X38516Y21171D02*
X39562D01*
X38504Y21173D02*
X39562D01*
X38492Y21175D02*
X39562D01*
X38480Y21177D02*
X39562D01*
X38468Y21179D02*
X39562D01*
X38457Y21181D02*
X39562D01*
X38445Y21183D02*
X39562D01*
X38433Y21185D02*
X39562D01*
X38421Y21187D02*
X39562D01*
X38410Y21189D02*
X39562D01*
X38421Y21191D02*
X39562D01*
X38432Y21193D02*
X39562D01*
X38444Y21195D02*
X39562D01*
X38456Y21197D02*
X39562D01*
X38468Y21199D02*
X39562D01*
X38479Y21201D02*
X39562D01*
X38491Y21203D02*
X39562D01*
X38503Y21205D02*
X39562D01*
X38515Y21207D02*
X39562D01*
X38527Y21209D02*
X39562D01*
X38538Y21210D02*
X39562D01*
X38550Y21212D02*
X39562D01*
X38562Y21214D02*
X39562D01*
X38574Y21216D02*
X39562D01*
X38585Y21218D02*
X39562D01*
X38597Y21220D02*
X39562D01*
X38609Y21222D02*
X39562D01*
X38621Y21224D02*
X39562D01*
X38632Y21226D02*
X39562D01*
X38644Y21228D02*
X39562D01*
X38656Y21230D02*
X39562D01*
X38668Y21232D02*
X39562D01*
X38679Y21234D02*
X39562D01*
X38691Y21236D02*
X39562D01*
X38703Y21238D02*
X39562D01*
X38715Y21240D02*
X39562D01*
X38727Y21242D02*
X39562D01*
X38738Y21244D02*
X39562D01*
X38750Y21246D02*
X39562D01*
X38762Y21248D02*
X39562D01*
X38774Y21250D02*
X39562D01*
X38785Y21252D02*
X39562D01*
X38797Y21254D02*
X39562D01*
X38809Y21256D02*
X39562D01*
X38821Y21258D02*
X39562D01*
X38832Y21259D02*
X39562D01*
X38844Y21261D02*
X39562D01*
X38856Y21263D02*
X39562D01*
X38868Y21265D02*
X39562D01*
X38879Y21267D02*
X39562D01*
X38891Y21269D02*
X39562D01*
X38903Y21271D02*
X39562D01*
X38915Y21273D02*
X39562D01*
X38926Y21275D02*
X39562D01*
X38938Y21277D02*
X39562D01*
X38950Y21279D02*
X39562D01*
X38962Y21281D02*
X39562D01*
X38974Y21283D02*
X39562D01*
X38985Y21285D02*
X39562D01*
X38997Y21287D02*
X39562D01*
X39009Y21289D02*
X39562D01*
X39021Y21291D02*
X39562D01*
X39032Y21293D02*
X39562D01*
X39044Y21295D02*
X39562D01*
X39056Y21297D02*
X39562D01*
X39068Y21299D02*
X39562D01*
X39079Y21301D02*
X39562D01*
X39091Y21303D02*
X39562D01*
X39103Y21305D02*
X39562D01*
X39115Y21307D02*
X39562D01*
X39126Y21308D02*
X39562D01*
X39138Y21310D02*
X39562D01*
X39150Y21312D02*
X39562D01*
X39162Y21314D02*
X39562D01*
X39174Y21316D02*
X39562D01*
X39185Y21318D02*
X39562D01*
X39197Y21320D02*
X39562D01*
X39209Y21322D02*
X39562D01*
X39221Y21324D02*
X39562D01*
X39232Y21326D02*
X39562D01*
X39244Y21328D02*
X39562D01*
X39256Y21330D02*
X39562D01*
X39268Y21332D02*
X39562D01*
X39279Y21334D02*
X39562D01*
X39291Y21336D02*
X39562D01*
X39303Y21338D02*
X39562D01*
X39315Y21340D02*
X39562D01*
X39326Y21342D02*
X39562D01*
X39338Y21344D02*
X39562D01*
X39350Y21346D02*
X39562D01*
X39362Y21348D02*
X39562D01*
X39374Y21350D02*
X39562D01*
X39385Y21352D02*
X39562D01*
X39397Y21354D02*
X39562D01*
X39409Y21356D02*
X39562D01*
X39421Y21358D02*
X39562D01*
X39432Y21359D02*
X39562D01*
X39444Y21361D02*
X39562D01*
X39456Y21363D02*
X39562D01*
X39468Y21365D02*
X39562D01*
X39479Y21367D02*
X39562D01*
X39491Y21369D02*
X39562D01*
X39503Y21371D02*
X39562D01*
X39515Y21373D02*
X39562D01*
X39526Y21375D02*
X39562D01*
X39538Y21377D02*
X39562D01*
X39550Y21379D02*
X39562D01*
Y21381D03*
X39564Y21383D02*
X38397Y21189D01*
X39564Y20994*
Y21383*
G54D17*
X34448Y20481D02*
Y21484D01*
X38385Y16544D02*
Y21484D01*
G54D19*
X35601Y21294D02*
X35638Y21313D01*
X35694Y21369*
Y20978*
X36029Y21369D02*
X35973Y21350D01*
X35936Y21294*
X35917Y21201*
Y21146*
X35936Y21053*
X35973Y20997*
X36029Y20978*
X36066*
X36122Y20997*
X36159Y21053*
X36178Y21146*
Y21201*
X36159Y21294*
X36122Y21350*
X36066Y21369*
X36029*
X36159Y21294D02*
X35936Y21053D01*
X36327Y21015D02*
X36308Y20997D01*
X36327Y20978*
X36345Y20997*
X36327Y21015*
X36587Y21369D02*
X36531Y21350D01*
X36494Y21294*
X36476Y21201*
Y21146*
X36494Y21053*
X36531Y20997*
X36587Y20978*
X36624*
X36680Y20997*
X36717Y21053*
X36736Y21146*
Y21201*
X36717Y21294*
X36680Y21350*
X36624Y21369*
X36587*
X36717Y21294D02*
X36494Y21053D01*
X36959Y21369D02*
X36903Y21350D01*
X36866Y21294*
X36848Y21201*
Y21146*
X36866Y21053*
X36903Y20997*
X36959Y20978*
X36997*
X37052Y20997*
X37090Y21053*
X37108Y21146*
Y21201*
X37090Y21294*
X37052Y21350*
X36997Y21369*
X36959*
X37090Y21294D02*
X36866Y21053D01*
X37331Y21369D02*
X37276Y21350D01*
X37238Y21294*
X37220Y21201*
Y21146*
X37238Y21053*
X37276Y20997*
X37331Y20978*
X37369*
X37424Y20997*
X37462Y21053*
X37480Y21146*
Y21201*
X37462Y21294*
X37424Y21350*
X37369Y21369*
X37331*
X37462Y21294D02*
X37238Y21053D01*
G54D13*
X28690Y31062D02*
Y32716D01*
Y31062D02*
X31643Y30265D01*
X33710*
X31633Y33513D02*
X28690Y32716D01*
X33710Y33513D02*
Y30265D01*
X31633Y33513D02*
X33710D01*
X33218Y33240D02*
X32726D01*
X33218Y32253D02*
Y33238D01*
X32726Y32253D02*
Y33238D01*
X33218Y31566D02*
X32726D01*
X33218Y30580D02*
Y31564D01*
X32726Y30580D02*
Y31564D01*
X29576Y32452D02*
X29084D01*
X29576Y31466D02*
Y32450D01*
X29084Y31466D02*
Y32450D01*
X29576Y31466D02*
X29084D01*
X33218Y30580D02*
X32726D01*
X33218Y32253D02*
X32726D01*
X37370Y33612D02*
X37469Y33609D01*
X37568Y33602*
X37666Y33591*
X37764Y33575*
X37861Y33554*
X37957Y33529*
X38052Y33499*
X38145Y33465*
X38236Y33426*
X38326Y33383*
X38413Y33336*
X38498Y33285*
X38581Y33231*
X38661Y33172*
X38738Y33110*
X38812Y33044*
X38883Y32974*
X38951Y32902*
X39015Y32826*
X39076Y32747*
X39133Y32666*
X39185Y32582*
X39234Y32496*
X39279Y32407*
X39320Y32317*
X39356Y32225*
X39388Y32131*
X39416Y32035*
X39439Y31939*
X39457Y31841*
X39471Y31743*
X39480Y31644*
X39485Y31545*
Y31446*
X39480Y31347*
X39471Y31248*
X39457Y31150*
X39439Y31052*
X39416Y30956*
X39388Y30861*
X39356Y30767*
X39320Y30674*
X39279Y30584*
X39234Y30495*
X39185Y30409*
X39133Y30325*
X39076Y30244*
X39015Y30165*
X38951Y30089*
X38883Y30017*
X38812Y29948*
X38738Y29882*
X38661Y29819*
X38581Y29761*
X38498Y29706*
X38413Y29655*
X38326Y29608*
X38236Y29565*
X38145Y29527*
X38052Y29492*
X37957Y29463*
X37861Y29437*
X37764Y29417*
X37666Y29400*
X37568Y29389*
X37469Y29382*
X37370Y29379*
X36385D02*
X36291Y29371D01*
X36200Y29347*
X36115Y29307*
X36037Y29253*
X35971Y29186*
X35917Y29109*
X35877Y29023*
X35852Y28932*
X35844Y28838*
Y28051D02*
X35852Y27957D01*
X35877Y27866*
X35917Y27780*
X35971Y27703*
X36037Y27636*
X36115Y27582*
X36200Y27542*
X36291Y27518*
X36385Y27509*
X41011D02*
X41109Y27512D01*
X41207Y27521*
X41304Y27536*
X41400Y27557*
X41494Y27583*
X41587Y27615*
X41678Y27652*
X41766Y27695*
X41851Y27744*
X41934Y27797*
X42013Y27855*
X42088Y27918*
X42160Y27985*
X42227Y28056*
X42290Y28132*
X42348Y28211*
X42401Y28293*
X42449Y28379*
X42492Y28467*
X42530Y28557*
X42562Y28650*
X42588Y28745*
X42609Y28841*
X42623Y28938*
X42632Y29035*
X42635Y29133*
Y33858D02*
X42632Y33956D01*
X42623Y34054*
X42609Y34151*
X42588Y34246*
X42562Y34341*
X42530Y34434*
X42492Y34524*
X42449Y34612*
X42401Y34698*
X42348Y34780*
X42290Y34859*
X42227Y34935*
X42160Y35006*
X42088Y35073*
X42013Y35136*
X41934Y35194*
X41851Y35248*
X41766Y35296*
X41678Y35339*
X41587Y35376*
X41494Y35408*
X41400Y35435*
X41304Y35455*
X41207Y35470*
X41109Y35479*
X41011Y35482*
X36385*
X37389Y33612D02*
X36385D01*
Y29379D02*
X37340D01*
X40992Y27509D02*
X36385D01*
Y33612D02*
X36291Y33620D01*
X36200Y33644*
X36115Y33684*
X36037Y33738*
X35971Y33805*
X35917Y33882*
X35877Y33968*
X35852Y34059*
X35844Y34153*
Y34940D02*
Y34153D01*
Y28838D02*
Y28061D01*
X42635Y29133D02*
Y33858D01*
X36385Y35482D02*
X36291Y35474D01*
X36200Y35449*
X36115Y35409*
X36037Y35355*
X35971Y35288*
X35917Y35211*
X35877Y35126*
X35852Y35034*
X35844Y34940*
X41454Y32059D02*
X40962D01*
X41454Y31072D02*
Y32057D01*
X40962Y31072D02*
Y32057D01*
X36828Y35110D02*
X36336D01*
X36828Y34124D02*
Y35108D01*
X36336Y34124D02*
Y35108D01*
X36828Y29007D02*
X36336D01*
X36828Y28021D02*
Y29005D01*
X36336Y28021D02*
Y29005D01*
X36828Y34124D02*
X36336D01*
X41454Y31072D02*
X40962D01*
X36828Y28021D02*
X36336D01*
X44690Y31062D02*
Y32716D01*
Y31062D02*
X47643Y30265D01*
X49710*
X47633Y33513D02*
X44690Y32716D01*
X49710Y33513D02*
Y30265D01*
X47633Y33513D02*
X49710D01*
X45232Y31348D02*
X46137D01*
X46231Y31367*
X46311Y31420*
X46365Y31500*
X46383Y31594*
Y32283D02*
Y31594D01*
Y32283D02*
X46365Y32377D01*
X46311Y32457*
X46231Y32510*
X46137Y32529*
X45232D02*
X46137D01*
X45232D02*
X45138Y32510D01*
X45058Y32457*
X45004Y32377*
X44986Y32283*
Y31604*
Y31594D02*
X45004Y31500D01*
X45058Y31420*
X45138Y31367*
X45232Y31348*
X49415Y32972D02*
Y32293D01*
Y32972D02*
X49396Y33066D01*
X49343Y33146*
X49263Y33199*
X49169Y33218*
X48263*
X48169Y33199*
X48089Y33146*
X48036Y33066*
X48017Y32972*
Y32283*
X48036Y32189*
X48089Y32109*
X48169Y32056*
X48263Y32037*
X49169D02*
X48263D01*
X49169D02*
X49263Y32056D01*
X49343Y32109*
X49396Y32189*
X49415Y32283*
X49169Y31742D02*
X48263D01*
X48169Y31723*
X48089Y31670*
X48036Y31590*
X48017Y31496*
Y30807*
X48036Y30712*
X48089Y30633*
X48169Y30579*
X48263Y30561*
X49169D02*
X48263D01*
X49169D02*
X49263Y30579D01*
X49343Y30633*
X49396Y30712*
X49415Y30807*
Y31496D02*
Y30816D01*
Y31496D02*
X49396Y31590D01*
X49343Y31670*
X49263Y31723*
X49169Y31742*
X53370Y33612D02*
X53469Y33609D01*
X53568Y33602*
X53666Y33591*
X53764Y33575*
X53861Y33554*
X53957Y33529*
X54052Y33499*
X54145Y33465*
X54236Y33426*
X54326Y33383*
X54413Y33336*
X54498Y33285*
X54581Y33231*
X54661Y33172*
X54738Y33110*
X54812Y33044*
X54883Y32974*
X54951Y32902*
X55015Y32826*
X55076Y32747*
X55133Y32666*
X55185Y32582*
X55234Y32496*
X55279Y32407*
X55320Y32317*
X55356Y32225*
X55388Y32131*
X55416Y32035*
X55439Y31939*
X55457Y31841*
X55471Y31743*
X55480Y31644*
X55485Y31545*
Y31446*
X55480Y31347*
X55471Y31248*
X55457Y31150*
X55439Y31052*
X55416Y30956*
X55388Y30861*
X55356Y30767*
X55320Y30674*
X55279Y30584*
X55234Y30495*
X55185Y30409*
X55133Y30325*
X55076Y30244*
X55015Y30165*
X54951Y30089*
X54883Y30017*
X54812Y29948*
X54738Y29882*
X54661Y29819*
X54581Y29761*
X54498Y29706*
X54413Y29655*
X54326Y29608*
X54236Y29565*
X54145Y29527*
X54052Y29492*
X53957Y29463*
X53861Y29437*
X53764Y29417*
X53666Y29400*
X53568Y29389*
X53469Y29382*
X53370Y29379*
X52385D02*
X52291Y29371D01*
X52200Y29347*
X52115Y29307*
X52037Y29253*
X51971Y29186*
X51917Y29109*
X51877Y29023*
X51852Y28932*
X51844Y28838*
Y28051D02*
X51852Y27957D01*
X51877Y27866*
X51917Y27780*
X51971Y27703*
X52037Y27636*
X52115Y27582*
X52200Y27542*
X52291Y27518*
X52385Y27509*
X57011D02*
X57109Y27512D01*
X57207Y27521*
X57304Y27536*
X57400Y27557*
X57494Y27583*
X57587Y27615*
X57678Y27652*
X57766Y27695*
X57851Y27744*
X57934Y27797*
X58013Y27855*
X58088Y27918*
X58160Y27985*
X58227Y28056*
X58290Y28132*
X58348Y28211*
X58401Y28293*
X58449Y28379*
X58492Y28467*
X58530Y28557*
X58562Y28650*
X58588Y28745*
X58609Y28841*
X58623Y28938*
X58632Y29035*
X58635Y29133*
Y33858D02*
X58632Y33956D01*
X58623Y34054*
X58609Y34151*
X58588Y34246*
X58562Y34341*
X58530Y34434*
X58492Y34524*
X58449Y34612*
X58401Y34698*
X58348Y34780*
X58290Y34859*
X58227Y34935*
X58160Y35006*
X58088Y35073*
X58013Y35136*
X57934Y35194*
X57851Y35248*
X57766Y35296*
X57678Y35339*
X57587Y35376*
X57494Y35408*
X57400Y35435*
X57304Y35455*
X57207Y35470*
X57109Y35479*
X57011Y35482*
X52385*
X53389Y33612D02*
X52385D01*
Y29379D02*
X53340D01*
X56992Y27509D02*
X52385D01*
Y33612D02*
X52291Y33620D01*
X52200Y33644*
X52115Y33684*
X52037Y33738*
X51971Y33805*
X51917Y33882*
X51877Y33968*
X51852Y34059*
X51844Y34153*
Y34940D02*
Y34153D01*
Y28838D02*
Y28061D01*
X58635Y29133D02*
Y33858D01*
X52385Y35482D02*
X52291Y35474D01*
X52200Y35449*
X52115Y35409*
X52037Y35355*
X51971Y35288*
X51917Y35211*
X51877Y35126*
X51852Y35034*
X51844Y34940*
X56913Y30954D02*
X56819Y30973D01*
X56739Y31026*
X56686Y31106*
X56667Y31200*
Y31889D02*
Y31210D01*
Y31889D02*
X56686Y31983D01*
X56739Y32063*
X56819Y32117*
X56913Y32135*
Y30954D02*
X57818D01*
X56913Y32135D02*
X57818D01*
X57913Y32117*
X57992Y32063*
X58046Y31983*
X58064Y31889*
Y31200D02*
X58046Y31106D01*
X57992Y31026*
X57913Y30973*
X57818Y30954*
X58064Y31889D02*
Y31200D01*
X53537Y28838D02*
Y28149D01*
X53518Y28055*
X53465Y27975*
X53385Y27922*
X53291Y27903*
X53537Y28838D02*
X53518Y28932D01*
X53465Y29012*
X53385Y29065*
X53291Y29084*
X52385D02*
X53291D01*
X52385Y27903D02*
X53291D01*
X52139Y28838D02*
X52158Y28932D01*
X52211Y29012*
X52291Y29065*
X52385Y29084*
X52139Y28838D02*
Y28159D01*
Y28149D02*
X52158Y28055D01*
X52211Y27975*
X52291Y27922*
X52385Y27903*
X53537Y34940D02*
Y34251D01*
X53518Y34157*
X53465Y34077*
X53385Y34024*
X53291Y34005*
X53537Y34940D02*
X53518Y35035D01*
X53465Y35114*
X53385Y35168*
X53291Y35187*
X52385D02*
X53291D01*
X52385Y34005D02*
X53291D01*
X52139Y34940D02*
X52158Y35035D01*
X52211Y35114*
X52291Y35168*
X52385Y35187*
X52139Y34940D02*
Y34261D01*
Y34251D02*
X52158Y34157D01*
X52211Y34077*
X52291Y34024*
X52385Y34005*
X60690Y31062D02*
Y32716D01*
Y31062D02*
X63643Y30265D01*
X65710*
X63633Y33513D02*
X60690Y32716D01*
X65710Y33513D02*
Y30265D01*
X63633Y33513D02*
X65710D01*
X61232Y31348D02*
X62137D01*
X62231Y31367*
X62311Y31420*
X62365Y31500*
X62383Y31594*
Y32283D02*
Y31594D01*
Y32283D02*
X62365Y32377D01*
X62311Y32457*
X62231Y32510*
X62137Y32529*
X61232D02*
X62137D01*
X61232D02*
X61138Y32510D01*
X61058Y32457*
X61004Y32377*
X60986Y32283*
Y31604*
Y31594D02*
X61004Y31500D01*
X61058Y31420*
X61138Y31367*
X61232Y31348*
X65415Y32972D02*
Y32293D01*
Y32972D02*
X65396Y33066D01*
X65343Y33146*
X65263Y33199*
X65169Y33218*
X64263*
X64169Y33199*
X64089Y33146*
X64036Y33066*
X64017Y32972*
Y32283*
X64036Y32189*
X64089Y32109*
X64169Y32056*
X64263Y32037*
X65169D02*
X64263D01*
X65169D02*
X65263Y32056D01*
X65343Y32109*
X65396Y32189*
X65415Y32283*
X65169Y31742D02*
X64263D01*
X64169Y31723*
X64089Y31670*
X64036Y31590*
X64017Y31496*
Y30807*
X64036Y30712*
X64089Y30633*
X64169Y30579*
X64263Y30561*
X65169D02*
X64263D01*
X65169D02*
X65263Y30579D01*
X65343Y30633*
X65396Y30712*
X65415Y30807*
Y31496D02*
Y30816D01*
Y31496D02*
X65396Y31590D01*
X65343Y31670*
X65263Y31723*
X65169Y31742*
X69370Y33612D02*
X69469Y33609D01*
X69568Y33602*
X69666Y33591*
X69764Y33575*
X69861Y33554*
X69957Y33529*
X70052Y33499*
X70145Y33465*
X70236Y33426*
X70326Y33383*
X70413Y33336*
X70498Y33285*
X70581Y33231*
X70661Y33172*
X70738Y33110*
X70812Y33044*
X70883Y32974*
X70951Y32902*
X71015Y32826*
X71076Y32747*
X71133Y32666*
X71185Y32582*
X71234Y32496*
X71279Y32407*
X71320Y32317*
X71356Y32225*
X71388Y32131*
X71416Y32035*
X71439Y31939*
X71457Y31841*
X71471Y31743*
X71480Y31644*
X71485Y31545*
Y31446*
X71480Y31347*
X71471Y31248*
X71457Y31150*
X71439Y31052*
X71416Y30956*
X71388Y30861*
X71356Y30767*
X71320Y30674*
X71279Y30584*
X71234Y30495*
X71185Y30409*
X71133Y30325*
X71076Y30244*
X71015Y30165*
X70951Y30089*
X70883Y30017*
X70812Y29948*
X70738Y29882*
X70661Y29819*
X70581Y29761*
X70498Y29706*
X70413Y29655*
X70326Y29608*
X70236Y29565*
X70145Y29527*
X70052Y29492*
X69957Y29463*
X69861Y29437*
X69764Y29417*
X69666Y29400*
X69568Y29389*
X69469Y29382*
X69370Y29379*
X68385D02*
X68291Y29371D01*
X68200Y29347*
X68115Y29307*
X68037Y29253*
X67971Y29186*
X67917Y29109*
X67877Y29023*
X67852Y28932*
X67844Y28838*
Y28051D02*
X67852Y27957D01*
X67877Y27866*
X67917Y27780*
X67971Y27703*
X68037Y27636*
X68115Y27582*
X68200Y27542*
X68291Y27518*
X68385Y27509*
X73011D02*
X73109Y27512D01*
X73207Y27521*
X73304Y27536*
X73400Y27557*
X73494Y27583*
X73587Y27615*
X73678Y27652*
X73766Y27695*
X73851Y27744*
X73934Y27797*
X74013Y27855*
X74088Y27918*
X74160Y27985*
X74227Y28056*
X74290Y28132*
X74348Y28211*
X74401Y28293*
X74449Y28379*
X74492Y28467*
X74530Y28557*
X74562Y28650*
X74588Y28745*
X74609Y28841*
X74623Y28938*
X74632Y29035*
X74635Y29133*
Y33858D02*
X74632Y33956D01*
X74623Y34054*
X74609Y34151*
X74588Y34246*
X74562Y34341*
X74530Y34434*
X74492Y34524*
X74449Y34612*
X74401Y34698*
X74348Y34780*
X74290Y34859*
X74227Y34935*
X74160Y35006*
X74088Y35073*
X74013Y35136*
X73934Y35194*
X73851Y35248*
X73766Y35296*
X73678Y35339*
X73587Y35376*
X73494Y35408*
X73400Y35435*
X73304Y35455*
X73207Y35470*
X73109Y35479*
X73011Y35482*
X68385*
X69389Y33612D02*
X68385D01*
Y29379D02*
X69340D01*
X72992Y27509D02*
X68385D01*
Y33612D02*
X68291Y33620D01*
X68200Y33644*
X68115Y33684*
X68037Y33738*
X67971Y33805*
X67917Y33882*
X67877Y33968*
X67852Y34059*
X67844Y34153*
Y34940D02*
Y34153D01*
Y28838D02*
Y28061D01*
X74635Y29133D02*
Y33858D01*
X68385Y35482D02*
X68291Y35474D01*
X68200Y35449*
X68115Y35409*
X68037Y35355*
X67971Y35288*
X67917Y35211*
X67877Y35126*
X67852Y35034*
X67844Y34940*
X72913Y30954D02*
X72819Y30973D01*
X72739Y31026*
X72686Y31106*
X72667Y31200*
Y31889D02*
Y31210D01*
Y31889D02*
X72686Y31983D01*
X72739Y32063*
X72819Y32117*
X72913Y32135*
Y30954D02*
X73818D01*
X72913Y32135D02*
X73818D01*
X73913Y32117*
X73992Y32063*
X74046Y31983*
X74064Y31889*
Y31200D02*
X74046Y31106D01*
X73992Y31026*
X73913Y30973*
X73818Y30954*
X74064Y31889D02*
Y31200D01*
X69537Y28838D02*
Y28149D01*
X69518Y28055*
X69465Y27975*
X69385Y27922*
X69291Y27903*
X69537Y28838D02*
X69518Y28932D01*
X69465Y29012*
X69385Y29065*
X69291Y29084*
X68385D02*
X69291D01*
X68385Y27903D02*
X69291D01*
X68139Y28838D02*
X68158Y28932D01*
X68211Y29012*
X68291Y29065*
X68385Y29084*
X68139Y28838D02*
Y28159D01*
Y28149D02*
X68158Y28055D01*
X68211Y27975*
X68291Y27922*
X68385Y27903*
X69537Y34940D02*
Y34251D01*
X69518Y34157*
X69465Y34077*
X69385Y34024*
X69291Y34005*
X69537Y34940D02*
X69518Y35035D01*
X69465Y35114*
X69385Y35168*
X69291Y35187*
X68385D02*
X69291D01*
X68385Y34005D02*
X69291D01*
X68139Y34940D02*
X68158Y35035D01*
X68211Y35114*
X68291Y35168*
X68385Y35187*
X68139Y34940D02*
Y34261D01*
Y34251D02*
X68158Y34157D01*
X68211Y34077*
X68291Y34024*
X68385Y34005*
M02*