M48
INCH,TZ
T01C0.010
T02C0.012
T03C0.020
T04C0.024
T05C0.065
T06C0.118
%
T01
X+37037Y+36968
X+35541Y+38031
X+35482Y+40383
X+35374Y+39035
X+35777Y+38415
X+39901Y+40127
X+37667Y+40206
X+37411Y+40738
X+37795Y+40511
X+39822Y+40944
X+39773Y+40492
X+42007Y+40393
X+40816Y+42175
X+42529Y+40501
X+41446Y+42135
X+40925Y+38169
X+41348Y+39832
X+41387Y+38356
X+40305Y+39517
X+40669Y+39232
X+40718Y+39616
X+39350Y+37116
X+42805Y+38356
X+40875Y+36082
X+39399Y+36279
X+39360Y+36742
T02
X+36879Y+38809
X+36525
X+36171
Y+39163
X+36525Y+39133
X+41781Y+38828
X+42135
X+42490
Y+39183
Y+39537
X+42135
Y+39183
X+41781
Y+39537
T03
X+37086Y+42165
Y+42598
X+36761Y+42342
X+39212Y+37942
X+39251Y+37578
X+37874Y+39251
X+38031Y+39566
X+38188Y+39881
X+37716Y+42165
X+37391Y+41978
X+37401Y+42362
X+38523Y+41289
X+38070Y+42165
X+38425Y+42086
X+43110Y+39881
X+40669Y+37834
Y+37440
X+43287Y+38385
X+37362Y+38444
X+38572Y+38818
X+38257Y+38986
X+37460Y+37549
X+43375Y+38897
X+43405Y+39438
X+39202Y+41259
X+39173Y+40875
X+38848Y+41082
X+38877Y+41466
X+40669Y+37047
X+41210Y+36702
X+37952Y+36486
Y+36092
X+39183Y+35807
X+37559Y+36289
X+37460Y+36948
T04
X+38720Y+40449
X+36470Y+41748
X+38759Y+35669
Y+38267
T05
X+36083Y+37472
X+42656
X+39370Y+43165
T06
X+39370Y+39370
T00
M30
