G04 CAM Products 2000  RS274-X Output*
G04 Serial Number: 0000-00-00000*
G04 File Name:stencil.GBR *
%FSDAX44Y44*%
%MOIN*%
%SFA1B1*%

%IPPOS*%
%AMROTRECTNOHOLED51*
4,1,4,-0.018800,-0.021900,
-0.009600,-0.027200,
0.018800,0.021900,
0.009600,0.027200,
-0.018800,-0.021900,0.0*
%
%AMROTRECTNOHOLED52*
4,1,4,0.018800,0.021900,
0.009600,0.027200,
-0.018800,-0.021900,
-0.009600,-0.027200,
0.018800,0.021900,0.0*
%
%AMROTRECTNOHOLED53*
4,1,4,0.008500,-0.072900,
0.073300,0.004300,
-0.008500,0.072900,
-0.073300,-0.004300,
0.008500,-0.072900,0.0*
%
%AMROTRECTNOHOLED54*
4,1,4,0.072900,0.008500,
-0.004300,0.073300,
-0.072900,-0.008500,
0.004300,-0.073300,
0.072900,0.008500,0.0*
%
%AMROTRECTNOHOLED55*
4,1,4,-0.060700,0.007300,
0.017700,-0.058500,
0.060700,-0.007300,
-0.017700,0.058500,
-0.060700,0.007300,0.0*
%
%AMROTRECTNOHOLED56*
4,1,4,-0.064000,0.007000,
0.018000,-0.061900,
0.064000,-0.007000,
-0.018000,0.061900,
-0.064000,0.007000,0.0*
%
%AMROTRECTNOHOLED57*
4,1,4,-0.020900,-0.024300,
-0.010600,-0.030200,
0.020900,0.024300,
0.010600,0.030200,
-0.020900,-0.024300,0.0*
%
%AMROTRECTNOHOLED58*
4,1,4,0.020900,0.024300,
0.010600,0.030200,
-0.020900,-0.024300,
-0.010600,-0.030200,
0.020900,0.024300,0.0*
%
%AMROTRECTNOHOLED59*
4,1,4,-0.024100,-0.025200,
-0.009800,-0.033500,
0.024100,0.025200,
0.009800,0.033500,
-0.024100,-0.025200,0.0*
%
%AMROTRECTNOHOLED60*
4,1,4,0.024100,0.025200,
0.009800,0.033500,
-0.024100,-0.025200,
-0.009800,-0.033500,
0.024100,0.025200,0.0*
%
%AMROTRECTNOHOLED62*
4,1,4,0.015400,0.004100,
-0.004100,0.015400,
-0.015400,-0.004100,
0.004100,-0.015400,
0.015400,0.004100,0.0*
%
%AMROTRECTNOHOLED64*
4,1,4,-0.017100,-0.004600,
0.004600,-0.017100,
0.017100,0.004600,
-0.004600,0.017100,
-0.017100,-0.004600,0.0*
%
%AMROTRECTNOHOLED65*
4,1,4,0.017100,0.004600,
-0.004600,0.017100,
-0.017100,-0.004600,
0.004600,-0.017100,
0.017100,0.004600,0.0*
%
%AMROTRECTNOHOLED67*
4,1,4,-0.020300,-0.005400,
0.005400,-0.020300,
0.020300,0.005400,
-0.005400,0.020300,
-0.020300,-0.005400,0.0*
%
%AMROTRECTNOHOLED68*
4,1,4,0.020300,0.005400,
-0.005400,0.020300,
-0.020300,-0.005400,
0.005400,-0.020300,
0.020300,0.005400,0.0*
%
%AMROTRECTNOHOLED69*
4,1,4,-0.001900,-0.018200,
0.010200,0.015100,
0.001900,0.018200,
-0.010200,-0.015100,
-0.001900,-0.018200,0.0*
%
%AMROTRECTNOHOLED70*
4,1,4,0.008000,0.016400,
-0.014800,-0.010700,
-0.008000,-0.016400,
0.014800,0.010700,
0.008000,0.016400,0.0*
%
%AMROTRECTNOHOLED71*
4,1,4,-0.022700,0.013100,
-0.013100,-0.022700,
0.022700,-0.013100,
0.013100,0.022700,
-0.022700,0.013100,0.0*
%
%AMROTRECTNOHOLED72*
4,1,4,-0.002100,-0.020200,
0.011400,0.016800,
0.002100,0.020200,
-0.011400,-0.016800,
-0.002100,-0.020200,0.0*
%
%AMROTRECTNOHOLED73*
4,1,4,0.008900,0.018200,
-0.016400,-0.011900,
-0.008900,-0.018200,
0.016400,0.011900,
0.008900,0.018200,0.0*
%
%AMROTRECTNOHOLED74*
4,1,4,-0.025600,0.014800,
-0.014800,-0.025600,
0.025600,-0.014800,
0.014800,0.025600,
-0.025600,0.014800,0.0*
%
%AMROTRECTNOHOLED75*
4,1,4,-0.000700,-0.023200,
0.014400,0.018200,
0.000700,0.023200,
-0.014400,-0.018200,
-0.000700,-0.023200,0.0*
%
%AMROTRECTNOHOLED76*
4,1,4,0.008600,0.021600,
-0.019800,-0.012200,
-0.008600,-0.021600,
0.019800,0.012200,
0.008600,0.021600,0.0*
%
%AMROTRECTNOHOLED77*
4,1,4,0.009500,-0.031500,
0.027500,0.018100,
-0.009500,0.031500,
-0.027500,-0.018100,
0.009500,-0.031500,0.0*
%
%AMROTRECTNOHOLED78*
4,1,4,0.001900,0.032900,
-0.032000,-0.007600,
-0.001900,-0.032900,
0.032000,0.007600,
0.001900,0.032900,0.0*
%
%AMROTRECTNOHOLED80*
4,1,4,-0.008600,-0.026900,
0.019000,0.020900,
0.008600,0.026900,
-0.019000,-0.020900,
-0.008600,-0.026900,0.0*
%
%AMROTRECTNOHOLED81*
4,1,4,0.010900,-0.034500,
0.030500,0.019500,
-0.010900,0.034500,
-0.030500,-0.019500,
0.010900,-0.034500,0.0*
%
%AMROTRECTNOHOLED82*
4,1,4,0.001600,0.036200,
-0.035400,-0.007800,
-0.001600,-0.036200,
0.035400,0.007800,
0.001600,0.036200,0.0*
%
%AMROTRECTNOHOLED84*
4,1,4,-0.007700,-0.030100,
0.022200,0.021700,
0.007700,0.030100,
-0.022200,-0.021700,
-0.007700,-0.030100,0.0*
%
%AMROTRECTNOHOLED85*
4,1,4,-0.040600,-0.005700,
0.008500,-0.040100,
0.040600,0.005700,
-0.008500,0.040100,
-0.040600,-0.005700,0.0*
%
%AMROTRECTNOHOLED86*
4,1,4,-0.040000,-0.009200,
0.012000,-0.039200,
0.040000,0.009200,
-0.012000,0.039200,
-0.040000,-0.009200,0.0*
%
%AMROTRECTNOHOLED87*
4,1,4,0.040000,0.009200,
-0.012000,0.039200,
-0.040000,-0.009200,
0.012000,-0.039200,
0.040000,0.009200,0.0*
%
%AMROTRECTNOHOLED88*
4,1,4,-0.043900,-0.006300,
0.009100,-0.043400,
0.043900,0.006300,
-0.009100,0.043400,
-0.043900,-0.006300,0.0*
%
%AMROTRECTNOHOLED89*
4,1,4,-0.043200,-0.010100,
0.012800,-0.042500,
0.043200,0.010100,
-0.012800,0.042500,
-0.043200,-0.010100,0.0*
%
%AMROTRECTNOHOLED90*
4,1,4,0.043200,0.010100,
-0.012800,0.042500,
-0.043200,-0.010100,
0.012800,-0.042500,
0.043200,0.010100,0.0*
%
%AMROTRECTNOHOLED91*
4,1,4,0.004100,0.038600,
-0.031400,-0.022800,
-0.004100,-0.038600,
0.031400,0.022800,
0.004100,0.038600,0.0*
%
%AMROTRECTNOHOLED92*
4,1,4,0.003200,0.041800,
-0.034600,-0.023700,
-0.003200,-0.041800,
0.034600,0.023700,
0.003200,0.041800,0.0*
%
%AMROTRECTNOHOLED93*
4,1,4,-0.060300,-0.016400,
0.005200,-0.062300,
0.060300,0.016400,
-0.005200,0.062300,
-0.060300,-0.016400,0.0*
%
%AMROTRECTNOHOLED94*
4,1,4,-0.063600,-0.017000,
0.005800,-0.065600,
0.063600,0.017000,
-0.005800,0.065600,
-0.063600,-0.017000,0.0*
%
%AMROTRECTNOHOLED95*
4,1,4,-0.064300,-0.049900,
0.017100,-0.079600,
0.064300,0.049900,
-0.017100,0.079600,
-0.064300,-0.049900,0.0*
%
%AMROTRECTNOHOLED96*
4,1,4,-0.048800,-0.007400,
0.032600,-0.037000,
0.048800,0.007400,
-0.032600,0.037000,
-0.048800,-0.007400,0.0*
%
%AMROTRECTNOHOLED97*
4,1,4,-0.067300,-0.051300,
0.018500,-0.082600,
0.067300,0.051300,
-0.018500,0.082600,
-0.067300,-0.051300,0.0*
%
%AMROTRECTNOHOLED98*
4,1,4,-0.051800,-0.008800,
0.034000,-0.040000,
0.051800,0.008800,
-0.034000,0.040000,
-0.051800,-0.008800,0.0*
%
%AMROTRECTNOHOLED99*
4,1,4,0.008200,-0.069600,
0.069900,0.004000,
-0.008200,0.069600,
-0.069900,-0.004000,
0.008200,-0.069600,0.0*
%
%AMROTRECTNOHOLED100*
4,1,4,0.069600,0.008200,
-0.004000,0.069900,
-0.069600,-0.008200,
0.004000,-0.069900,
0.069600,0.008200,0.0*
%
%AMTHERMAL4D101*
1,1,0.141700,0.000000,0.000000*
1,0,0.106300,0.000000,0.000000*
4,0,4,0.041800,0.058500,
-0.058500,-0.041800,
-0.041800,-0.058500,
0.058500,0.041800,
0.041800,0.058500,0.0*
4,0,4,-0.041800,0.058500,
-0.058500,0.041800,
0.041800,-0.058500,
0.058500,-0.041800,
-0.041800,0.058500,0.0*
%
%AMROTRECTNOHOLED31*
4,1,4,0.018800,0.021900,
0.009600,0.027200,
-0.018800,-0.021900,
-0.009600,-0.027200,
0.018800,0.021900,0.0*
%
%AMROTRECTNOHOLED36*
4,1,4,0.020900,0.024300,
0.010600,0.030200,
-0.020900,-0.024300,
-0.010600,-0.030200,
0.020900,0.024300,0.0*
%
%AMROTRECTNOHOLED40*
4,1,4,0.024100,0.025200,
0.009800,0.033400,
-0.024100,-0.025200,
-0.009800,-0.033400,
0.024100,0.025200,0.0*
%
%AMROTRECTNOHOLED44*
4,1,4,-0.014200,0.011500,
0.007100,-0.016800,
0.014200,-0.011500,
-0.007100,0.016800,
-0.014200,0.011500,0.0*
%
%AMROTRECTNOHOLED45*
4,1,4,0.007100,0.016800,
-0.014200,-0.011500,
-0.007100,-0.016800,
0.014200,0.011500,
0.007100,0.016800,0.0*
%
%AMROTRECTNOHOLED47*
4,1,4,-0.015800,0.012800,
0.007900,-0.018700,
0.015800,-0.012800,
-0.007900,0.018700,
-0.015800,0.012800,0.0*
%
%AMROTRECTNOHOLED48*
4,1,4,0.007900,0.018700,
-0.015800,-0.012800,
-0.007900,-0.018700,
0.015800,0.012800,
0.007900,0.018700,0.0*
%
%AMROTRECTNOHOLED50*
4,1,4,-0.019100,0.013200,
0.007400,-0.022000,
0.019100,-0.013200,
-0.007400,0.022000,
-0.019100,0.013200,0.0*
%
%AMROTRECTNOHOLED51~*
4,1,4,0.007400,0.022000,
-0.019100,-0.013200,
-0.007400,-0.022000,
0.019100,0.013200,
0.007400,0.022000,0.0*
%
%AMROTRECTNOHOLED52~*
4,1,4,-0.031600,0.009200,
0.000200,-0.032900,
0.031600,-0.009200,
-0.000200,0.032900,
-0.031600,0.009200,0.0*
%
%AMROTRECTNOHOLED53~*
4,1,4,0.000200,0.032900,
-0.031600,-0.009200,
-0.000200,-0.032900,
0.031600,0.009200,
0.000200,0.032900,0.0*
%
%AMROTRECTNOHOLED55~*
4,1,4,-0.034900,0.009700,
-0.000300,-0.036200,
0.034900,-0.009700,
0.000300,0.036200,
-0.034900,0.009700,0.0*
%
%AMROTRECTNOHOLED56~*
4,1,4,-0.000300,0.036200,
-0.034900,-0.009700,
0.000300,-0.036200,
0.034900,0.009700,
-0.000300,0.036200,0.0*
%
%AMROTRECTNOHOLED59~*
4,1,4,0.004100,0.038600,
-0.031400,-0.022800,
-0.004100,-0.038600,
0.031400,0.022800,
0.004100,0.038600,0.0*
%
%AMROTRECTNOHOLED61*
4,1,4,0.003200,0.041800,
-0.034600,-0.023700,
-0.003200,-0.041800,
0.034600,0.023700,
0.003200,0.041800,0.0*
%
%AMROTRECTNOHOLED31~*
4,1,4,0.018800,0.021900,
0.009600,0.027200,
-0.018800,-0.021900,
-0.009600,-0.027200,
0.018800,0.021900,0.0*
%
%AMROTRECTNOHOLED36~*
4,1,4,0.020900,0.024300,
0.010600,0.030200,
-0.020900,-0.024300,
-0.010600,-0.030200,
0.020900,0.024300,0.0*
%
%AMROTRECTNOHOLED40~*
4,1,4,0.024100,0.025200,
0.009800,0.033400,
-0.024100,-0.025200,
-0.009800,-0.033400,
0.024100,0.025200,0.0*
%
%AMROTRECTNOHOLED44~*
4,1,4,-0.014200,0.011500,
0.007100,-0.016800,
0.014200,-0.011500,
-0.007100,0.016800,
-0.014200,0.011500,0.0*
%
%AMROTRECTNOHOLED45~*
4,1,4,0.007100,0.016800,
-0.014200,-0.011500,
-0.007100,-0.016800,
0.014200,0.011500,
0.007100,0.016800,0.0*
%
%AMROTRECTNOHOLED47~*
4,1,4,-0.015800,0.012800,
0.007900,-0.018700,
0.015800,-0.012800,
-0.007900,0.018700,
-0.015800,0.012800,0.0*
%
%AMROTRECTNOHOLED48~*
4,1,4,0.007900,0.018700,
-0.015800,-0.012800,
-0.007900,-0.018700,
0.015800,0.012800,
0.007900,0.018700,0.0*
%
%AMROTRECTNOHOLED50~*
4,1,4,-0.019100,0.013200,
0.007400,-0.022000,
0.019100,-0.013200,
-0.007400,0.022000,
-0.019100,0.013200,0.0*
%
%AMROTRECTNOHOLED51~~*
4,1,4,0.007400,0.022000,
-0.019100,-0.013200,
-0.007400,-0.022000,
0.019100,0.013200,
0.007400,0.022000,0.0*
%
%AMROTRECTNOHOLED52~~*
4,1,4,-0.031600,0.009200,
0.000200,-0.032900,
0.031600,-0.009200,
-0.000200,0.032900,
-0.031600,0.009200,0.0*
%
%AMROTRECTNOHOLED53~~*
4,1,4,0.000200,0.032900,
-0.031600,-0.009200,
-0.000200,-0.032900,
0.031600,0.009200,
0.000200,0.032900,0.0*
%
%AMROTRECTNOHOLED55~~*
4,1,4,-0.034900,0.009700,
-0.000300,-0.036200,
0.034900,-0.009700,
0.000300,0.036200,
-0.034900,0.009700,0.0*
%
%AMROTRECTNOHOLED56~~*
4,1,4,-0.000300,0.036200,
-0.034900,-0.009700,
0.000300,-0.036200,
0.034900,0.009700,
-0.000300,0.036200,0.0*
%
%AMROTRECTNOHOLED59~~*
4,1,4,0.004100,0.038600,
-0.031400,-0.022800,
-0.004100,-0.038600,
0.031400,0.022800,
0.004100,0.038600,0.0*
%
%AMROTRECTNOHOLED61~*
4,1,4,0.003200,0.041800,
-0.034600,-0.023700,
-0.003200,-0.041800,
0.034600,0.023700,
0.003200,0.041800,0.0*
%
%AMROTRECTNOHOLED100M*
4,1,4,-0.069600,0.008200,
0.004000,0.069900,
0.069600,-0.008200,
-0.004000,-0.069900,
-0.069600,0.008200,0.0*
%
%AMROTRECTNOHOLED86M*
4,1,4,0.040000,-0.009200,
-0.012000,-0.039200,
-0.040000,0.009200,
0.012000,0.039200,
0.040000,-0.009200,0.0*
%
%AMROTRECTNOHOLED96M*
4,1,4,0.048800,-0.007400,
-0.032600,-0.037000,
-0.048800,0.007400,
0.032600,0.037000,
0.048800,-0.007400,0.0*
%
%AMROTRECTNOHOLED95M*
4,1,4,0.064300,-0.049900,
-0.017100,-0.079600,
-0.064300,0.049900,
0.017100,0.079600,
0.064300,-0.049900,0.0*
%
%AMROTRECTNOHOLED99M*
4,1,4,-0.008200,-0.069600,
-0.069900,0.004000,
0.008200,0.069600,
0.069900,-0.004000,
-0.008200,-0.069600,0.0*
%
%AMROTRECTNOHOLED52M*
4,1,4,-0.018800,0.021900,
-0.009600,0.027200,
0.018800,-0.021900,
0.009600,-0.027200,
-0.018800,0.021900,0.0*
%
%AMROTRECTNOHOLED91M*
4,1,4,-0.004100,0.038600,
0.031400,-0.022800,
0.004100,-0.038600,
-0.031400,0.022800,
-0.004100,0.038600,0.0*
%
%AMROTRECTNOHOLED93M*
4,1,4,0.060300,-0.016400,
-0.005200,-0.062300,
-0.060300,0.016400,
0.005200,0.062300,
0.060300,-0.016400,0.0*
%
%AMROTRECTNOHOLED100M~*
4,1,4,0.069600,-0.008200,
-0.004000,-0.069900,
-0.069600,0.008200,
0.004000,0.069900,
0.069600,-0.008200,0.0*
%
%AMROTRECTNOHOLED86M~*
4,1,4,-0.040000,0.009200,
0.012000,0.039200,
0.040000,-0.009200,
-0.012000,-0.039200,
-0.040000,0.009200,0.0*
%
%AMROTRECTNOHOLED96M~*
4,1,4,-0.048800,0.007400,
0.032600,0.037000,
0.048800,-0.007400,
-0.032600,-0.037000,
-0.048800,0.007400,0.0*
%
%AMROTRECTNOHOLED95M~*
4,1,4,-0.064300,0.049900,
0.017100,0.079600,
0.064300,-0.049900,
-0.017100,-0.079600,
-0.064300,0.049900,0.0*
%
%AMROTRECTNOHOLED99M~*
4,1,4,0.008200,0.069600,
0.069900,-0.004000,
-0.008200,-0.069600,
-0.069900,0.004000,
0.008200,0.069600,0.0*
%
%AMROTRECTNOHOLED52M~*
4,1,4,0.018800,-0.021900,
0.009600,-0.027200,
-0.018800,0.021900,
-0.009600,0.027200,
0.018800,-0.021900,0.0*
%
%AMROTRECTNOHOLED91M~*
4,1,4,0.004100,-0.038600,
-0.031400,0.022800,
-0.004100,0.038600,
0.031400,-0.022800,
0.004100,-0.038600,0.0*
%
%AMROTRECTNOHOLED93M~*
4,1,4,-0.060300,0.016400,
0.005200,0.062300,
0.060300,-0.016400,
-0.005200,-0.062300,
-0.060300,0.016400,0.0*
%
%AMROTRECTNOHOLED31M*
4,1,4,0.018800,-0.021900,
0.009600,-0.027200,
-0.018800,0.021900,
-0.009600,0.027200,
0.018800,-0.021900,0.0*
%
%AMROTRECTNOHOLED59~M*
4,1,4,0.004100,-0.038600,
-0.031400,0.022800,
-0.004100,0.038600,
0.031400,-0.022800,
0.004100,-0.038600,0.0*
%
%ADD10C,0.005900*%
%ADD11C,0.001000*%
%ADD12C,0.010000*%
%ADD13C,0.011000*%
%ADD14C,0.011800*%
%ADD15C,0.019600*%
%ADD16C,0.003900*%
%ADD17C,0.031500*%
%ADD18C,0.039300*%
%ADD19C,0.005000*%
%ADD20C,0.006300*%
%ADD21C,0.007000*%
%ADD22C,0.007800*%
%ADD23C,0.078700*%
%ADD24C,0.008000*%
%ADD25C,0.009800*%
%ADD26C,0.009800*%
%ADD27C,0.102300*%
%ADD28C,0.112600*%
%ADD29C,0.118100*%
%ADD30C,0.122800*%
%ADD31C,0.125900*%
%ADD32C,0.130700*%
%ADD33C,0.132200*%
%ADD34C,0.137000*%
%ADD35C,0.142500*%
%ADD36C,0.157400*%
%ADD37C,0.162200*%
%ADD38C,0.216500*%
%ADD39C,0.221200*%
%ADD40C,0.027500*%
%ADD41C,0.039300*%
%ADD42C,0.040100*%
%ADD43C,0.044100*%
%ADD44C,0.048000*%
%ADD45C,0.067300*%
%ADD46C,0.073200*%
%ADD47C,0.077900*%
%ADD48C,0.078700*%
%ADD49C,0.083400*%
%ADD50C,0.095200*%
%ADD51ROTRECTNOHOLED51*%
%ADD52ROTRECTNOHOLED52*%
%ADD53ROTRECTNOHOLED53*%
%ADD54ROTRECTNOHOLED54*%
%ADD55ROTRECTNOHOLED55*%
%ADD56ROTRECTNOHOLED56*%
%ADD57ROTRECTNOHOLED57*%
%ADD58ROTRECTNOHOLED58*%
%ADD59ROTRECTNOHOLED59*%
%ADD60ROTRECTNOHOLED60*%
%ADD61R,0.022500X0.022500*%
%ADD62ROTRECTNOHOLED62*%
%ADD63R,0.025000X0.025000*%
%ADD64ROTRECTNOHOLED64*%
%ADD65ROTRECTNOHOLED65*%
%ADD66R,0.029700X0.029700*%
%ADD67ROTRECTNOHOLED67*%
%ADD68ROTRECTNOHOLED68*%
%ADD69ROTRECTNOHOLED69*%
%ADD70ROTRECTNOHOLED70*%
%ADD71ROTRECTNOHOLED71*%
%ADD72ROTRECTNOHOLED72*%
%ADD73ROTRECTNOHOLED73*%
%ADD74ROTRECTNOHOLED74*%
%ADD75ROTRECTNOHOLED75*%
%ADD76ROTRECTNOHOLED76*%
%ADD77ROTRECTNOHOLED77*%
%ADD78ROTRECTNOHOLED78*%
%ADD79R,0.055100X0.012000*%
%ADD80ROTRECTNOHOLED80*%
%ADD81ROTRECTNOHOLED81*%
%ADD82ROTRECTNOHOLED82*%
%ADD83R,0.059800X0.016700*%
%ADD84ROTRECTNOHOLED84*%
%ADD85ROTRECTNOHOLED85*%
%ADD86ROTRECTNOHOLED86*%
%ADD87ROTRECTNOHOLED87*%
%ADD88ROTRECTNOHOLED88*%
%ADD89ROTRECTNOHOLED89*%
%ADD90ROTRECTNOHOLED90*%
%ADD91ROTRECTNOHOLED91*%
%ADD92ROTRECTNOHOLED92*%
%ADD93ROTRECTNOHOLED93*%
%ADD94ROTRECTNOHOLED94*%
%ADD95ROTRECTNOHOLED95*%
%ADD96ROTRECTNOHOLED96*%
%ADD97ROTRECTNOHOLED97*%
%ADD98ROTRECTNOHOLED98*%
%ADD99ROTRECTNOHOLED99*%
%ADD100ROTRECTNOHOLED100*%
%ADD101THERMAL4D101*%
%ADD102C,0.022400*%
%ADD103C,0.027100*%
%ADD104C,0.032200*%
%ADD105C,0.034200*%
%ADD106C,0.037000*%
%ADD107C,0.019700*%
%ADD108C,0.002000*%
%ADD109C,0.007900*%
%ADD110C,0.102400*%
%ADD111C,0.132300*%
%ADD112C,0.039400*%
%ADD113C,0.089000*%
%ADD114R,0.056700X0.010600*%
%ADD115ROTRECTNOHOLED31*%
%ADD116R,0.106300X0.106300*%
%ADD117R,0.011000X0.035400*%
%ADD118R,0.035400X0.011000*%
%ADD119R,0.063000X0.011800*%
%ADD120ROTRECTNOHOLED36*%
%ADD121R,0.015700X0.040200*%
%ADD122R,0.040200X0.015700*%
%ADD123R,0.067700X0.016500*%
%ADD124ROTRECTNOHOLED40*%
%ADD125ROTRECTNOHOLED44*%
%ADD126ROTRECTNOHOLED45*%
%ADD127R,0.037000X0.037000*%
%ADD128ROTRECTNOHOLED47*%
%ADD129ROTRECTNOHOLED48*%
%ADD130R,0.041700X0.041700*%
%ADD131ROTRECTNOHOLED50*%
%ADD132ROTRECTNOHOLED51~*%
%ADD133ROTRECTNOHOLED52~*%
%ADD134ROTRECTNOHOLED53~*%
%ADD135R,0.012000X0.055100*%
%ADD136ROTRECTNOHOLED55~*%
%ADD137ROTRECTNOHOLED56~*%
%ADD138R,0.016700X0.059800*%
%ADD139R,0.070900X0.031500*%
%ADD140ROTRECTNOHOLED59~*%
%ADD141R,0.075600X0.036200*%
%ADD142ROTRECTNOHOLED61*%
%ADD143R,0.009900X0.031900*%
%ADD144R,0.031900X0.009900*%
%ADD145R,0.098400X0.098400*%
%ADD146C,0.023600*%
%ADD147C,0.027200*%
%ADD148C,0.032300*%
%ADD149C,0.034300*%
%ADD150C,0.036200*%
%ADD151ROTRECTNOHOLED31~*%
%ADD152ROTRECTNOHOLED36~*%
%ADD153ROTRECTNOHOLED40~*%
%ADD154ROTRECTNOHOLED44~*%
%ADD155ROTRECTNOHOLED45~*%
%ADD156ROTRECTNOHOLED47~*%
%ADD157ROTRECTNOHOLED48~*%
%ADD158ROTRECTNOHOLED50~*%
%ADD159ROTRECTNOHOLED51~~*%
%ADD160ROTRECTNOHOLED52~~*%
%ADD161ROTRECTNOHOLED53~~*%
%ADD162ROTRECTNOHOLED55~~*%
%ADD163ROTRECTNOHOLED56~~*%
%ADD164ROTRECTNOHOLED59~~*%
%ADD165ROTRECTNOHOLED61~*%
%ADD166ROTRECTNOHOLED100M*%
%ADD167ROTRECTNOHOLED86M*%
%ADD168ROTRECTNOHOLED96M*%
%ADD169ROTRECTNOHOLED95M*%
%ADD170ROTRECTNOHOLED99M*%
%ADD171ROTRECTNOHOLED52M*%
%ADD172ROTRECTNOHOLED91M*%
%ADD173ROTRECTNOHOLED93M*%
%ADD174ROTRECTNOHOLED100M~*%
%ADD175ROTRECTNOHOLED86M~*%
%ADD176ROTRECTNOHOLED96M~*%
%ADD177ROTRECTNOHOLED95M~*%
%ADD178ROTRECTNOHOLED99M~*%
%ADD179ROTRECTNOHOLED52M~*%
%ADD180ROTRECTNOHOLED91M~*%
%ADD181ROTRECTNOHOLED93M~*%
%ADD182ROTRECTNOHOLED31M*%
%ADD183ROTRECTNOHOLED59~M*%
%LNstencil-1*%
%LPD*%
G54D65*
X00047601Y00026890D03*
X00047937Y00026696D03*
G54D64*
X00047764Y00026391D03*
X00047428Y00026584D03*
G54D55*
X00042086Y00029338D03*
X00040699Y00030502D03*
G54D71*
X00040562Y00026271D03*
X00040406Y00026851D03*
G54D51*
X00047990Y00028608D03*
X00048161Y00028509D03*
X00048331Y00028411D03*
X00048502Y00028312D03*
X00048672Y00028214D03*
X00048843Y00028115D03*
X00049013Y00028017D03*
X00049183Y00027919D03*
X00049354Y00027820D03*
X00049524Y00027722D03*
X00050063Y00029048D03*
X00049892Y00029146D03*
X00049722Y00029244D03*
X00049551Y00029343D03*
X00049381Y00029441D03*
X00049210Y00029540D03*
X00049040Y00029638D03*
X00048869Y00029737D03*
G54D91*
X00047748Y00029566D03*
X00050475Y00027991D03*
G54D51*
X00050233Y00028949D03*
X00048699Y00029835D03*
X00036179Y00028608D03*
X00036350Y00028509D03*
X00036520Y00028411D03*
X00036691Y00028312D03*
X00036861Y00028214D03*
X00037031Y00028115D03*
X00037202Y00028017D03*
X00037372Y00027919D03*
X00037543Y00027820D03*
X00037713Y00027722D03*
X00038252Y00029048D03*
X00038081Y00029146D03*
X00037911Y00029244D03*
X00037740Y00029343D03*
X00037570Y00029441D03*
X00037399Y00029540D03*
X00037229Y00029638D03*
X00037058Y00029737D03*
G54D91*
X00035937Y00029566D03*
X00038664Y00027991D03*
G54D51*
X00038422Y00028949D03*
X00036888Y00029835D03*
G54D77*
X00048788Y00025062D03*
X00051481Y00024082D03*
G54D69*
X00050086Y00025302D03*
X00050271Y00025234D03*
X00050456Y00025167D03*
X00050641Y00025100D03*
X00050826Y00025032D03*
X00049901Y00025369D03*
G54D63*
X00060962Y00024746D03*
X00060575D03*
G54D79*
X00063839Y00025986D03*
Y00025730D03*
Y00025474D03*
Y00024962D03*
Y00025218D03*
Y00024706D03*
Y00024450D03*
Y00024194D03*
X00061575Y00025986D03*
Y00025730D03*
Y00025218D03*
X00061575Y00025474D03*
X00061575Y00024962D03*
Y00024450D03*
X00061575Y00024706D03*
X00061575Y00024194D03*
G54D85*
X00052364Y00027973D03*
X00053101Y00027457D03*
X00052751Y00028552D03*
X00053488Y00028036D03*
G54D87*
X00050632Y00030477D03*
X00049853Y00030927D03*
G54D63*
X00061789Y00026340D03*
X00061402D03*
G54D51*
X00059801Y00028608D03*
X00059972Y00028509D03*
X00060142Y00028411D03*
X00060313Y00028312D03*
X00060483Y00028214D03*
X00060654Y00028115D03*
X00060824Y00028017D03*
X00060994Y00027919D03*
X00061165Y00027820D03*
X00061335Y00027722D03*
X00061874Y00029048D03*
X00061703Y00029146D03*
X00061533Y00029244D03*
X00061362Y00029343D03*
X00061192Y00029441D03*
X00061021Y00029540D03*
X00060851Y00029638D03*
X00060680Y00029737D03*
G54D91*
X00059559Y00029566D03*
X00062286Y00027991D03*
G54D51*
X00062044Y00028949D03*
X00060510Y00029835D03*
G54D78*
X00054276Y00029080D03*
X00052080Y00030923D03*
G54D70*
X00052974Y00029299D03*
X00052823Y00029425D03*
X00052672Y00029552D03*
X00052522Y00029678D03*
X00052371Y00029805D03*
X00053125Y00029172D03*
G54D80*
X00066734Y00028743D03*
X00066512Y00028871D03*
X00066290Y00028999D03*
X00066069Y00029127D03*
X00065847Y00029255D03*
X00065626Y00029383D03*
X00065404Y00029511D03*
X00064272Y00027551D03*
X00064494Y00027423D03*
X00064715Y00027295D03*
X00064937Y00027167D03*
X00065159Y00027039D03*
X00065380Y00026911D03*
X00065602Y00026783D03*
G54D63*
X00064472Y00026035D03*
X00064859D03*
G54D80*
X00063928Y00031293D03*
X00064149Y00031165D03*
X00064371Y00031037D03*
X00064814Y00030781D03*
X00064593Y00030909D03*
X00065036Y00030653D03*
X00065257Y00030525D03*
X00065479Y00030397D03*
X00062796Y00029332D03*
X00063017Y00029204D03*
X00063461Y00028948D03*
X00063239Y00029076D03*
X00063682Y00028820D03*
X00064125Y00028565D03*
X00063904Y00028692D03*
X00064347Y00028437D03*
G54D61*
X00063439Y00026291D03*
X00063827D03*
G54D62*
X00066086Y00029728D03*
X00065751Y00029921D03*
G54D63*
X00063866Y00023801D03*
X00063479Y00023801D03*
G54D61*
X00072398Y00025221D03*
Y00025608D03*
G54D144*
X00071173Y00027756D03*
Y00027501D03*
Y00027245D03*
Y00026989D03*
X00072748Y00027501D03*
Y00027245D03*
Y00026989D03*
G54D143*
X00071576Y00028160D03*
X00072088D03*
X00071832D03*
X00072344D03*
X00071576Y00026585D03*
X00071832D03*
X00072088D03*
X00072344D03*
G54D116*
X00071960Y00027373D03*
G54D144*
X00072748Y00027756D03*
G54D160*
X00074050Y00030997D03*
X00071761Y00029273D03*
G54D154*
X00073544Y00029778D03*
X00073387Y00029660D03*
X00073230Y00029541D03*
X00073072Y00029423D03*
X00072915Y00029304D03*
X00073701Y00029897D03*
G54D144*
X00076783Y00027756D03*
Y00027501D03*
Y00027245D03*
Y00026989D03*
X00078358Y00027501D03*
Y00027245D03*
Y00026989D03*
G54D143*
X00077187Y00028160D03*
X00077698D03*
X00077442D03*
X00077954D03*
X00077187Y00026585D03*
X00077442D03*
X00077698D03*
X00077954D03*
G54D116*
X00077570Y00027373D03*
G54D144*
X00078358Y00027756D03*
G54D61*
X00075744Y00028392D03*
Y00028005D03*
G54D161*
X00077838Y00029273D03*
X00075549Y00030997D03*
G54D155*
X00076527Y00029423D03*
X00076370Y00029541D03*
X00076212Y00029660D03*
X00076055Y00029778D03*
X00075898Y00029897D03*
X00076684Y00029304D03*
G54D127*
X00076670Y00025886D03*
Y00025286D03*
X00073333Y00025758D03*
Y00025158D03*
G54D61*
X00077122Y00025555D03*
Y00025943D03*
G54D114*
X00075489Y00024272D03*
Y00024469D03*
Y00024666D03*
Y00024863D03*
Y00025060D03*
Y00025256D03*
Y00025453D03*
Y00025650D03*
Y00025847D03*
Y00026044D03*
X00074071Y00025847D03*
Y00025650D03*
Y00025453D03*
Y00025256D03*
Y00025060D03*
Y00024863D03*
Y00024666D03*
Y00024469D03*
G54D139*
X00074780Y00023583D03*
Y00026733D03*
G54D114*
X00074071Y00026044D03*
Y00024272D03*
G54D174*
X00042410Y00037088D03*
X00040296Y00035313D03*
G54D175*
X00047745Y00039165D03*
X00048524Y00039615D03*
G54D176*
X00049629Y00041856D03*
X00049939Y00041005D03*
X00050248Y00040154D03*
G54D177*
X00052260Y00041850D03*
G54D178*
X00035833Y00039272D03*
X00037607Y00037158D03*
G54D179*
X00049524Y00038469D03*
X00049354Y00038371D03*
X00049183Y00038272D03*
X00049013Y00038174D03*
X00048843Y00038076D03*
X00048672Y00037977D03*
X00048502Y00037879D03*
X00048331Y00037780D03*
X00048161Y00037682D03*
X00047990Y00037583D03*
X00048869Y00036454D03*
X00049040Y00036553D03*
X00049210Y00036651D03*
X00049381Y00036750D03*
X00049551Y00036848D03*
X00049722Y00036947D03*
X00049892Y00037045D03*
X00050063Y00037143D03*
G54D180*
X00050475Y00038200D03*
X00047748Y00036625D03*
G54D179*
X00048699Y00036356D03*
X00050233Y00037242D03*
G54D181*
X00052886Y00036362D03*
X00053918Y00037085D03*
G54D179*
X00061335Y00038469D03*
X00061165Y00038371D03*
X00060994Y00038272D03*
X00060824Y00038174D03*
X00060654Y00038076D03*
X00060483Y00037977D03*
X00060313Y00037879D03*
X00060142Y00037780D03*
X00059972Y00037682D03*
X00059801Y00037583D03*
X00060680Y00036454D03*
X00060851Y00036553D03*
X00061021Y00036651D03*
X00061192Y00036750D03*
X00061362Y00036848D03*
X00061533Y00036947D03*
X00061703Y00037045D03*
X00061874Y00037143D03*
G54D180*
X00062286Y00038200D03*
X00059559Y00036625D03*
G54D179*
X00060510Y00036356D03*
X00062044Y00037242D03*
G54D182*
X00073142Y00038469D03*
X00072972Y00038371D03*
X00072801Y00038272D03*
X00072631Y00038174D03*
X00072460Y00038076D03*
X00072290Y00037977D03*
X00072120Y00037879D03*
X00071949Y00037780D03*
X00071779Y00037682D03*
X00071608Y00037583D03*
X00072487Y00036454D03*
X00072658Y00036553D03*
X00072828Y00036651D03*
X00072999Y00036750D03*
X00073169Y00036848D03*
X00073340Y00036947D03*
X00073510Y00037045D03*
X00073681Y00037143D03*
G54D183*
X00074093Y00038200D03*
X00071366Y00036625D03*
G54D182*
X00072317Y00036356D03*
X00073851Y00037242D03*
G54D135*
X00075587Y00037056D03*
X00075843D03*
X00076355D03*
X00076099D03*
X00076355Y00039319D03*
X00076099D03*
X00075843D03*
X00075587D03*
M02*